<?xml version="1.0" encoding="UTF-8"?>
<svg id="Capa_2" data-name="Capa 2" xmlns="http://www.w3.org/2000/svg" viewBox="0 0 88.21 88">
  <defs>
    <style>
      .cls-1 {
        fill: #002075;
        stroke-width: 0px;
      }
    </style>
  </defs>
  <g id="Capa_1-2" data-name="Capa 1">
    <g>
      <path class="cls-1" d="M44.1,16c0-1.92-.12-3.64.06-5.33.07-.7.64-1.67,1.24-1.94,6.59-2.94,13.22-5.79,19.88-8.59.59-.25,1.48-.15,2.1.11,6.44,2.72,12.84,5.52,19.27,8.27,1.08.46,1.57,1.12,1.57,2.35-.04,6.94.05,13.89-.05,20.83-.07,4.82-2.16,8.73-5.99,11.67-1.68,1.29-3.43,2.48-5.29,3.82,2.26,2.04,2.53,4.64,2.5,7.42-.07,6.14-.02,12.28-.02,18.42,0,3.89-.37,4.32-4.36,4.84,0,1.66.02,3.37,0,5.07-.05,3.38-1.74,5.05-5.13,5.06-2.58.01-5.16.02-7.75,0-2.96-.03-4.71-1.72-4.8-4.68-.06-1.77-.01-3.55-.01-5.47H22.08c0,1.68,0,3.43,0,5.18-.02,3.24-1.75,4.96-5.01,4.97-2.58.01-5.16.02-7.75,0-3.08-.02-4.81-1.73-4.85-4.77-.02-1.77,0-3.54,0-5.41-.58-.05-1.02-.09-1.46-.12-1.8-.14-2.95-1.17-2.95-2.93-.04-7.52-.12-15.04.04-22.55.07-3.15,1.94-5.37,4.95-6.36,1.02-.34,1.46-.88,1.78-1.8,2.62-7.52,5.27-15.03,7.92-22.53,1.35-3.82,3.73-5.5,7.76-5.5,7.11,0,14.22,0,21.59,0ZM70.73,51.55c3.17,1.57,2.78,4.29,2.73,6.86-.06,2.8-1.7,4.5-4.5,4.57-2.81.07-5.62.07-8.43,0-3.34-.08-5.21-2.56-4.51-5.81.62-2.9,2.51-4.66,5.17-5.72-2.24-2.21-4.63-3.23-7.85-3.19-15.03.18-30.07.08-45.1.08-3.67,0-5.22,1.54-5.23,5.24-.01,6.43,0,12.85,0,19.28,0,.56,0,1.12,0,1.78h4.19c.68-5.16,1-5.75,3.56-5.72,1.45.02,3.45-.12,4.21.72,1.07,1.19,1.22,3.21,1.81,5.01h46.22c.96-5.55,1.1-5.8,4.08-5.74,1.28.03,3.13-.06,3.7.69,1,1.32,1.22,3.23,1.81,5.06h3.65c.09-.21.17-.31.18-.41.01-7.23.05-14.46,0-21.69,0-1.49-.69-2.75-2.15-3.53-1.09.78-2.16,1.54-3.53,2.51ZM38.17,19.1c-.38-.06-.71-.15-1.04-.15-4.99,0-9.98-.04-14.97,0-2.46.02-3.74,1.02-4.58,3.41-2.54,7.18-5.06,14.36-7.58,21.54-.14.41-.22.84-.35,1.3h42.3c-1.84-1.97-4.18-3.8-5.59-6.18-1.43-2.42-1.95-5.38-2.94-8.32-2.1,0-4.62,0-7.14,0-4.97,0-5.56-.61-5.38-5.55.08-2.22,1.1-3.25,3.29-3.29,1.3-.03,2.61,0,3.97,0v-2.77ZM66.14,51.18c4.67-3.33,9.25-6.58,13.82-9.84,3.46-2.47,5.24-5.84,5.26-10.1.02-6.25,0-12.5.02-18.76,0-.92-.23-1.46-1.13-1.84-5.69-2.42-11.36-4.9-17.05-7.31-.5-.21-1.25-.23-1.75-.02-5.75,2.43-11.48,4.9-17.18,7.44-.48.21-1,.97-1.01,1.49-.06,6.6-.1,13.19.01,19.79.06,3.72,1.75,6.76,4.74,8.95,4.67,3.42,9.41,6.74,14.27,10.21ZM7.37,77.77c0,2.01-.13,3.85.08,5.65.07.58,1.01,1.49,1.59,1.52,2.79.16,5.61.15,8.4,0,.57-.03,1.51-.83,1.56-1.34.19-1.9.07-3.84.07-5.84H7.37ZM72,77.82h-11.71c0,1.9,0,3.67,0,5.44,0,1.12.54,1.74,1.65,1.75,2.81.02,5.61.02,8.42,0,1.11,0,1.66-.62,1.65-1.75-.01-1.77,0-3.54,0-5.44ZM64.65,60.07c1.37,0,2.78.16,4.11-.07.66-.11,1.68-.92,1.69-1.42.03-1.43.85-3.15-.86-4.24-.18-.11-.44-.11-.67-.11-2.06,0-4.13-.08-6.18.04-2.08.11-3.78,1.94-3.88,3.92-.06,1.2.45,1.86,1.67,1.88,1.37.02,2.75,0,4.12,0ZM44.05,24.99h-10.11v2.61h10.11v-2.61ZM43.97,21.83v-2.77h-2.65v2.77h2.65ZM68.93,74.69v-2.78h-2.68v2.78h2.68ZM10.43,74.67h2.68v-2.76h-2.68v2.76Z"/>
      <path class="cls-1" d="M39.75,71.82c-3.26,0-6.53.01-9.79,0-2.41-.01-3.43-1.04-3.45-3.46-.02-1.78-.04-3.55.01-5.33.06-1.79,1.13-2.92,2.91-2.93,6.82-.04,13.63-.04,20.45,0,1.79,0,2.94,1.06,3.03,2.85.11,2,.11,4.01,0,6.01-.1,1.84-1.28,2.84-3.2,2.86-3.32.03-6.64,0-9.97,0ZM49.92,63.13h-20.42v5.6h20.42v-5.6Z"/>
      <path class="cls-1" d="M14.73,62.99c-1.49,0-2.99.06-4.48-.01-2.57-.13-4.2-1.86-4.37-4.41-.35-5.6,1.13-7.71,6.99-7.36,1.66.1,3.35-.01,4.97.28,3.26.59,5.61,3.58,5.66,6.88.03,2.56-1.58,4.41-4.12,4.58-1.54.1-3.1.02-4.65.02,0,0,0,0,0,.01ZM14.84,60.08c1.26,0,2.52.03,3.78,0,1.67-.05,2.23-.82,1.83-2.46-.47-1.96-2-3.27-4.03-3.37-1.26-.06-2.52,0-3.78-.02-3.87-.06-3.81-.2-3.76,4.1.02,1.22.64,1.76,1.83,1.76,1.37,0,2.75,0,4.12,0Z"/>
      <path class="cls-1" d="M28.4,23.59c-.91.51-1.63,1.26-2.21,1.17-2.93-.46-3.82,1.19-4.54,3.59-1.21,3.99-2.72,7.88-4.1,11.82-.13.38-.17.89-.43,1.1-.55.44-1.28,1.08-1.84,1-.98-.14-1.24-1.02-.89-2.01,1.83-5.17,3.59-10.36,5.49-15.51.93-2.53,4.66-3.9,7.14-2.73.44.21.72.78,1.4,1.57Z"/>
      <path class="cls-1" d="M49.98,23.12c0-2.81.03-5.62-.01-8.42-.02-1.12.39-1.79,1.45-2.23,4.53-1.91,9.03-3.92,13.58-5.79.7-.29,1.72-.26,2.42.03,4.5,1.85,8.94,3.84,13.42,5.73,1.12.47,1.52,1.19,1.51,2.38-.04,5.5,0,11-.03,16.5-.02,3.12-1.3,5.66-3.84,7.5-3.58,2.58-7.2,5.1-10.76,7.7-1.09.8-1.95.86-3.07.04-3.55-2.61-7.18-5.13-10.76-7.7-2.61-1.87-3.87-4.45-3.9-7.64-.02-2.69,0-5.39,0-8.08ZM66.15,43.97c3.64-2.59,7.14-5.07,10.63-7.58,1.82-1.31,2.57-3.13,2.56-5.35-.02-4.87-.03-9.74.01-14.62,0-.97-.22-1.54-1.21-1.95-3.65-1.5-7.25-3.13-10.9-4.64-.57-.23-1.38-.32-1.92-.1-3.81,1.57-7.59,3.2-11.34,4.91-.47.21-.97.98-.98,1.49-.07,5.16-.05,10.32-.02,15.48,0,1.9.79,3.48,2.31,4.59,3.56,2.6,7.16,5.14,10.86,7.78Z"/>
      <path class="cls-1" d="M62.95,31.57c3.35-4.19,6.62-8.31,9.94-12.39.74-.91,1.44-2.55,2.94-1.33,1.49,1.21.06,2.24-.67,3.16-3.37,4.27-6.78,8.51-10.17,12.75-1.29,1.61-1.78,1.68-3.39.49-1.52-1.12-3.02-2.27-4.53-3.4-.87-.65-1.75-1.38-.84-2.52.9-1.13,1.82-.44,2.68.21,1.31.99,2.64,1.97,4.05,3.03Z"/>
    </g>
  </g>
</svg>