<?xml version="1.0" encoding="UTF-8"?>
<svg id="Capa_2" data-name="Capa 2" xmlns="http://www.w3.org/2000/svg" viewBox="0 0 87.99 88">
  <defs>
    <style>
      .cls-1 {
        fill: #002075;
        stroke-width: 0px;
      }
    </style>
  </defs>
  <g id="Capa_1-2" data-name="Capa 1">
    <g>
      <path class="cls-1" d="M3.68,73.32c-.26-2.31-.71-4.45-.72-6.59-.06-13.62-.04-27.24-.03-40.87,0-5.34,2.92-8.26,8.26-8.27,2.5,0,5.01-.05,7.51.02,1.06.03,1.57-.28,1.97-1.34C24.65,6.02,33.77-.15,44.63,0c9.89.14,18.9,6.46,22.53,15.94.5,1.29,1.08,1.77,2.48,1.7,2.62-.13,5.25-.06,7.88-.03,4.38.06,7.5,3.14,7.51,7.53.03,14.54.04,29.08-.03,43.62,0,1.47-.6,2.93-.94,4.47-.07-.04.02.07.11.07,4.03-.06,3.83.11,3.8,4.05,0,.98,0,1.95,0,2.93-.05,4.61-3.1,7.7-7.71,7.71-11.85.02-23.7,0-35.54,0-12.15,0-24.31,0-36.46,0-5.33,0-8.25-2.93-8.26-8.27,0-1.28,0-2.57,0-3.85.01-2.27.27-2.53,2.52-2.55.49,0,.97,0,1.16,0ZM11.88,26.48v40.87h48.11c-1.6-2.77-3.08-5.34-4.57-7.91q-1.52-2.63.76-4.55c-1.24-2.16-2.5-4.34-3.73-6.47-15.06,5.26-32.13-4.59-33.51-21.94h-7.06ZM2.95,76.35c0,.98,0,1.82,0,2.67,0,4.68,1.33,6.03,5.94,6.03,23.45,0,46.9,0,70.34,0,.61,0,1.23.03,1.83-.03,1.96-.21,3.65-1.66,3.86-3.59.18-1.66.04-3.36.04-5.16-2.61,0-5.04-.04-7.47.03-.47.01-1,.34-1.39.67-3.27,2.79-6.92,2.79-10.26-.02-.35-.29-.81-.64-1.22-.65-3.89-.05-7.79-.03-11.75-.03-.03.46-.06.75-.08,1.04-.15,3.19-1.79,4.79-4.96,4.81-2.75.02-5.5.05-8.24-.01-2.49-.06-4.21-1.78-4.39-4.26-.03-.47-.04-.95-.07-1.5H2.95ZM43.75,46.96c12.19.04,22.16-9.75,22.22-21.84.06-12.19-9.73-22.12-21.87-22.17-12.25-.05-22.17,9.81-22.19,22.05-.02,12.13,9.71,21.92,21.83,21.96ZM68.9,26.48c-.63,7.02-3.56,12.87-8.81,17.51.69,1.2,1.28,2.26,1.89,3.31.64,1.1,1.29,2.19,1.93,3.26,2.52-1.17,2.69-1.12,3.99,1.13.4.69.8,1.37,1.19,2.06,2.27,3.93,4.55,7.87,7,12.1V26.48h-7.19ZM63.2,73.32c-.61-2.3-1.77-3-4-2.99-15.94.12-31.88.07-47.83.06-2.29,0-2.57-.27-2.57-2.5,0-13.99,0-27.98,0-41.97,0-2.15.3-2.44,2.43-2.45,2.6-.01,5.2,0,7.81,0,.16-1.07.28-1.9.43-2.92-2.82,0-5.5,0-8.18,0-3.87,0-5.42,1.56-5.42,5.46,0,13.93,0,27.86,0,41.79,0,3.99,1.53,5.53,5.53,5.53,16.61,0,33.23,0,49.84,0h1.94ZM57.77,57.62c3.26,5.62,6.37,11.13,9.63,16.55,1.18,1.97,3.7,2.43,5.66,1.37,2.02-1.1,2.99-3.59,1.86-5.65-3.05-5.55-6.27-11-9.52-16.66-2.59,1.49-5.05,2.91-7.63,4.4ZM68.93,23.46c2.59,0,5.08,0,7.58,0,2.43,0,2.67.23,2.67,2.58,0,13.92,0,27.84,0,41.77,0,.55.01,1.11-.13,1.63-.32,1.2-.73,2.38-1.18,3.79,3.09-.66,4.22-2.08,4.23-4.89.01-9.4,0-18.81,0-28.21,0-4.95.02-9.89,0-14.84-.01-2.61-1.55-4.58-3.91-4.69-3.16-.15-6.33-.04-9.66-.04.15,1.02.27,1.9.41,2.89ZM49.77,76.38h-11.56c-.11,2.5.15,2.79,2.48,2.8,2.2,0,4.39,0,6.59,0,2.33,0,2.6-.3,2.49-2.8ZM55.2,47.29c1.29,2.21,2.46,4.23,3.66,6.31.94-.56,1.69-1.01,2.5-1.49-1.3-2.23-2.48-4.25-3.68-6.32-.89.54-1.6.97-2.48,1.5Z"/>
      <path class="cls-1" d="M38.86,55.72c3.41,0,6.83.01,10.24,0,1.05,0,2.1.11,2.15,1.39.05,1.41-1.04,1.56-2.17,1.56-6.83-.01-13.66-.01-20.49,0-1.05,0-2.1-.11-2.15-1.4-.06-1.42,1.04-1.57,2.17-1.56,3.41.02,6.83,0,10.24,0Z"/>
      <path class="cls-1" d="M38.97,61.59c3.41,0,6.83.01,10.24,0,1.08,0,2.07.21,2.05,1.49-.01,1.29-1.02,1.46-2.09,1.46-6.89-.01-13.78-.01-20.67,0-1.08,0-2.07-.21-2.05-1.5.01-1.29,1.02-1.46,2.09-1.46,3.48.02,6.95,0,10.43,0Z"/>
      <path class="cls-1" d="M30.9,49.88c.97,0,1.99-.17,2.9.07.54.14,1.28.91,1.27,1.39,0,.48-.79,1.33-1.28,1.37-1.99.16-4.02.16-6.01,0-.49-.04-1.26-.91-1.26-1.39,0-.48.75-1.25,1.29-1.38.98-.22,2.05-.06,3.09-.06Z"/>
      <path class="cls-1" d="M20.59,49.87c.43,0,.95-.16,1.25.03.6.36,1.07.92,1.6,1.4-.5.5-.93,1.22-1.54,1.44-.7.25-1.62.25-2.33.01-.73-.24-1.31-.91-1.96-1.39.63-.5,1.22-1.05,1.89-1.47.26-.16.71-.03,1.08-.03,0,0,0,0,0,0Z"/>
      <path class="cls-1" d="M20.59,58.67c-.3,0-.61,0-.91,0-1.08.04-2.05-.23-2.03-1.51.03-1.28,1.03-1.48,2.09-1.44.61.02,1.3-.18,1.8.05.71.33,1.27.96,1.89,1.46-.65.48-1.27.99-1.96,1.42-.22.14-.59.02-.9.02Z"/>
      <path class="cls-1" d="M20.6,64.53c-.3,0-.61,0-.91,0-1.08.04-2.05-.22-2.04-1.5.02-1.28,1.02-1.49,2.08-1.45.61.02,1.3-.18,1.8.05.71.32,1.28.95,1.91,1.45-.64.48-1.27,1-1.95,1.43-.22.14-.59.02-.9.02Z"/>
      <path class="cls-1" d="M44.1,5.87c10.52.05,19,8.66,18.94,19.23-.06,10.5-8.69,18.97-19.27,18.9-10.41-.07-18.89-8.68-18.85-19.14.04-10.53,8.63-19.04,19.18-18.99ZM27.85,24.9c0,8.92,7.28,16.18,16.19,16.15,8.84-.03,16.05-7.25,16.05-16.1,0-8.93-7.26-16.17-16.2-16.14-8.87.03-16.06,7.23-16.05,16.09Z"/>
      <path class="cls-1" d="M48.38,24.94c0-2.26.02-4.51,0-6.77-.02-1.35.53-2.07,1.94-2.04,1.16.02,2.32.02,3.47,0,1.41-.03,1.95.69,1.94,2.04-.02,4.51-.02,9.02,0,13.53,0,1.35-.53,2.07-1.94,2.04-1.16-.02-2.32-.02-3.47,0-1.41.03-1.96-.69-1.94-2.04.03-2.26,0-4.51,0-6.77ZM51.4,30.62c.14.11.27.22.41.33.32-.35.91-.69.92-1.04.07-3.29.08-6.58,0-9.87,0-.37-.64-.72-.99-1.08-.11.13-.23.25-.34.38v11.28Z"/>
      <path class="cls-1" d="M39.59,27.14c0-1.58,0-3.17,0-4.75.02-2.22,1.68-2,3.01-1.81,1.55.22,4.08-1.26,4.28,1.8.2,3.16.04,6.33.05,9.5,0,1.18-.53,1.84-1.74,1.85-1.28.01-2.56,0-3.84,0-1.21,0-1.76-.65-1.76-1.84,0-1.58,0-3.17,0-4.75ZM43.08,23.3c-.16.15-.31.3-.47.45v6.88c.14.11.27.22.41.33.32-.36.9-.7.91-1.08.1-1.82.09-3.65,0-5.47-.02-.39-.56-.75-.86-1.12Z"/>
      <path class="cls-1" d="M38.12,29.38c.05,4.61.25,4.39-4.35,4.36-2.86-.02-2.98-.12-2.99-2.99,0-1.1,0-2.19,0-3.29,0-.3-.06-.63.02-.91.81-2.98,3.23-1.2,4.89-1.58,1.2-.27,2.38.02,2.42,1.67.02.91,0,1.83,0,2.74ZM35.08,30.81q.21-2.84-1.54-2.72c.79.82-.86,2.55,1.54,2.72Z"/>
    </g>
  </g>
</svg>