<?xml version="1.0" encoding="UTF-8"?>
<svg id="Capa_2" data-name="Capa 2" xmlns="http://www.w3.org/2000/svg" viewBox="0 0 87.95 88">
  <defs>
    <style>
      .cls-1 {
        fill: #002075;
        stroke-width: 0px;
      }
    </style>
  </defs>
  <g id="Capa_1-2" data-name="Capa 1">
    <g>
      <path class="cls-1" d="M38.83,28.17c-3.08-5.26-1.88-9.25,3.35-11.5v-2.77c-.32-.05-.66-.18-.97-.12-2.63.47-4.09-.67-5.07-3.11-1.06-2.64-2.53-5.12-3.78-7.69-.88-1.8-.2-2.94,1.77-2.95,6.58-.03,13.17-.03,19.75,0,1.88,0,2.56,1.16,1.73,2.86-1.42,2.93-2.99,5.79-4.34,8.76-.72,1.58-1.67,2.37-3.42,2.13-.62-.08-1.26-.01-2.16-.01,0,1.34-.02,2.62,0,3.91.03,1.35-.5,2.11-1.94,2.31-2.08.29-3.3,1.73-3.21,3.56.08,1.71,1.49,3.14,3.19,3.25,1.83.13,3.33-1.1,3.63-3.14.19-1.27.7-2.16,2.06-1.92,1.37.24,1.64,1.4,1.34,2.54-.35,1.3-.93,2.54-1.46,3.93,2.89.8,5.91,1.62,8.93,2.46,5.18,1.44,10.35,2.88,15.52,4.33.78.22,1.37.32,2.05-.5,2.02-2.44,4.96-3.14,7.73-2.07,2.67,1.03,4.39,3.52,4.39,6.56.02,15.51.01,31.03,0,46.54,0,1.91-.53,2.43-2.46,2.43-10.99,0-21.98,0-32.97.01-1.25,0-2.44-.14-2.45-1.7-.01-1.68,1.26-1.76,2.56-1.76,9.96.01,19.92,0,29.88,0h1.92v-38.69H3.54v38.69h1.79c9.9,0,19.81,0,29.71,0,.51,0,1.15-.15,1.51.09.55.36,1.3,1.04,1.27,1.53-.04.61-.71,1.27-1.26,1.73-.28.23-.88.09-1.34.09-10.82,0-21.64,0-32.46,0-2.35,0-2.75-.42-2.75-2.83C0,69.9,0,54.67,0,39.45c0-3.44,1.62-5.98,4.45-7.05,2.8-1.06,5.51-.27,7.88,2.22.28.3.88.58,1.23.48,8.38-2.26,16.75-4.58,25.27-6.93ZM74.12,42.19q.21-3.49-2.96-4.37c-8.54-2.36-17.07-4.75-25.62-7.05-.98-.26-2.16-.25-3.14.02-8.61,2.31-17.2,4.71-25.79,7.08q-2.99.82-2.81,3.99c0,.1.11.19.19.33h60.13ZM51.45,3.54h-14.93c1.08,2.18,2.05,4.23,3.13,6.21.17.32.83.53,1.26.54,2.05.06,4.1.05,6.16,0,.4,0,1.01-.15,1.16-.42,1.1-2.03,2.11-4.12,3.22-6.34ZM3.51,42.12h6.67c.64-5.02-.69-6.51-3.26-6.68-2.65-.18-3.65,1.84-3.41,6.68ZM77.76,42.13h6.67c.63-5.69-1.26-6.71-3.37-6.66-2.48.05-3.92,1.47-3.3,6.66Z"/>
      <path class="cls-1" d="M10.31,64.93c0-3.31.02-6.62,0-9.94,0-1.28.27-2.4,1.78-2.37,1.39.02,1.68,1.09,1.68,2.3-.02,6.8-.02,13.59,0,20.39,0,1.22-.31,2.28-1.7,2.29-1.51.01-1.77-1.12-1.76-2.39.02-3.43,0-6.85,0-10.28Z"/>
      <path class="cls-1" d="M20.96,64.93c0-3.31.02-6.62,0-9.94,0-1.28.27-2.4,1.78-2.37,1.39.02,1.68,1.08,1.68,2.3-.02,6.8-.02,13.59,0,20.39,0,1.22-.31,2.28-1.69,2.29-1.51.01-1.78-1.11-1.77-2.39.02-3.43,0-6.85,0-10.28Z"/>
      <path class="cls-1" d="M35.05,65.11c0,3.37-.02,6.74,0,10.11,0,1.28-.27,2.4-1.78,2.38-1.39-.02-1.69-1.08-1.68-2.3.02-6.8.02-13.59,0-20.39,0-1.22.3-2.28,1.69-2.29,1.51-.02,1.78,1.11,1.77,2.38-.02,3.37,0,6.74,0,10.11Z"/>
      <path class="cls-1" d="M45.7,65.29c0,3.31-.02,6.62,0,9.94,0,1.28-.28,2.4-1.78,2.37-1.39-.02-1.68-1.09-1.68-2.3.02-6.8.02-13.59,0-20.39,0-1.22.31-2.27,1.7-2.29,1.51-.01,1.77,1.12,1.77,2.39-.02,3.43,0,6.85,0,10.28Z"/>
      <path class="cls-1" d="M52.9,64.95c0-3.31.02-6.62,0-9.94,0-1.27.25-2.42,1.76-2.39,1.51.02,1.71,1.2,1.7,2.45-.02,6.68-.02,13.36,0,20.04,0,1.25-.17,2.45-1.68,2.48-1.63.03-1.79-1.23-1.79-2.54.02-3.37,0-6.74,0-10.11Z"/>
      <path class="cls-1" d="M63.55,64.93c0-3.31.02-6.62,0-9.94,0-1.28.28-2.4,1.78-2.37,1.39.03,1.68,1.09,1.68,2.31-.02,6.8-.02,13.59,0,20.39,0,1.22-.31,2.26-1.7,2.29-1.39.02-1.76-.98-1.76-2.22.02-3.48,0-6.97,0-10.45Z"/>
      <path class="cls-1" d="M74.2,65.12c0-3.31.02-6.62,0-9.94,0-1.3.13-2.57,1.77-2.55,1.51.01,1.7,1.2,1.7,2.46-.02,6.68-.02,13.36,0,20.04,0,1.25-.18,2.45-1.68,2.47-1.63.03-1.79-1.24-1.78-2.54.02-3.31,0-6.62,0-9.94Z"/>
      <path class="cls-1" d="M44.32,84.26c.45.66,1.32,1.37,1.25,1.96-.08.63-.99,1.49-1.65,1.6-.45.08-1.49-.93-1.53-1.51-.05-.65.73-1.35,1.15-2.03.26,0,.52-.01.79-.02Z"/>
    </g>
  </g>
</svg>