<?xml version="1.0" encoding="UTF-8"?>
<svg id="Capa_2" data-name="Capa 2" xmlns="http://www.w3.org/2000/svg" viewBox="0 0 68 88.15">
  <defs>
    <style>
      .cls-1 {
        fill: #002075;
        stroke-width: 0px;
      }
    </style>
  </defs>
  <g id="Capa_1-2" data-name="Capa 1">
    <g>
      <path class="cls-1" d="M10.43,58.26c2.21,3.16.58,5.38-1.38,7.5-1.71,1.85-3.71,1.73-6.06.65-.12,1.64-.26,3.11-.32,4.58-.04.95-.25,1.91-1.35,1.71-.51-.09-1.18-1.04-1.23-1.65-.59-7.51,4.56-14.31,11.98-15.75,3.93-.76,7.9-1.28,11.84-1.99.4-.07.97-.7,1-1.1.08-1.06.51-2.13-.56-3.17-1.79-1.73-3.55-3.57-4.91-5.63-.97-1.48-1.27-3.4-1.92-5.29-3.71-1.62-4.99-6.11-2.6-9.78.29-.44.43-1.03.48-1.57.08-.85-.07-1.73.04-2.58.27-2.1-.3-3.48-2.27-4.73-3.3-2.08-3.76-5.16-1.62-8.48,3.06-4.75,7.65-7.53,12.86-9.27,10.46-3.49,20-1.58,28.56,5.29,1.23.99,2.31,2.25,3.22,3.55,2.57,3.7,1.95,6.97-1.86,9.35-1.36.84-1.93,1.71-1.74,3.26.12.96-.08,1.96.05,2.92.12.91.32,1.89.78,2.67,1.82,3.08.55,7.72-2.57,9.18-.32.15-.62.61-.69.97-.81,4.25-2.87,7.69-6.45,10.18-1.29.9-.69,2.17-.59,3.29.1,1.14,1.04.83,1.83.97,4.34.76,8.77,1.27,12.97,2.52,6.08,1.8,9.9,7.49,10.04,14.17.09,4.47.05,8.95.01,13.42-.03,3.13-1.68,4.71-4.84,4.72-19.39,0-38.77,0-58.16,0-3.26,0-4.86-1.58-4.9-4.84-.02-1.78-.11-3.57.06-5.33.06-.6.82-1.12,1.26-1.68.43.56,1.18,1.08,1.24,1.68.17,1.76.11,3.55.05,5.33-.05,1.51.59,2.26,2.11,2.24,1.48-.01,2.96,0,4.67,0,0-2.35,0-4.51,0-6.67,0-1.15-.13-2.32.06-3.43.1-.59.74-1.08,1.14-1.62.45.54,1.27,1.06,1.29,1.62.14,2.69.06,5.39.06,8.08,0,.62,0,1.23,0,2.03,1.97,0,3.73,0,5.5,0,3.1,0,6.2-.04,9.29.02,1.06.02,1.53-.31,1.67-1.4.64-4.94,1.36-9.87,2.04-14.81.32-2.37-.58-3.19-2.88-3.31-.99-.05-2.2-.72-2.84-1.49-1.78-2.16-3.35-4.51-4.93-6.83-.56-.82-1.16-1.11-2.14-.9-2.33.5-4.69.92-7.27,1.42ZM45.38,26.98c-3.96.39-7.71,1.07-11.45,1.06-3.75,0-7.5-.69-11.31-1.09,0,.85.08,1.78-.02,2.68-.16,1.51-1.45,2.15-2.75,1.44-3.2-1.75-3.4-1.63-3.33,2.05,0,.11,0,.23,0,.34-.02,1.25.57,2,1.85,1.94,1.43-.06,1.85.61,1.96,1.95.28,3.44,1.61,6.44,4.31,8.69,4.25,3.54,9.06,4.62,14.29,2.63,5.3-2.01,8.32-5.91,8.77-11.63.09-1.14.57-1.68,1.72-1.63,1.58.07,2.15-.8,2.07-2.26-.02-.46,0-.92,0-1.38-.04-1.93-.74-2.31-2.46-1.33-.25.14-.45.35-.7.5-1.45.9-2.79.25-2.93-1.45-.07-.91-.01-1.82-.01-2.52ZM56.01,85.55c0-3.49-.06-6.75.06-10,.02-.59.77-1.16,1.19-1.73.44.56,1.19,1.09,1.25,1.68.16,1.88.06,3.78.06,5.67,0,4.56,0,4.53,4.55,4.4,1.59-.05,2.25-.7,2.23-2.31-.06-4.53,0-9.06-.04-13.58-.01-1.04-.26-2.08-.42-3.25-2.14,1.04-4.04,1.21-5.64-.38-2.14-2.14-4-4.44-1.67-7.82-2.82-.52-5.34-1.04-7.89-1.39-.44-.06-1.12.44-1.44.87-1.68,2.25-3.29,4.55-4.91,6.84-.79,1.12-1.78,1.74-3.2,1.58-1.71-.2-2.9.91-2.68,2.64.67,5.23,1.4,10.44,2.18,15.65.06.43.74,1.08,1.14,1.09,4.98.07,9.97.05,15.24.05ZM49.97,18.93c0-.81-.06-1.43.01-2.03.21-1.75-.48-2.67-2.27-2.92-1.75-.25-3.48-.71-5.22-1.04-7.63-1.43-15.18-1.04-22.62,1.15-.69.2-1.54.88-1.73,1.51-.29.98-.08,2.11-.08,3.32.85,0,1.47,0,2.09,0,6.31,0,12.62,0,18.93,0,.51,0,1.12-.12,1.52.11.42.23.85.8.89,1.25.03.34-.48.88-.87,1.07-.43.2-1.01.12-1.52.12-6.14,0-12.28,0-18.41,0-.52,0-1.04,0-1.86,0,5.61,5.49,25.9,5.09,30.23,0-.89,0-1.67.17-2.31-.05-.56-.2-.96-.84-1.43-1.29.47-.4.89-1.03,1.42-1.13.98-.18,2.03-.05,3.25-.05ZM15.32,17.75c.38-5.11.77-5.48,5.71-6.71,8.82-2.2,17.6-1.85,26.38.23,4.58,1.09,5,1.55,5.22,6.16,0,.08.12.15.19.23,2.46-1.43,2.93-3.02,1.43-5.34-.61-.95-1.35-1.88-2.19-2.63-7.39-6.55-15.91-8.55-25.42-5.98-5.09,1.37-9.54,3.94-12.7,8.31-1.77,2.44-1.33,4.12,1.38,5.73ZM41.28,55.15c-.43-1.51-.78-2.74-1.09-3.82-2.11.31-4.18.85-6.25.85-2.06,0-4.13-.57-6.12-.87-.34,1.18-.69,2.43-1.1,3.84,2.34,1.76,4.8,3.59,7.29,5.45,2.53-1.89,4.94-3.69,7.28-5.45ZM30.88,85.44h6.24c-.75-5.43-1.46-10.73-2.24-16.02-.04-.3-.67-.79-.88-.73-.38.12-.86.55-.93.91-.3,1.51-.45,3.05-.66,4.57-.51,3.71-1.01,7.43-1.54,11.26ZM31.37,61.88c-2.64-1.98-5.09-3.86-7.6-5.65-.41-.29-1.08-.2-2.11-.36,1.91,2.67,3.47,4.92,5.12,7.09.22.29.92.45,1.29.33,1.07-.35,2.08-.87,3.3-1.41ZM46.34,55.87c-1.03.16-1.7.07-2.11.37-2.51,1.79-4.96,3.67-7.6,5.65,1.21.53,2.23,1.06,3.3,1.41.37.12,1.07-.04,1.29-.33,1.65-2.18,3.21-4.42,5.12-7.1ZM4.14,63.67c1.93,1.38,2.35,1.25,3.98-.85.81-1.04,1.26-2.03-.34-3.14-1.21,1.32-2.38,2.6-3.64,3.99ZM60.13,59.59c-1.39,1.71-1.16,2.67.76,4.43,1,.92,1.89.78,2.9-.44-1.22-1.33-2.39-2.6-3.66-4ZM36.29,64.74c-1.65-1.2-3.13-1.21-4.6.1,1.47,1.79,3.28,1.75,4.6-.1ZM19.84,27.78c.39-1.56.22-2.73-1.76-3.02,0,1.37-.64,2.93,1.76,3.02ZM49.79,24.78c-1.87.27-2.02,1.45-1.63,2.96,2.03-.39,2.05-.42,1.63-2.96Z"/>
      <path class="cls-1" d="M19.75,81.63c-.97,0-1.95.01-2.92,0-.4,0-.86.04-1.18-.14-2.43-1.44-1.15-3.8-1.29-5.76-.1-1.39,1.07-1.92,2.35-1.94,2.06-.03,4.12-.04,6.18,0,1.5.03,2.31.84,2.42,2.34,0,.06,0,.11,0,.17.1,5.54-.02,5.46-5.57,5.34ZM22.57,76.52h-5.62v2.46h5.62v-2.46Z"/>
      <path class="cls-1" d="M48.26,81.63c-.97,0-1.95,0-2.92,0-.4,0-.86.05-1.18-.12-2.46-1.31-1.3-3.64-1.41-5.55-.08-1.4.95-2.15,2.35-2.17,2.12-.03,4.23-.05,6.35.01,1.4.04,2.25.78,2.26,2.26.04,5.5.46,5.73-5.45,5.58ZM45.39,78.91h5.69v-2.39h-5.69v2.39Z"/>
    </g>
  </g>
</svg>