<?xml version="1.0" encoding="UTF-8"?>
<svg id="Capa_1" data-name="Capa 1" xmlns="http://www.w3.org/2000/svg" version="1.1" viewBox="0 0 1080 1080">
  <defs>
    <style>
      .cls-1 {
        fill: #fff;
        stroke-width: 0px;
      }
    </style>
  </defs>
  <path class="cls-1" d="M873.7,904.8h-86.3c0,12.6-.3,24.3,0,36,.5,13.9-5.2,21.1-19.7,21-55-.1-110-.1-165,0-13.6,0-19-6.7-18.5-19.9.5-11.8.1-23.6.1-36.7h-88.8c0,12.3-.4,24.6.1,36.9.5,13.3-5.2,19.8-18.7,19.8-55,0-110,0-165,0-13.1,0-19.7-5.9-19.4-19.3.3-11.9,0-23.7,0-37.1h-87.9c0,11.7-.3,23.4,0,35,.5,14.9-6,21.7-21.2,21.5-34.4-.4-68.8-.4-103.1,0-15.2.1-21.2-6.5-20.8-21.7,1.3-59.8,2.9-119.6,2.8-179.5-.1-79.9-1.9-159.7-2.6-239.6-.4-39.3,13.8-53.3,52.7-53.4,22.3,0,44.7,0,72.8,0-10.6-10.7-18.5-17.3-24.6-25.3-5.3-6.9-13.5-17.4-11.4-22.6,2.8-6.8,14.5-9.8,26.8-17.1,0-23.5,0-52.5,0-81.6,0-26.7,1.7-28.3,29.1-28.3,12.5,0,25,.3,37.5,0,14.3-.4,20.2,6.4,20,20.6-.4,31.2-.1,62.3-.1,94.6,5.4.5,9.6.6,13.7,1.3,16.5,2.8,20.6,13.8,9.1,26.4-8.8,9.6-18.8,18.1-28.2,27.1.5,1.7.9,3.4,1.4,5.2,21.8,0,43.7.9,65.4-.2,25-1.4,44.4,5.6,53.5,28.6h122.4c1.2-1.7,2.4-3.5,3.5-5.2-7.4-6.2-15.9-11.6-21.8-19-5.6-7.1-12.1-16.8-11.3-24.6.5-4.7,14.2-8,26.1-14.1,0-11,0-26.3,0-41.7,0-25,.6-50-.2-75-.5-17.9,7-25.1,24.7-23.9,12.4.9,25,0,37.5.2,21.4.2,24.6,3.3,24.7,25.3.2,32.5,0,65,0,97.5,0,6.8,0,13.6,0,21.3,5.6.7,9.8,1,13.9,1.7,15.2,2.6,19.6,13.7,9.2,25.3-8.7,9.7-18.9,18.2-32.5,31h126.1c.2-3.5.5-9,.8-14.5,1.4-25.5,17.5-41.4,43.4-41.8,25.5-.4,51,0,81.8,0-11-11.2-19.7-18.8-26.8-27.6-4.7-5.8-11.7-16-9.6-19.7,3.3-5.9,13.3-8,20.5-11.6,1.6-.8,3.6-.9,7-1.7,0-20.9.6-42.1-.2-63.2-.6-16.2,6.4-22.8,22.3-22.1,15,.6,30,.3,45,.1,13.2-.2,19.5,6,19.4,19.4-.2,21.8,0,43.6,0,66.2,5.3.6,9.5.9,13.6,1.7,16.4,3.3,20.3,14.2,8.5,26.6-9,9.5-19.4,17.5-29.2,26.2.8,1.9,1.5,3.8,2.3,5.6,22.6,0,45.2,0,67.8,0,38.9,0,53.3,14.3,53.4,52.8,0,80.6,0,161.2,0,241.8,0,67.8,0,135.6,0,203.5,0,22.2-2.6,25-24.6,25.1-31.9.2-63.8.2-95.6,0-21.6-.1-24.4-3.2-24.7-25.3-.1-8.7-.2-17.5-.3-26.2,0-1.2-.5-2.4-1.2-5.5ZM468,525.1c-24.6,0-46.4.5-68.2-.2-15.8-.4-20.8,7.2-20.7,21.8.3,63.1.4,126.2,0,189.3-.1,15.8,5.5,22.6,21.9,22.5,92.5-.4,185-.5,277.5,0,17.5,0,23.1-7.3,22.7-23.7-.7-27.5,0-55-.3-82.5,0-10.3,1.4-20.1,13.7-20.3,12.4-.2,14.2,9.6,14.1,19.9-.2,28.1.3,56.2-.2,84.4-.3,15.9,6.1,22.3,22.3,22.2,73.1-.5,146.3-.5,219.4,0,16.6.1,22-6.9,21.8-22.5-.4-45.6-.1-91.2-.1-136.8,0-36.9,0-73.7,0-110.6,0-10.7-1.2-21-14.8-21.7-14.1-.8-28.3-.2-44-.2,0,14.1-.1,25.9,0,37.7.2,13.8-5.8,20.8-20.2,20.7-35-.3-70-.3-105,0-14.3.1-20.5-6.6-20.2-20.6.3-12.2,0-24.4,0-38-12.8,0-22.7,0-32.6,0-23.6.2-26.5,3.2-26.6,27.4,0,27.5.7,55-.7,82.5-.3,5.9-7.3,15.1-12.7,16.3-11,2.3-14.5-6.7-14.4-16.7.1-11.2,1.3-22.7-.6-33.7-1.1-6.1-7.2-15.8-11.5-16-25.2-1.5-50.5-.7-76.7-.7,0,15.3-.1,27.8,0,40.2.2,11.8-5.8,17.3-17.2,17.3-36.2,0-72.5,0-108.7.1-13.7,0-18.8-7-18.3-20.1.5-11.7.1-23.5.1-37.9ZM176.7,496.7v27c11.8,4.1,26.2,9.9,14.5,23.7-5.6,6.5-21.7,6.3-32.6,5.1-4.5-.5-10-11.5-11.1-18.3-1.8-12-.5-24.5-.5-38.5-12.2,0-22.1,0-31.9,0-24.2.1-26.8,2.6-26.8,26.9,0,69.9,0,139.9,0,209.8,0,23.9,2.1,26.1,25.2,26.1,70.6,0,141.1,0,211.7,0,24.2,0,26.2-2.2,26.2-27.2,0-61.2.2-122.4,0-183.6-.2-55.8,7.3-53-54.3-51.4-1.1,0-2.1,1.1-4.9,2.7,0,11.4,1.3,24-.5,36-1,6.7-6.4,16.7-11.7,18-11.1,2.8-23.6,2.1-35.2.3-4.5-.7-11.5-8.4-11.1-12.2.6-5.3,6.2-11.4,11.3-14.4,4.7-2.7,11.6-1.7,17.1-2.3v-27.5h-85.5ZM990.6,846.1H90v29.1c9.1,0,16.5,0,24,0,74.4,0,148.7,0,223.1,0,5.6,0,12.2-1.6,16.6.7,5.7,3,9.6,9.2,14.3,14-4.9,4.6-9.3,11.8-15,13.1-9.3,2.2-19.6.6-30.2.6v28.5h143.9v-28.4c-11.8,0-22.3.2-32.8,0-11.5-.2-27.2,3.1-27.1-14.3.2-17.1,15.9-13.7,27.4-14.2,4.4-.2,8.7,0,13.1,0,173.1,0,346.2,0,519.3,0h23.9v-29.1ZM525.1,322.5c0,38.6.3,76.4-.2,114.2-.1,10.6-2.7,21.2-4.1,31.1,5.5,6.8,11.6,14.4,19.1,23.8,8.2-9.3,14.6-16.7,19.8-22.6-1.7-10.8-4.4-20.8-4.6-30.8-.5-38.4-.2-76.8-.2-115.6h-29.9ZM757.7,904.9h-144.1v27.6h144.1v-27.6ZM233.7,788.9H88.1c.5,10,.8,18.4,1.2,27.4h144.3v-27.4ZM846.4,815h144.4v-27.8h-144.4v27.8ZM202.1,322.4v115.6c-1.8.3-3.6.6-5.4.8,7.4,7.3,14.9,14.5,21.4,20.9,8.4-7.7,16-14.7,23.7-21.8-1.8,0-3.6,0-5.4-.1v-115.5h-34.4ZM881.6,410.9c-1.4-.6-2.8-1.2-4.1-1.8v-86.4h-30.8c-1.3,29.6-2.6,58.3-3.9,87.8,4.5,5.2,11.3,12.9,18.6,21.3,7.2-7.5,13.7-14.2,20.2-20.9ZM496.2,816h86.7v-27.3h-86.7v27.3ZM496.2,553.8h86.7v-27.2h-86.7v27.2ZM408.2,788.5h-85.7v27.4h85.7v-27.4ZM757.7,788.5h-85.8v27.4h85.8v-27.4ZM88.9,932.3h86.3v-26.9h-86.3v26.9ZM903.1,495.7v-28h-84.7v28h84.7ZM990.8,905.2h-86v27.3h86v-27.3ZM291.3,816.7v-28.3h-27.1v28.3h27.1ZM467.2,788.5h-27.5v27.3h27.5v-27.3ZM641.5,788.8h-28.2v27h28.2v-27ZM816.8,788.6h-28.3v27.2h28.3v-27.2Z"/>
  <path class="cls-1" d="M527.8,262.9c-48.6-.1-45.4,5.2-45.3-45.3,0-26.2.3-52.4,0-78.6-.2-14.1,5.5-20.9,19.9-20.6,18.1.4,36.2-.7,54.3.4,31.7,1.9,49,30.6,38.1,60.5-2.4,6.5-2.9,15.3-.5,21.7,11.9,31.6-6.5,60.8-40.1,61.8-8.7.3-17.5,0-26.2,0ZM511.1,176.4c15.7,0,29.5,1.5,42.8-.7,5.8-1,10.5-9.3,15.7-14.2-5.2-5-10-13.3-15.8-14.2-13.7-2.1-28-.7-42.7-.7v29.8ZM511.1,234.5c15.5,0,30.5,1.3,45-.7,5.1-.7,11.7-9.1,12.6-14.8.6-3.8-7.3-12.3-12-12.9-15-1.7-30.4-.6-45.5-.6v29Z"/>
  <path class="cls-1" d="M249.1,206.1h-58.7c0,12.7,1.7,24.7-.6,35.9-1.5,7.5-7.8,18.4-13.6,19.6-11.7,2.4-14.6-8.4-14.6-18.7,0-26.8-.5-53.6.2-80.4.6-26.5,16.8-42.6,43.4-44,7.5-.4,15-.2,22.4-.1,34.8.5,49.8,15.6,50,50.6,0,23.1,0,46.1,0,69.2,0,10.7,1.3,23.7-13.6,24-16.6.4-14.5-13.8-14.8-24.8-.3-9.9,0-19.7,0-31.3ZM251.2,175.5c-3.2-9.9-4.6-24.1-8.7-25-14.6-3-30.5-3.2-45.1-.3-4.3.8-6.1,15-9.8,25.3h63.7Z"/>
  <path class="cls-1" d="M802.6,190.9c0-1.9.1-3.8,0-5.6-5.5-72.5,35.2-70,82.4-65.4,17.6,1.7,32.7,18.9,32.6,35.9,0,5.9-6.3,11.7-9.8,17.6-5.8-3.4-13.9-5.5-16.8-10.5-8.1-14.4-40.9-23.9-53.6-13.2-3.6,3.1-5.9,9.6-6.1,14.7-.7,17.4-.2,34.9-.3,52.4,0,12.6,6.7,18.5,18.7,18,16.9-.7,37.7,7,42.9-20.3.6-3.3,12.3-8.2,14.5-6.6,5.1,3.8,10.3,11.1,10.4,17.1.2,17.4-16.1,33.9-34,37.2-1.8.3-3.7.4-5.6.5-49.8,1.9-80.2,2.4-75.4-71.8Z"/>
  <path class="cls-1" d="M611.7,728.4c-12.5,0-24.9-.3-37.4,0-13.2.4-19.6-5.5-19.4-18.9.3-16.2.2-32.4,0-48.6-.2-12.3,5.6-18.8,17.8-18.9,26.2-.2,52.3,0,78.5,0,12.3,0,18.4,6.3,18.5,18.4.1,16.8.1,33.6,0,50.4,0,12.3-6.4,18-18.8,17.6-13.1-.4-26.2,0-39.2,0ZM584.5,699.7h55.5v-27.8h-55.5v27.8Z"/>
  <path class="cls-1" d="M918.2,728.4c-43.6-.2-43.3,5.5-43-43.9.2-42.5,0-42.5,43-42.5,43.7,0,43.6,0,43.7,43.5.2,48.7,1.2,42.7-43.7,42.9ZM905.4,671.4v28.2h26.9v-28.2h-26.9Z"/>
  <path class="cls-1" d="M277.6,728.4c-44.6-.2-42.8,4.9-42.7-42,0-46.7-3.6-44.7,44.5-44.5,42.1.2,42,0,42.2,41.6.3,50.4.9,44.7-44,44.9ZM291.6,699.9v-27.5h-27.7v27.5h27.7Z"/>
</svg>