<?xml version="1.0" encoding="UTF-8"?>
<svg id="Capa_1" data-name="Capa 1" xmlns="http://www.w3.org/2000/svg" version="1.1" viewBox="0 0 1080 1080">
  <defs>
    <style>
      .cls-1 {
        fill: #fff;
        stroke-width: 0px;
      }
    </style>
  </defs>
  <path class="cls-1" d="M630.5,903.8c-10.9,0-19.2,0-27.6,0-160.6,0-321.2,0-481.8,0-57,0-81.4-24.5-81.5-81.7,0-233.9,0-467.7,0-701.6,0-56.1,24.6-80.9,80.1-80.9,234.5,0,469,0,703.5,0,55.6,0,80.4,24.8,80.4,80.6,0,112.3.1,224.6-.1,336.9,0,11.5,4.7,17.5,12.8,25.9,21.9,22.8,44.9,36,77.9,39.4,29.9,3.1,45.8,33,45.9,68,.3,81.7.1,163.5.1,245.2,0,43.4.2,86.7,0,130.1-.3,47.6-26.5,74.4-73.5,74.6-87.4.3-174.8.4-262.2,0-46.6-.2-73.2-27.6-73.9-74.9-.3-19.7,0-39.4,0-61.5ZM130.4,86.9c-36.7-5.3-45.7,1.8-45.7,35,0,232.5,0,465,0,697.5,0,33.8,5.6,39.4,39.8,39.4,160.6,0,321.3,0,481.9,0,7.5,0,15,0,24.1,0,0-11.1,0-18.8,0-26.6,0-77.5,0-155,0-232.5,0-56.3,23.7-80.4,79.4-82.7,7-.3,16.7-4.5,20.3-10.1,16.3-25.2,38.6-36.4,68.2-35.5,19.6.6,39.2.1,60.3.1,0-9.4,0-15.7,0-21.9,0-108.8,0-217.6,0-326.4,0-32.8-5.9-38.7-38.3-38.8-146.4,0-292.9,0-439.3,0-7.5,0-14.9.8-23.5,1.3,0,10.5,0,18.3,0,26,0,71.1.5,142.2-.5,213.3-.1,9.9-5.2,25.5-12,28.2-8.6,3.4-23.1-1.1-32-7-23.7-15.5-45.7-33.5-68.9-50.9-24.3,18.2-46.9,36.5-71.2,52.4-8.2,5.4-22.2,8.8-30.3,5.3-6.7-2.8-11.8-17-11.9-26.3-1-66.1-.5-132.2-.5-198.4,0-14,0-28.1,0-41.7ZM676.5,778c0,61.1,0,122.3,0,183.4,0,27,6.8,33.9,34.1,33.9,83.1.2,166.3.1,249.4,0,28.3,0,35-6.9,35.1-35.4.1-56.2,0-112.3,0-168.5,0-66.1,0-132.2,0-198.3,0-13.9-3.3-26.6-18.8-29.2-13.9-2.2-28.4-6.8-38.2,11.9-11.8,22.4-33.1,32.3-58.5,32.4-29.1.1-58.3,0-87.4,0-25.5,0-46.9-9.9-58.8-32-10.5-19.5-25.5-14.8-40-11.9-15.7,3.1-17.1,16.5-17.1,30.2.2,61.1,0,122.3,0,183.4ZM311.1,288.2V85.9h-133.4v202.1c17.8-13.3,33.1-24.3,48-35.9,12.5-9.7,24.3-9.8,36.8-.2,15.1,11.6,30.5,22.9,48.6,36.3ZM834.9,562s0,0,0,0c14.9,0,29.8,0,44.7,0,14.3-.1,23-6.9,23.2-21.8.2-14.7-7.9-22.3-22.4-22.4-29.8-.2-59.6-.2-89.4,0-14.8,0-22.5,8.5-22.2,22.8.2,13.2,7.7,21.1,21.5,21.4,14.9.3,29.8,0,44.7,0Z"/>
  <path class="cls-1" d="M289.7,813.1c-42.6,0-85.1-.2-127.7.1-16.9.1-31.1-4.1-31-23.5,0-18.1,14-22.7,29.8-22.7,85.9,0,171.7,0,257.6,0,15.9,0,29.4,4.2,29.6,22.7.2,19.6-13.5,23.7-30.6,23.6-42.6-.5-85.1-.1-127.7-.2Z"/>
  <path class="cls-1" d="M221.5,676.4c21.3,0,42.5.1,63.8,0,16-.1,26.9,7.1,26.8,23.4,0,15.2-11.1,22.4-25.7,22.5-43.2.3-86.5.3-129.7,0-14.6,0-25.4-6.9-25.5-22.5,0-16.5,10.4-23.6,26.5-23.4,21.3.2,42.5,0,63.8,0Z"/>
  <path class="cls-1" d="M771.1,669.2c17.1-11.3,33.1-21.8,48.9-32.4,12.5-8.4,24.3-8.8,33.4,4.1,9.8,13.8,4.8,25.3-8.4,34.2-20,13.4-40.3,26.3-60,40.2-13.3,9.4-24.9,8.3-36.2-2.4-6.2-5.9-12-12-18-18-9.8-9.9-12.2-21.3-3.3-32.3,10-12.4,22.2-10,33.8-1.4,2.8,2.1,5.3,4.5,9.7,8.2Z"/>
  <path class="cls-1" d="M771.3,805.7c18-11.9,33.9-22.5,49.8-33,12.8-8.4,24.7-7.2,33.1,5.7,8.5,13,4.1,24.3-8.4,32.6-21.2,14.2-41.7,29.7-64,41.6-7.7,4.1-21.1,1.6-30.3-2.1-7.9-3.2-13.4-12.2-19.9-18.7-10.6-10.4-13.3-22.4-3.1-33.8,10.6-11.9,22.7-8.6,33.9.3,2.7,2.1,5.3,4.4,8.9,7.3Z"/>
  <path class="cls-1" d="M767.8,949.5c-7.8,0-17.1,2.7-23.1-.6-8.6-4.8-20.3-13.8-20.6-21.3-.2-7.6,10.8-20.5,18.9-22.4,15.5-3.6,33-3.6,48.5-.1,8.3,1.9,18.5,13.5,20,22.1,2.3,13.4-8,21.8-22.4,22.3-7.1.2-14.2,0-21.3,0,0,0,0,0,0,0Z"/>
</svg>