<?xml version="1.0" encoding="UTF-8"?>
<svg id="Capa_2" data-name="Capa 2" xmlns="http://www.w3.org/2000/svg" viewBox="0 0 56.01 60">
  <defs>
    <style>
      .cls-1 {
        fill: #c60;
        stroke-width: 0px;
      }
    </style>
  </defs>
  <g id="Capa_1-2" data-name="Capa 1">
    <g>
      <path class="cls-1" d="M27.03,57.92h3.91v-13.93c-.48,0-.93,0-1.37,0-9.2,0-18.4,0-27.6,0-1.79,0-1.92-.13-1.92-1.91,0-4.75,0-9.49,0-14.24,0-.25-.09-.56.02-.74.26-.4.62-.74.94-1.1.35.38.74.73,1.01,1.16.13.21.03.57.03.86,0,4.16,0,8.33,0,12.49,0,.45,0,.89,0,1.41h17.88c.03-.26.1-.53.1-.81,0-6.08.03-12.16,0-18.23-.03-4.51-3.31-8.16-7.82-8.81-4.28-.61-8.47,2.08-9.73,6.28-.22.75-.33,1.54-.39,2.33-.06.7-.22,1.3-1.02,1.29-.89,0-1.01-.67-1.01-1.41.01-5.4,4.84-10.43,10.38-10.52,7.08-.12,14.15-.05,21.23,0,.46,0,1.22.52,1.3.91.17.84-.55,1.06-1.3,1.06-4.16,0-8.33,0-12.49,0-.45,0-.91,0-1.54,0,.18.24.25.37.35.46,2.83,2.38,4.1,5.44,4.08,9.12-.04,5.62-.01,11.24-.01,16.86,0,.45,0,.91,0,1.45h31.83c.05-.09.12-.16.12-.23.01-6.37.08-12.74,0-19.11-.06-4.31-3.37-7.99-7.75-8.43-3-.3-6.05-.06-9.2-.06,0,2.54-.03,5.02.04,7.51,0,.31.47.68.8.88,1.63.95,2.48,2.71,2.05,4.42-.45,1.83-2.05,3.1-3.89,3.11-1.84,0-3.45-1.26-3.91-3.09-.42-1.67.32-3.57,1.94-4.33.88-.41.96-.93.96-1.72-.02-6.33-.01-12.66-.01-18.98,0-1.71.15-1.86,1.85-1.86,2.54,0,5.08.03,7.62-.01,1.13-.02,1.58.45,1.54,1.57-.05,1.62-.05,3.25,0,4.87.03,1.1-.37,1.63-1.52,1.59-1.41-.05-2.84.06-4.24-.06-.43-.04-1.1-.53-1.18-.92-.16-.76.46-1.05,1.19-1.04,1.2,0,2.4,0,3.66,0v-3.9h-6.84v9.89c2.49,0,4.93,0,7.38,0,6.84,0,11.52,4.68,11.53,11.53,0,6.24,0,12.49,0,18.73,0,1.53-.2,1.72-1.74,1.72-6.58,0-13.16,0-19.73,0h-1.51c0,.52,0,.97,0,1.41,0,4.33-.02,8.66.02,12.99.01,1.19-.45,1.65-1.63,1.61-1.62-.06-3.25-.04-4.87,0-1.04.02-1.54-.36-1.53-1.45.03-3.7.01-7.41,0-11.12,0-.73.1-1.41,1-1.41.9,0,1.02.67,1.01,1.4,0,3.45,0,6.91,0,10.51ZM38,25.97c-.02-1.08-.9-1.96-1.99-1.96-1.08,0-1.97.87-1.99,1.96-.02,1.13.92,2.06,2.05,2.02,1.08-.03,1.95-.94,1.93-2.02Z"/>
      <path class="cls-1" d="M11.03,29c-1.83,0-3.66-.03-5.49.01-1.04.02-1.56-.37-1.52-1.45.04-1.08.02-2.16,0-3.24-.01-.87.37-1.32,1.27-1.32,3.82,0,7.65,0,11.47,0,.89,0,1.28.45,1.26,1.32-.01,1.12-.02,2.25,0,3.37.02.96-.47,1.34-1.39,1.33-1.87-.02-3.74,0-5.61,0ZM6.06,26.93h9.87v-1.83H6.06v1.83Z"/>
    </g>
  </g>
</svg>