<?xml version="1.0" encoding="UTF-8"?>
<svg id="Capa_1" data-name="Capa 1" xmlns="http://www.w3.org/2000/svg" version="1.1" viewBox="0 0 1080 1080">
  <defs>
    <style>
      .cls-1 {
        fill: #cb6103;
      }

      .cls-1, .cls-2 {
        stroke-width: 0px;
      }

      .cls-2 {
        fill: #fff;
      }
    </style>
  </defs>
  <rect class="cls-2" x="3.5" y="3.5" width="1073" height="1073" rx="171.7" ry="171.7"/>
  <path class="cls-1" d="M813.9,540c0,151.3-122.2,273.7-273.6,274-152,.3-275.1-123-274.3-274.8.8-151.9,123-273.5,274.4-273.1,151.7.4,273.5,122.3,273.6,273.9h0ZM525.6,554.5h-107.7c-.5,41.9,7.6,81.4,20.1,120.1.9,2.9,6,6.4,9,6.3,26-1,51.9-2.7,78.7-4.3v-122.1h0ZM640,681c14-41.3,22.5-82.9,22.2-126.3h-107.3v122.2c29,1.4,56.6,2.7,85.1,4.1ZM525.6,403.4c-27-1.6-52-3.3-77.1-4.2-3.6-.1-9.6,3.2-10.6,6.2-12.5,38.7-20.6,78.2-20.2,119.9h107.8v-121.8h.1ZM661.9,525.6c.9-42.3-7.8-82.2-20.1-121.4-.7-2.3-4.5-5.3-6.7-5.2-27,1.2-53.9,2.9-80.5,4.4v122.2h107.4-.1ZM409.9,396c-18.6-3.2-36.9-7-55.3-9.1-4.2-.5-11.2,3.9-13.4,8-13,24.3-26.6,48.6-36.6,74.2-6.7,17.3-7.8,36.7-11.7,56.6h95.4c2.4-21.8,3.8-43,7.3-63.9,3.6-21.5,9.2-42.7,14.3-65.7h0ZM693.6,525h90.6c1.5-40.9-22.6-107.6-48.3-134.2-2.5-2.5-7.4-4.6-10.8-4.1-18.4,2.6-36.7,6.1-53.2,8.9,7.2,43.2,14.3,85.6,21.7,129.3h0ZM407.9,684.3c-7.3-43.7-14.4-86.6-21.6-129.9h-89.9c-4.3,36.2,24,114.7,48.8,136.2,2.1,1.8,5.7,3.3,8.3,2.9,18.9-2.9,37.8-6.3,54.4-9.2h0ZM672,684.4c16.4,2.8,34.2,6.6,52.1,8.4,4.7.5,11.7-3.8,14.9-8,21.5-28.6,35.6-60.6,42.2-95.8,2.1-11.2,2.9-22.6,4.4-34.7h-92c-7.2,43.5-14.3,86-21.6,130h0ZM525.8,294.9c-38.6,13.4-57.4,42.3-74.7,77.1,26.8,1.2,50.4,2.2,74.7,3.3v-80.4ZM628.9,372c-17.8-35-36.3-64.5-74.5-76.6v79.9c24.3-1.1,47.6-2.1,74.5-3.3ZM451.2,708c17.3,35,36.1,64,73.9,76.6v-80.1c-24.4,1.2-47.3,2.2-73.9,3.5h0ZM554.9,704.7v79.1c31.6-8.9,67.2-47.5,70.6-75.9-23.4-1-46.7-2.1-70.6-3.1h0ZM371.8,356.5c1,2,2,4,3.1,6,12.6,1.7,25.2,3.9,37.9,4.9,3.7.3,9.3-2.2,11.2-5.1,10.6-17,20.3-34.5,30.3-51.9-.6-1.2-1.3-2.4-1.9-3.7-26.9,16.6-53.7,33.2-80.6,49.8h0ZM706.5,361c-18.2-21.6-57.4-45.5-82.2-50.2,5.6,8.2,11.1,16,16.4,24,7.5,11.1,12.5,27.8,22.8,32.1,10.9,4.6,26.8-2.4,40.5-4.4.5,0,.9-.5,2.5-1.4h0ZM451.8,773.1c.8-1.1,1.7-2.3,2.5-3.4-10.1-17.5-20-35-30.4-52.3-1.6-2.6-5.7-5.5-8.3-5.2-14,1.4-27.8,3.7-41.7,5.7-.7,1.9-1.4,3.8-2,5.7,26.7,16.5,53.3,33,80,49.5h-.1ZM708.1,723.9c-.8-2.1-1.6-4.1-2.4-6.2-13-1.8-26-4-39.1-5.1-3.4-.3-8.6,1.7-10.2,4.3-10.6,17.4-20.5,35.2-30.7,52.9.7,1.1,1.4,2.3,2.1,3.4,26.8-16.4,53.5-32.9,80.3-49.3h0Z"/>
  <path class="cls-1" d="M177.9,668.2c-28.7-86.3-28.9-170.3,0-255.8,8.9,3.1,16.7,5.9,25.8,9.1-26.4,79-26.9,157.2,0,236.8-8.3,3.2-16,6.2-25.7,10h-.1Z"/>
  <path class="cls-1" d="M606.3,189.6c1.7-9.5,3.1-17.2,4.8-26.7,85.4,16.8,156.1,57,214.9,121.2-6.9,6.1-13.1,11.6-20.4,18.1-54-58.7-119.7-96-199.3-112.6Z"/>
  <path class="cls-1" d="M467.9,162.8c1.4,4.8,2.6,8.2,3.3,11.8.8,4.2,1.2,8.4,2.1,14.8-76.6,16.4-142.9,51.9-197.1,111.2-7-6.3-13.1-11.8-20.5-18.3,58.2-63.3,128.5-102.1,212.2-119.4h0Z"/>
  <path class="cls-1" d="M540.5,128.5c41.3-.3,41.4-3.2,41,41.2-.3,41.4,0,41.4-41.2,41.4s-41.5,0-41.9-42.3c-.4-44.4.6-40.4,42-40.3h0ZM527.4,182.1h24.9v-24.9h-24.9v24.9Z"/>
  <path class="cls-1" d="M540.5,951.5c-42.5.2-42.4,3.7-42-41.9.3-40.8,0-40.8,40.2-40.8s42.8,14.3,42.8,42.9-13.6,39.7-40.9,39.7h0ZM552.5,897.9h-24.9v24.9h24.9v-24.9Z"/>
  <path class="cls-1" d="M910.9,440.5c19.4,77.1,16.9,151.5-8.5,226.4-4.6-1.1-8.6-1.9-12.4-3.2-4-1.3-7.8-3.1-13.5-5.3,23.1-69.2,26.5-139.1,8-210.6,9.2-2.6,17.2-4.8,26.4-7.3h0Z"/>
  <path class="cls-1" d="M270.9,813.7c7.2-7.2,12.8-12.7,19.2-19.2,51,49.3,111.9,81.6,183.6,95.9-1.8,9.6-3.4,17.6-5.2,26.8-77.3-15.2-142.5-49.5-197.6-103.5Z"/>
  <path class="cls-1" d="M225,389.1c-43.4.2-42.1,3.5-41.9-41.7.2-40.7,0-40.7,40-40.7s42.5,0,43,42.8c.5,45.1-2.5,39.5-41.1,39.6h0ZM237.6,335.5h-25.5v24.7h25.5v-24.7Z"/>
  <path class="cls-1" d="M225.5,773.3c-45.6.5-42.3.8-42.4-41.6-.1-44.2-1.1-41,41.2-40.9,41.2,0,42.2-4.9,41.8,42.1-.4,40.3,0,40.3-40.6,40.3h0ZM212.3,719v25.8h24.5v-25.8h-24.5Z"/>
  <path class="cls-1" d="M855.9,690.9c42.1-.3,41.1-3.1,40.9,41.1-.3,41.3,0,41.3-41,41.3s-41.5,0-41.9-42.2c-.5-45.9,2.1-40,42.1-40.2h0ZM868.8,719.4h-25.7v25.3h24.8c.3-3.5.8-6.1.8-8.6,0-4.7,0-9.5,0-16.7h.1Z"/>
  <path class="cls-1" d="M792.7,791.3c6.8,7.4,12.1,13.2,17.5,19.1-31.6,42.3-129.9,97.2-185.1,102.2-1.7-7.3-3.5-14.9-5.8-24.5,66.4-16.8,124.6-47.8,173.4-96.8h0Z"/>
  <path class="cls-1" d="M869.7,402.6c-43.6,0-41.6,3.9-41.7-41.6,0-43.5-1.2-40.3,39.8-40.3s42.2-3.3,42.3,42.4c0,41.8,2.5,39.7-40.5,39.5h.1ZM881.9,374.8c2.9-29.3,1.4-30.8-25.4-24.8v24.8h25.4Z"/>
</svg>