<?xml version="1.0" encoding="UTF-8"?>
<svg id="Capa_2" data-name="Capa 2" xmlns="http://www.w3.org/2000/svg" version="1.1" viewBox="0 0 75 75">
  <defs>
    <style>
      .cls-1 {
        fill: #cb6103;
      }

      .cls-1, .cls-2 {
        stroke-width: 0px;
      }

      .cls-2 {
        fill: #fff;
      }
    </style>
  </defs>
  <g id="Capa_1-2" data-name="Capa 1-2">
    <g>
      <rect class="cls-2" width="75" height="75" rx="12" ry="12"/>
      <g>
        <path class="cls-1" d="M60.8,37.6c1.4-.2,2.1.4,2.6,1.5.9,1.8,2.5,2.8,4.6,3,1.5.1,2,.7,2,2.1,0,3.9.2,7.9-.3,11.8-1,7-5.1,11.7-11.8,14-.6.2-1.3.1-1.9-.1-6.5-2.5-10.4-7.1-11.6-14,0-.5-.1-1-.2-1.6H15.1c-2.1,0-2.6-.4-2.6-2.5,0-9.2,0-18.4,0-27.6,0-.7.2-1.5.5-2.1,1.2-2.6,2.6-5.2,3.9-7.8.5-1,1.1-1.4,2.3-1.4,11.6,0,23.3,0,34.9,0,1.1,0,1.8.4,2.3,1.4,1.3,2.7,2.7,5.3,4,8,.3.5.4,1.2.4,1.8,0,4.1,0,8.2,0,12.3v1.3h0ZM44.2,50.7c0-2.3,0-4.5,0-6.7,0-1.3.6-1.9,1.8-2,2.2-.1,3.9-1.2,4.9-3.2.5-1,1.2-1.3,2.2-1.3,1.4,0,2.8,0,4.2,0v-12.5h-15.6v9c0,1.5-.6,2.1-2.1,2.1-2,0-4,0-6,0-1.5,0-2.1-.6-2.1-2.1v-9h-15.6v25.7h28.2ZM66.9,45.3c-2.7-.6-4.6-1.9-6-4-.2-.2-.6-.4-.9-.4-1.8,0-3.7,0-5.5,0-.3,0-.8.2-.9.4-1.4,2.1-3.3,3.4-5.8,4,0,2.8-.1,5.6,0,8.4.3,5.9,3.2,10.1,8.6,12.6.5.2,1.3.2,1.8,0,4.3-1.8,7.3-4.9,8.1-9.5.7-3.8.5-7.6.7-11.5h0ZM17,21.5h14.6v-5.5c-3.8,0-7.6,0-11.3,0-.2,0-.6.2-.7.4-.9,1.6-1.7,3.3-2.5,5.1ZM56.4,21.5c-.8-1.6-1.6-3.2-2.4-4.8-.3-.6-.6-.8-1.3-.8-3.4,0-6.7,0-10.1,0-.3,0-.6,0-.8,0v5.5h14.6,0ZM35.1,32.8h3.2v-7.7h-3.2v7.7ZM35,21.5h3.3v-5.4h-3.3v5.4Z"/>
        <path class="cls-1" d="M24.3,41.8c-1,0-2.1,0-3.1,0-1.1,0-1.9-.7-1.9-1.7s.7-1.7,1.9-1.7c2.1,0,4.3,0,6.4,0,1.1,0,1.9.7,1.9,1.7s-.7,1.7-1.9,1.7c-1.1,0-2.2,0-3.2,0h0Z"/>
        <path class="cls-1" d="M24.3,48.5c-1,0-2.1,0-3.1,0-1.1,0-1.8-.8-1.8-1.7,0-.9.7-1.6,1.8-1.6,2.2,0,4.3,0,6.5,0,1.1,0,1.8.8,1.8,1.7,0,1-.8,1.6-1.9,1.7-1.1,0-2.2,0-3.2,0h0Z"/>
        <path class="cls-1" d="M55.5,54.7c1.8-1.8,3.3-3.4,4.9-5,.9-.9,1.9-1,2.7-.3.8.7.7,1.8-.3,2.7-1.9,1.9-3.8,3.8-5.7,5.7-1.1,1.1-1.9,1.1-3,0-.8-.8-1.7-1.7-2.5-2.5-.9-.9-1-1.9-.3-2.7.8-.8,1.7-.7,2.7.3.5.5,1,1.1,1.6,1.8h0Z"/>
      </g>
    </g>
  </g>
</svg>