<?xml version="1.0" encoding="UTF-8"?>
<svg id="Capa_1" data-name="Capa 1" xmlns="http://www.w3.org/2000/svg" version="1.1" viewBox="0 0 1080 1080">
  <defs>
    <style>
      .cls-1 {
        fill: #fff;
        stroke-width: 0px;
      }
    </style>
  </defs>
  <path class="cls-1" d="M726.3,653.6c22.1-14.3,26.5-31.8,26.4-53.7-.8-159.2-.4-318.4-.4-477.6,0-8,0-16,0-25H246.7c0,37.5,0,74.9,0,112.2,0,35.2-2,37.2-37.2,37.2-36.9,0-73.8,0-112,0v737c7.1,0,13.8,0,20.5,0,72.1,0,144.1,0,216.2,0,13.8,0,26.4,2.2,26.2,19.2-.2,17-13,18.7-26.7,18.7-82.7-.2-165.4,0-248.1-.1-21.2,0-27-5.7-27-26.5,0-253.2-.1-506.5.4-759.7,0-8.4,4-18.8,9.8-24.7,46.4-47.6,93.3-94.6,140.9-140.9,6.3-6.2,17.4-10.5,26.3-10.5,175.5-.6,350.9-.5,526.4-.4,22.9,0,27.6,5.1,27.6,29.8,0,153.6,0,307.1,0,460.7,0,7.4,0,14.8,0,22.2,1.9.9,3.8,1.7,5.7,2.6,15-25.2,31-49.9,44.7-75.8,21.6-40.8,63.9-63.3,105.5-54.1,39.4,8.8,69.5,40.9,74.6,80,5.3,39.9-16.7,79.7-54.8,98.4-54.5,26.7-102.1,63.1-147.7,102.6-2.8,2.5-6.4,4.1-13.4,8.5,16.6,15.1,30.9,26.5,43.3,39.6,38.2,40.2,37.6,94.8-.9,134.8-5.6,5.9-11.7,11.3-17.2,17.4-10.7,11.8-21.9,19.8-39.9,3.7,0,24.8.3,45.3,0,65.8-.3,21.4-5.6,26.6-27,26.6-80.8.1-161.7,0-242.5.1-13.6,0-26.5-1.6-26.7-18.7-.2-17,12.4-19.2,26.2-19.2,69.6.2,139.1,0,208.7,0h23.2c0-30.9.6-60.6-.6-90.3-.2-5.5-7.1-11.3-11.8-16-66.8-67.1-133.7-133.9-200.6-200.9-20.2-20.3-20.2-25.2.5-45.9,5.7-5.8,11.4-11.6,17.4-17.2,39.3-36.5,92.9-36.6,132,.3,13.2,12.4,24.9,26.4,37.5,39.9ZM809.2,891.1c37.9-32.1,39.4-64.3,4.8-99-48.6-48.8-97.3-97.5-146.1-146.1-32.7-32.6-68.7-29.2-96,7.8,78.9,78.9,157.6,157.7,237.3,237.3ZM782.1,706.2c53.7-47.2,108.6-89,171.2-120.3,22.3-11.2,33.8-37.2,29.4-59.9-4.4-22.7-24.3-42.1-46.8-45.7-23.2-3.7-45.9,9.2-59.6,30.7-26.3,41.6-53.3,82.8-81.2,123.4-11.2,16.3-25.3,30.5-38.8,46.5,8.8,8.6,16.8,16.4,25.7,25.2ZM207.9,208.1v-74.5c-24.3,24-50.7,50.2-75.3,74.5h75.3Z"/>
  <path class="cls-1" d="M425.4,295.5c86.4,0,172.7,0,259.1,0,26,0,30.2,4.4,30.4,30.8.1,19.4,0,38.8,0,58.2,0,16-7.4,24-24.1,24-177.7-.2-355.5-.1-533.2,0-16.5,0-24-8-23.8-24.3.2-20.7,0-41.3,0-62,.2-21,5.8-26.7,26.8-26.7,88.2-.1,176.5,0,264.7,0ZM333.5,369.2h342.3v-34.6h-342.3v34.6ZM172.2,369.3h122.3v-35h-122.3v35Z"/>
  <path class="cls-1" d="M409.5,859.7c-29.3,0-58-.2-86.7,0-13.8.1-26.6-2.3-26.6-18.9,0-16.5,12.6-19.2,26.5-19,23.8.3,47.6-.7,71.3.4,12.2.6,16.9-3.8,21.1-14.9,16.2-42.9,60.4-67.6,103.4-59.3,46.3,8.9,78.6,48.1,77.9,94.5-.7,45.2-34.1,83.5-79.5,91.3-47,8-88.9-20.2-107.3-74.2ZM450.1,859.7c13.9,29.6,38.8,42.6,65,35.9,27-6.8,45-31.1,43.3-58.3-1.6-26.2-22.2-48.5-48.4-52.3-25.7-3.8-49.5,10.7-58.6,37,16,0,31.5,0,46.9,0,13.2,0,22.6,5.5,22.2,19.5-.3,12.9-9.4,18.2-21.7,18.2-15.6,0-31.1,0-48.8,0Z"/>
  <path class="cls-1" d="M423.7,483.6c-86.3,0-172.7,0-259,0-5.6,0-12.7,1.5-16.5-1.3-5.9-4.3-13.1-11.6-13.1-17.6,0-6,7.5-13,13.3-17.6,3.2-2.5,9.7-1.2,14.6-1.2,174,0,347.9,0,521.9,0,5,0,11.4-1.5,14.7,1,5.9,4.4,14.1,11.5,13.7,16.9-.5,6.7-7.8,14.1-13.9,18.7-3.7,2.8-10.9,1-16.5,1-86.3,0-172.7,0-259,0Z"/>
  <path class="cls-1" d="M425.3,521.1c85.7,0,171.4,0,257.2,0,5,0,11.5-1.8,14.7.6,6.6,5.1,15.1,12.1,15.8,19,.6,5.4-8.8,12.8-15.2,17.4-3.4,2.4-9.7.7-14.7.7-172.7,0-345.4,0-518.1,0-4.4,0-10,1.6-12.9-.5-6.8-5.1-16.7-11.8-16.9-18.1-.1-6.2,9.5-13.5,16.3-18.5,3.3-2.4,9.7-.6,14.7-.6,86.3,0,172.7,0,259,0Z"/>
  <path class="cls-1" d="M310.7,596.3c48.8,0,97.6.1,146.3,0,14,0,26.3,3,26,19.5-.3,15.2-11.9,18.4-25.3,18.4-99.4-.2-198.9-.1-298.3,0-13.4,0-24.9-3.4-25-18.6-.1-16.5,12.3-19.4,26.2-19.3,50,.2,100.1,0,150.1,0Z"/>
  <path class="cls-1" d="M271.1,709.3c-36.9,0-73.8-.2-110.6,0-14,0-26.3-3-26.1-19.4.2-15.2,11.8-18.5,25.1-18.5,74.4.2,148.8.2,223.1,0,13.4,0,24.9,3.3,25.1,18.5.2,16.5-12.1,19.5-26.1,19.4-36.9-.3-73.8,0-110.6,0Z"/>
  <path class="cls-1" d="M450.2,209c-5.6,0-11.3.3-16.9,0-11.8-.8-18.9-7.1-18.6-19.1.2-12.1,7.8-18,19.5-18.3,11.3-.3,22.5-.2,33.8,0,12.5.2,20.7,6.1,20.5,19.2-.2,13.1-8.9,18.4-21.3,18.4-5.6,0-11.3,0-16.9,0,0,0,0,0,0,0Z"/>
  <path class="cls-1" d="M565.2,171.8c6.9,0,15.1-2.4,20.3.6,6.6,3.7,14.7,11.7,14.7,17.8,0,6.2-8.4,16.5-14.5,17.7-13.9,2.7-29,2.7-42.8,0-6.1-1.2-14.5-11.4-14.6-17.6,0-6.1,8-14.5,14.6-17.8,6-3,14.7-.6,22.2-.7Z"/>
  <path class="cls-1" d="M678,208.6c-7.5,0-16.2,2.4-22.2-.6-6.6-3.4-14.6-11.7-14.6-17.9,0-6.1,8.4-16.3,14.6-17.6,13.2-2.8,27.8-3,40.9-.2,6.8,1.4,16.2,11.7,16.2,17.9,0,6.2-9.5,13.9-16.5,18.1-4.6,2.8-12.2.5-18.5.5,0,0,0-.2,0-.3Z"/>
  <path class="cls-1" d="M443.4,685.2c7.5-4.5,16-13.5,22.4-12.2,6.8,1.4,15.5,12,16.2,19.3.5,5-11.4,15.5-17.7,15.6-7.1,0-14.2-9.1-21.3-14.2.1-2.8.3-5.7.4-8.5Z"/>
  <path class="cls-1" d="M430.9,980.9c5,7.2,14.4,15,13.6,21.5-.9,6.9-10.9,16.3-18.1,17.5-5,.8-16.4-10.2-16.8-16.5-.5-7.1,8.1-14.9,12.7-22.3,2.8,0,5.7,0,8.5-.1Z"/>
</svg>