<?xml version="1.0" encoding="UTF-8"?>
<svg id="Capa_1" data-name="Capa 1" xmlns="http://www.w3.org/2000/svg" version="1.1" viewBox="0 0 1080 1080">
  <defs>
    <style>
      .cls-1 {
        fill: #fdfdfd;
        stroke-width: 0px;
      }
    </style>
  </defs>
  <path class="cls-1" d="M544.5,93.3c13.6-9.4,26.3-23.2,41.1-30.5,72.1-35.8,139-33.7,200.8,6.4,69.3,45.1,97.7,127.7,79.8,208.5-32.8,146.8-186.2,253.9-319.8,313.1-4.5,2.1-9,2.1-13.6,0-108.4-48.8-216.5-120.2-280.2-219.3-43.4-67.9-61.9-158.7-24.1-229.7C291.3,24.6,435.5,5.5,533.5,92.7c3.5,3,7.2,3.3,11,.7M543.6,145.3c-6.7,1-13.6-2-17.9-7.6-47.8-63.5-131.4-84.7-200.2-46.1-121.3,67.9-91,214.7-12.5,301.3,59.1,65.2,132.1,117.8,219.1,157.6,4.7,2.1,9.5,2.2,14.1.1,104.5-45.9,225.3-131.4,271.6-240,32.9-77.3,19.3-163.2-52.8-211.5-69.7-46.8-157.6-30.2-209.4,37.6-4,5.2-8.1,8.2-12.1,8.7h0Z"/>
  <path class="cls-1" d="M119.2,553.9c3.8,25.6,7.5,55.1,11.2,88.5,1.6,15.5,6.6,29.5,14.8,42.2,20,30.9,40.6,62.8,61.7,95.6,5.1,7.9,4.2,15.2-2.6,21.8-1.2,1.2-2.6,2.1-4.2,2.6-10.4,3.6-18.6.8-24.6-8.6l-64.2-101.4c-7.4-11.5-12-24.6-13.5-38.3-3.8-32.8-8.1-63.9-12.8-93.3-3.5-21.4.3-39.3,11.3-53.3,2.5-3.3,3.9-7,4-11.1l2.8-100.5c.5-16-5.8-28.5-18.9-37.7-2.5-1.7-5.8-4-9.8-6.7-13.4-9.3-20.2-5.9-20.7,10.3-2.4,89.8-7.5,179-15.2,267.6-6.7,76.5,20.7,131.8,75.9,187.5,31.7,32,62.1,64,91.4,95.9,23.4,25.5,30.3,71.5,31.8,114,.2,4.4-2.2,8.4-6,10.3-4,2.1-7.8,2.7-11.4,1.7-10.6-2.6-16.4-9.4-17.5-20.1-4.5-44.2-11.2-70.9-20.2-79.9-44.4-45-85.9-89.6-124.4-133.9C9,751-.9,681,5.9,605.2c7.4-83,12-167.8,13.7-254.6.5-29.1,26.3-42,52.5-34.8,47.2,13,68.1,47.7,65.3,95.8-1.6,28.1-2.3,57.5-2.1,88.2.1,4.2,2.2,7.1,6.3,8.3,51.8,15.2,66.4,59.6,71.6,108.8.9,8.6,5.7,16.3,13,20.9,78,50.1,166,114.6,164.9,217.8-.1,13.6-.7,27.5-1.5,41.7-2.7,42.3,8.9,87.3,11,130,.2,5.9-3.6,11.1-9.1,12.6l-5.7,1.6c-9.1,2.5-14.7-.9-16.8-10.1-12.5-56.9-17.1-109.2-13.5-156.5,7.6-100.7-74.6-163.2-155.3-211-22.3-13.3-25.1-63.5-30.9-86.9-3.2-12.4-11.4-23-22.7-28.8l-11.1-5.8c-13-6.7-18.4-2.9-16.2,11.5h0Z"/>
  <path class="cls-1" d="M960.2,553.5c2.3-14.4-3-18.2-16-11.4l-9.7,5.1c-12.5,6.5-20.6,16.7-24.2,30.4-6.5,24.3-8.2,72.7-31.9,86.5-77.6,45.5-162.9,109.2-154.6,211.7,3.8,45.6-.8,97.2-13.6,155-1.7,7.6-6.5,11.2-14.3,10.7-6.4-.4-11.8-4.6-16.2-12.5-2-3.5-2.6-7.6-2-11.5,10.2-54.7,13.9-104.6,11-149.7-6.9-104.7,80-181.7,165.4-229,3.8-2.1,6.3-5.2,7.5-9.3,16.9-54.9,11.4-101.5,77-121.8,3.3-1,5-3.2,5.1-6.5,2.5-68.6-26.7-157.2,61.6-184.6,27.2-8.4,53.3,4.5,54.3,34.6,2.9,104.3,7.9,196.5,15,276.6,6.6,74.6-14,138-61.9,190.4-37.6,41.1-74.9,80.5-111.8,118.3-8.1,8.3-13.5,18.8-15.6,30.3l-11.4,65.4c-1.5,8.7-6.5,12-15.1,9.7l-5.7-1.5c-7.4-2-12.3-8.9-11.6-16.5,3.8-45.7,8.5-86.2,43.2-121.5,33.5-34.1,66.8-69,99.9-104.8,42.4-45.9,61-100.9,55.6-165-7.5-89.8-12.4-179.4-14.7-268.6-.3-15.7-7.2-19.4-20.5-11l-8.5,5.3c-14,8.8-20.8,21.6-20.5,38.2l2.5,104.4c0,2.6,1,5.2,2.8,7.2,11.9,13.3,16.4,29.1,13.7,47.2-4.8,32.2-9.3,65.2-13.3,99-2,15.7-7.4,30.7-15.9,44l-63.9,100c-6.5,10.3-14.8,12-24.8,4.9l-3.2-2.3c-5.4-3.9-7.1-11.3-3.6-17.1,18.1-29.9,37.4-60,58-90.1,11.4-17,18.3-34.9,20.4-54,3.2-29.3,6.9-58,11.1-86.1h0Z"/>
</svg>