<?xml version="1.0" encoding="UTF-8"?>
<svg id="Capa_1" data-name="Capa 1" xmlns="http://www.w3.org/2000/svg" version="1.1" viewBox="0 0 550 550">
  <defs>
    <style>
      .cls-1 {
        fill: #fff;
        stroke-width: 0px;
      }
    </style>
  </defs>
  <path class="cls-1" d="M544.2,126.2v19.6s0,0,0,0c0,7.9-3.8,15-9.7,19.5-32.2,24.8-42.8,33.5-182.4,133-17.7,12.6-52.8,43.2-77.2,42.8-24.4.4-59.5-30.2-77.2-42.8C58.2,198.9,47.6,190.1,15.4,165.4c-5.9-4.6-9.7-11.6-9.7-19.5v-19.6c0-27.4,22.6-49.6,50.5-49.6h437.5c27.9,0,50.5,22.2,50.5,49.6ZM362.3,332.3c3.8-2.9,156.2-112.6,181.9-132.4v223.8c0,27.4-22.6,49.6-50.5,49.6H56.2c-27.9,0-50.5-22.2-50.5-49.6v-223.8c26.1,20,178.2,129.5,181.9,132.4,23.3,17.7,55.1,41.9,86.8,41.9h1c31.7,0,63.5-24.2,86.8-41.9Z"/>
</svg>