<?xml version="1.0" encoding="UTF-8"?>
<svg id="Capa_2" data-name="Capa 2" xmlns="http://www.w3.org/2000/svg" viewBox="0 0 32.53 32.53">
  <defs>
    <style>
      .cls-1 {
        fill: #fff;
        fill-rule: evenodd;
        stroke-width: 0px;
      }
    </style>
  </defs>
  <g id="Capa_1-2" data-name="Capa 1">
    <path class="cls-1" d="M16.27,0C7.28,0,0,7.28,0,16.27s7.28,16.27,16.27,16.27,16.27-7.28,16.27-16.27S25.25,0,16.27,0ZM20.38,10.22h-.24c-.59,0-1.18-.01-1.78,0-.81.03-1.41.34-1.44,1.35-.02.74-.03,2.44-.03,2.44,0,0,1.9,0,2.73,0,.21,0,.42,0,.66,0-.15,1.18-.3,2.31-.45,3.45h-2.92v8.63h-3.58v-8.64h-2.93v-3.44h2.95v-.26c0-.69-.01-1.38,0-2.07.01-.44.03-.89.11-1.32.18-1.05.67-1.94,1.55-2.57.77-.55,1.64-.78,2.57-.79.61-.01,1.22.02,1.82.04.33.02.66.06.98.09v3.08Z"/>
  </g>
</svg>