<?xml version="1.0" encoding="UTF-8"?>
<svg id="Capa_2" data-name="Capa 2" xmlns="http://www.w3.org/2000/svg" viewBox="0 0 79.09 79.09">
  <defs>
    <style>
      .cls-1 {
        fill: #002075;
      }

      .cls-1, .cls-2 {
        stroke-width: 0px;
      }

      .cls-2 {
        fill: #fff;
      }
    </style>
  </defs>
  <g id="Capa_1-2" data-name="Capa 1">
    <g>
      <path class="cls-1" d="M38.57,60.85v-14.23c-1.96.57-3.81,1.11-5.66,1.64-.06,1.47-.14,2.95-.18,4.42-.03,1.03,0,2.05,0,3.08v5.08h5.85Z"/>
      <path class="cls-1" d="M30.7,42.51c-.53-.53-1.44-1.02-1.49-1.59-.06-.68.47-1.89,1-2.06,3.31-1.06,6.67-1.97,10.06-2.73.52-.11,1.58.73,1.85,1.37.45,1.06-.29,1.87-1.36,2.17-3.05.86-6.12,1.66-9.18,2.49-.2.05-.4.06-.61.09l-.27.26Z"/>
      <g>
        <path class="cls-1" d="M39.61,79.09C17.76,79.11,0,61.41,0,39.57,0,17.72,17.71,0,39.56,0c21.84,0,39.55,17.73,39.53,39.59-.02,21.77-17.71,39.48-39.48,39.5Z"/>
        <g>
          <path class="cls-2" d="M60.41,46.87c1.45.18,1.76.53,1.77,1.82,0,1.18,0,2.36,0,3.53-.01,3.2-2.22,5.46-5.42,5.49-3.3.03-6.6,0-9.9,0-8.01,0-16.02,0-24.03,0-3.8,0-5.9-2.11-5.91-5.9,0-.97,0-1.94,0-2.92,0-1.52.23-1.8,1.77-2.07v-1.02c0-7.1,0-14.19,0-21.29,0-2.13,1.01-3.16,3.13-3.16,11.81,0,23.62,0,35.43,0,2.17,0,3.16,1.01,3.17,3.21,0,7.07,0,14.14,0,21.2,0,.35,0,.7,0,1.09ZM21.39,24.07v22.85h1c3.3,0,6.6.11,9.89-.04,1.8-.08,3.06.35,3.87,2.01.14.29.68.53,1.04.55,1.2.07,2.42-.07,3.62.05,1.31.14,2.19-.25,2.74-1.46.4-.89,1.12-1.14,2.09-1.13,3.71.04,7.42.02,11.13.02h.91v-22.85H21.39ZM59.5,49.58c-4.07,0-8.01.07-11.95-.04-1.36-.04-2.3.29-2.87,1.54-.38.82-1.06,1.07-1.95,1.05-1.76-.05-3.54-.13-5.29.02-1.71.14-2.91-.35-3.62-1.93-.23-.52-.64-.66-1.21-.65-4.06.03-8.12.01-12.19.02-.26,0-.51.03-.85.05,0,.72,0,1.39,0,2.06,0,2.47.88,3.37,3.33,3.37,11.1,0,22.19,0,33.29,0,.44,0,.89-.01,1.31-.1,1.09-.23,1.91-1.11,1.99-2.2.07-1.02.01-2.05.01-3.17Z"/>
          <path class="cls-2" d="M38.89,35.51c-.04.64,0,1.3-.13,1.93-.38,1.83-2.04,3.13-3.88,3.12-1.85,0-3.55-1.29-3.83-3.15-.19-1.26-.2-2.59,0-3.85.3-1.99,2.25-3.36,4.16-3.15,2.08.22,3.58,1.81,3.65,3.86.01.41,0,.82,0,1.24.01,0,.03,0,.04,0ZM36.2,35.52c0-.38.02-.77,0-1.15-.05-.77-.58-1.33-1.28-1.31-.74.02-1.25.44-1.32,1.17-.08.82-.08,1.65,0,2.47.07.73.57,1.15,1.32,1.18.7.03,1.23-.54,1.28-1.3.02-.35,0-.71,0-1.06Z"/>
          <path class="cls-2" d="M41.19,35.44c.06-.7.04-1.42.2-2.1.43-1.79,2.22-3.06,4.01-2.94,1.92.12,3.51,1.5,3.71,3.39.12,1.1.12,2.24,0,3.34-.22,2.03-2.06,3.52-4.04,3.42-2.05-.1-3.66-1.66-3.81-3.7-.03-.47,0-.94,0-1.41-.02,0-.05,0-.07,0ZM46.57,35.43s-.03,0-.04,0c0-.38.04-.77,0-1.14-.09-.75-.7-1.3-1.37-1.22-.72.09-1.2.5-1.23,1.26-.03.79-.04,1.59.01,2.38.04.72.54,1.13,1.22,1.17.69.04,1.2-.33,1.33-1.04.09-.46.06-.93.09-1.4Z"/>
          <path class="cls-2" d="M52.37,33.15c-1.42-.26-1.95-.74-1.85-1.56.1-.84.71-1.2,2.03-1.2.35,0,.71-.02,1.06,0,.87.06,1.4.52,1.41,1.38.03,2.47.03,4.93,0,7.4-.01.82-.61,1.38-1.32,1.38-.75,0-1.3-.58-1.32-1.46-.02-1.67,0-3.35,0-5.02,0-.31,0-.63,0-.92Z"/>
          <path class="cls-2" d="M25.92,33.1c-.27-.03-.44-.04-.61-.06-.78-.12-1.27-.64-1.25-1.34.02-.69.55-1.21,1.31-1.3.03,0,.06,0,.09,0,2.4,0,3.25-.34,3.12,2.87-.08,1.88,0,3.76-.02,5.64,0,1.02-.52,1.64-1.32,1.65-.81,0-1.33-.62-1.33-1.63,0-1.91,0-3.82,0-5.83Z"/>
        </g>
      </g>
    </g>
  </g>
</svg>