<?xml version="1.0" encoding="UTF-8"?>
<svg id="Capa_2" data-name="Capa 2" xmlns="http://www.w3.org/2000/svg" viewBox="0 0 76.04 41.54">
  <defs>
    <style>
      .cls-1 {
        fill: #fff;
        stroke-width: 0px;
      }
    </style>
  </defs>
  <g id="Capa_1-2" data-name="Capa 1">
    <g id="uyoNJd">
      <g>
        <path class="cls-1" d="M66.85,2c-2.29,1.04-4.57,2.09-6.88,3.1-.54.24-.75.53-.73,1.1.02.56-.07,1.13-.12,1.82.3-.13.54-.21.76-.32,3.59-1.65,7.18-3.31,10.79-4.93.4-.18.97-.22,1.39-.09.77.23,1.55.55,2.21,1,1.97,1.33,2.31,3.88.92,6.05-1.36,2.11-3.29,3.61-5.35,4.95-5.15,3.35-10.8,5.67-16.53,7.8-13.42,4.98-27.19,8.7-41.2,11.59-2.07.43-4.17.94-6.32.5-.81-.17-1.65-.39-2.38-.77-1.4-.73-1.73-2.15-.81-3.42.59-.81,1.33-1.51,2.05-2.3-1.34-2.38-2.7-4.79-4.06-7.2-.13-.24-.27-.47-.39-.72-.5-1.1-.12-2.23.97-2.76,1.8-.88,3.59-.95,5.4.02,2.37,1.28,4.77,2.51,7.14,3.79.47.25.81.27,1.28,0,3.02-1.69,6.06-3.34,9.09-5,.21-.12.43-.24.7-.4-.24-.17-.43-.31-.62-.44-4.83-3.14-9.67-6.27-14.5-9.41-.23-.15-.46-.29-.67-.46-1.11-.9-1.11-2.39.03-3.24C11.74.26,14.68-.53,18.04.37c8.35,2.25,16.72,4.42,25.09,6.6.44.11.99.09,1.42-.07,4.33-1.62,8.66-3.22,13.16-4.3,2.81-.67,5.65-1,8.53-.8.19.01.38.04.57.06.01.05.03.1.04.15Z"/>
        <path class="cls-1" d="M61.17,34.99c-.09,2.37-.98,4.14-2.84,5.34-.6.39-1.26.68-1.92.96-1.02.44-1.82.29-2.55-.53-3.2-3.6-6.38-7.22-9.56-10.85-.66-.76-.47-1.52.48-1.86,4.51-1.6,9.03-3.19,13.55-4.77.87-.3,1.44.01,1.55.91.46,3.65.87,7.31,1.28,10.79Z"/>
      </g>
    </g>
  </g>
</svg>