<?xml version="1.0" encoding="UTF-8"?>
<svg id="Capa_2" data-name="Capa 2" xmlns="http://www.w3.org/2000/svg" viewBox="0 0 79.09 79.09">
  <defs>
    <style>
      .cls-1 {
        fill: #002075;
      }

      .cls-1, .cls-2 {
        stroke-width: 0px;
      }

      .cls-2 {
        fill: #fff;
      }
    </style>
  </defs>
  <g id="Capa_1-2" data-name="Capa 1">
    <g>
      <path class="cls-1" d="M43.4,37.77c-2.55-.02-5.11-.01-7.66,0-1.16,0-1.92.73-1.92,1.77,0,1.04.77,1.76,1.92,1.78,1.26.01,2.53,0,3.79,0,1.29,0,2.58.01,3.87,0,1.1-.01,1.86-.73,1.88-1.73.02-1.05-.74-1.81-1.88-1.81Z"/>
      <path class="cls-1" d="M47.26,37.76c-5.14,0-10.27,0-15.41,0-1.29,0-2.09.7-2.08,1.8,0,1.11.77,1.76,2.1,1.76,2.55,0,5.11,0,7.66,0,2.58,0,5.16,0,7.75,0,1.26,0,2.02-.67,2.04-1.74.02-1.1-.78-1.82-2.06-1.82Z"/>
      <path class="cls-1" d="M47.82,34.04c-.31.17-.59.43-.83.7-1.49,1.64-2.96,3.29-4.48,4.97-1.79-1.14-3.54-2.26-5.29-3.36-1.09-.68-1.82-.6-2.69.31-1.71,1.78-3.42,3.56-5.12,5.35-.87.92-.92,2.01-.14,2.75.78.73,1.85.62,2.74-.31,1.25-1.29,2.51-2.57,3.72-3.9.43-.48.74-.48,1.25-.13,1.49,1,3.02,1.95,4.53,2.91,1.23.78,1.94.67,2.93-.43,1.05-1.17,2.1-2.34,3.15-3.51.79-.88,1.6-1.74,2.35-2.64.56-.68.52-1.61,0-2.25-.51-.62-1.42-.84-2.13-.46Z"/>
      <path class="cls-1" d="M39.48,0C17.72,0-.02,17.76,0,39.56c.02,21.81,17.75,39.55,39.51,39.53,21.86-.02,39.59-17.7,39.58-39.46C79.08,17.72,61.38,0,39.48,0Z"/>
      <path class="cls-2" d="M39.55,20.39c5.43,0,10.85,0,16.28,0,2.17,0,2.91.75,2.91,2.93,0,9.34,0,18.67,0,28.01,0,2.12-.81,2.91-2.96,2.91-3.35,0-6.69.02-10.04-.01-.76,0-1.33.17-1.86.74-.98,1.06-2.03,2.05-3.07,3.06-.92.89-1.61.88-2.55,0-.08-.07-.15-.15-.23-.22-1.22-1.17-2.25-2.79-3.7-3.38-1.46-.59-3.33-.16-5.02-.17-2.08,0-4.16,0-6.24,0-1.86-.01-2.73-.86-2.73-2.71,0-9.48,0-18.96,0-28.44,0-1.89.82-2.7,2.71-2.71,5.5,0,10.99,0,16.49,0ZM39.6,35.99c-1.78,0-3.5,0-5.22,0-1.23,0-1.42.2-1.43,1.4,0,1.41,0,2.82,0,4.23,0,1.19.23,1.41,1.42,1.42,2.25.01,4.51-.01,6.76,0,.94,0,1.34-.4,1.34-1.34,0-.95-.44-1.33-1.36-1.32-1.78.02-3.56,0-5.33,0v-1.81c1.85,0,3.64,0,5.43,0,.87,0,1.3-.39,1.27-1.28-.04-1.44-.06-2.89-.06-4.33,0-.93-.42-1.32-1.36-1.31-2.22.03-4.44,0-6.66.01-1.14,0-1.4.29-1.42,1.33-.02,1,.52,1.25,1.41,1.23,1.71-.03,3.43,0,5.2,0v1.76ZM51.36,40.38c-1.91,0-3.71,0-5.5,0-.85,0-1.2.44-1.2,1.25,0,.77.21,1.32,1.12,1.32,2.47,0,4.93,0,7.4,0,.63,0,1.01-.31,1.01-.96,0-3.1,0-6.2,0-9.3,0-.63-.31-1.01-.96-1.01-2.54,0-5.08-.03-7.61.04-.32,0-.8.47-.9.82-.33,1.14.17,1.72,1.38,1.72,1.75,0,3.5,0,5.26,0v1.7c-1.49,0-2.93,0-4.36,0-.84,0-1.21.41-1.22,1.23-.01,1.04.26,1.34,1.39,1.35,1.39.01,2.79,0,4.2,0v1.85ZM26.49,34.35c.03.06.08.13.08.19.01,2.36.05,4.71.02,7.07-.01,1.02.41,1.36,1.39,1.36.95,0,1.45-.29,1.43-1.33-.04-2.29-.02-4.57-.02-6.86,0-3.51.29-3.08-3.22-3.11-.11,0-.25-.04-.31.01-.32.3-.83.57-.9.93-.25,1.18.03,1.43,1.55,1.74Z"/>
    </g>
  </g>
</svg>