<?xml version="1.0" encoding="UTF-8"?>
<svg id="Capa_2" data-name="Capa 2" xmlns="http://www.w3.org/2000/svg" viewBox="0 0 56.5 44.18">
  <defs>
    <style>
      .cls-1 {
        fill: #fff;
        stroke-width: 0px;
      }
    </style>
  </defs>
  <g id="Capa_1-2" data-name="Capa 1">
    <g id="uyoNJd">
      <g>
        <path class="cls-1" d="M16.01,8.57c0,1.24.02,2.3,0,3.37-.03,1.06.47,1.57,1.51,1.57,7.17,0,14.34,0,21.51,0,.97,0,1.49-.48,1.47-1.49-.02-1.1,0-2.2,0-3.36.43-.04.73-.08,1.02-.08,3.6,0,7.21-.02,10.81,0,2.66.01,4.16,1.48,4.16,4.13.01,9.12.01,18.25,0,27.37,0,2.65-1.5,4.11-4.16,4.11-16.06,0-32.13,0-48.19,0-2.65,0-4.12-1.47-4.13-4.14-.01-9.09-.01-18.17,0-27.26,0-2.73,1.48-4.19,4.2-4.2,3.87-.01,7.73,0,11.8,0ZM25.76,28.25c0-6.15-4.85-11.02-10.99-11.04-6.1-.02-11.06,4.91-11.07,10.99-.01,6.1,5.04,11.13,11.14,11.08,6.04-.05,10.93-4.99,10.92-11.02ZM40.44,29.45c-3.49,0-6.98,0-10.47,0-.91,0-1.7.2-1.69,1.25,0,1.06.84,1.23,1.72,1.22,7.02,0,14.03,0,21.05,0,.9,0,1.7-.22,1.69-1.26-.02-1.05-.83-1.21-1.72-1.21-3.53.02-7.05,0-10.58,0ZM40.48,36.81c3.53,0,7.05-.01,10.58,0,.91,0,1.7-.21,1.69-1.25-.01-1.04-.84-1.23-1.73-1.23-7.02,0-14.03,0-21.05,0-.89,0-1.71.2-1.69,1.26.02,1.05.83,1.22,1.72,1.21,3.49-.02,6.98,0,10.47,0ZM40.55,24.57c-3.6,0-7.2,0-10.8,0-.84,0-1.47.3-1.47,1.22,0,.84.59,1.18,1.39,1.18,7.24,0,14.48.02,21.72-.04.45,0,1.11-.53,1.3-.97.32-.75-.38-1.38-1.45-1.38-3.56-.01-7.13,0-10.69,0ZM35.63,22.08c1.87,0,3.75-.01,5.62,0,.91.01,1.68-.21,1.68-1.25,0-.98-.76-1.22-1.61-1.22-3.82,0-7.65,0-11.47,0-.86,0-1.59.28-1.56,1.26.02.97.74,1.22,1.61,1.21,1.91-.02,3.82,0,5.74,0Z"/>
        <path class="cls-1" d="M24.44,4.96C24.91,1.32,26.07-.08,28.39,0c2.23.08,3.37,1.57,3.61,4.83h5.99v6.12h-19.52v-6h5.96Z"/>
        <path class="cls-1" d="M18.49,30.17c1.66-2.32,1.58-4.99-.44-6.82-1.83-1.66-4.64-1.7-6.51-.08-2.12,1.83-2.23,4.42-.52,6.92-1.06,1.07-2.07,2.1-3.08,3.14-2.56-2.55-2.42-7.8.52-10.94,3.18-3.4,8.41-3.69,11.91-.65,3.47,3,3.94,8.2,1.16,11.68-.97-1.03-1.95-2.07-3.05-3.24Z"/>
        <path class="cls-1" d="M19.46,35.34c-2.88,1.98-6.91,1.95-9.37-.03,2.63-4.47,6.54-4.48,9.37.03Z"/>
        <path class="cls-1" d="M12.32,27.04c-.02-1.37.97-2.43,2.33-2.48,1.4-.05,2.53,1,2.56,2.38.03,1.36-1.1,2.5-2.46,2.5-1.33,0-2.4-1.06-2.42-2.41Z"/>
      </g>
    </g>
  </g>
</svg>