<?xml version="1.0" encoding="UTF-8"?>
<svg id="Capa_2" data-name="Capa 2" xmlns="http://www.w3.org/2000/svg" viewBox="0 0 79.09 79.09">
  <defs>
    <style>
      .cls-1 {
        fill: #002075;
      }

      .cls-1, .cls-2 {
        stroke-width: 0px;
      }

      .cls-2 {
        fill: #fff;
      }
    </style>
  </defs>
  <g id="Capa_1-2" data-name="Capa 1">
    <g>
      <path class="cls-1" d="M39.51,79.09C17.75,79.11.02,61.37,0,39.56-.02,17.76,17.72,0,39.48,0c21.9,0,39.6,17.72,39.61,39.63,0,21.76-17.72,39.44-39.58,39.46Z"/>
      <g>
        <path class="cls-2" d="M54.37,55.97v-2.96H14.3v-26.84h40.02v-2.99h-2.82v-2.95h8.82v2.91h-2.87v2.96h7.34v26.85h-7.34v2.93h2.84v2.96h-8.8v-2.88h2.88ZM17.26,49.91h37.09v-20.74H17.26v20.74ZM61.82,29.18h-4.34v20.74h4.34v-20.74Z"/>
        <path class="cls-2" d="M40.98,32.16v8.85h-4.33v2.99h4.3v2.94h-7.3v-8.88h4.32v-2.95h-4.32v-2.95h7.34Z"/>
        <path class="cls-2" d="M51.38,32.16v14.79h-7.29v-2.92h4.29v-2.96h-2.85v-2.99h2.85v-2.96h-4.29v-2.97h7.28Z"/>
        <path class="cls-2" d="M21.75,44.01h2.84v-8.89h-2.84v-2.98h5.86v11.87h2.96v2.93h-8.81v-2.92Z"/>
      </g>
    </g>
  </g>
</svg>