<?xml version="1.0" encoding="UTF-8"?>
<svg id="Capa_2" data-name="Capa 2" xmlns="http://www.w3.org/2000/svg" viewBox="0 0 59.99 52.54">
  <defs>
    <style>
      .cls-1 {
        fill: #fff;
        stroke-width: 0px;
      }
    </style>
  </defs>
  <g id="Capa_1-2" data-name="Capa 1">
    <g>
      <path class="cls-1" d="M10.76,46.25c-.07-.18-.21-.58-.36-.97-1.88-4.75-3.76-9.5-5.64-14.25-.55-1.4-.35-1.82,1.08-2.19,7.73-2.02,15.46-4.06,23.2-6.05.61-.16,1.32-.16,1.93,0,7.7,1.98,15.39,4.01,23.09,6.03,1.58.41,1.75.77,1.13,2.33-1.87,4.71-3.74,9.42-5.61,14.14-.15.39-.29.79-.33.9,2.09.77,4.05,1.55,6.06,2.22.91.3,1.89.43,2.85.55,1.09.14,1.82.78,1.83,1.75,0,1.01-.8,1.91-1.91,1.74-1.71-.26-3.5-.53-5.05-1.25-2.88-1.33-5.57-1.39-8.41.05-3.42,1.73-6.95,1.75-10.37.02-2.88-1.45-5.62-1.45-8.5,0-3.42,1.72-6.95,1.72-10.36-.02-2.84-1.44-5.53-1.38-8.41-.04-1.51.71-3.26.99-4.94,1.25C.84,52.62,0,51.75,0,50.7c0-1,.76-1.58,1.94-1.77,1.18-.18,2.34-.51,3.48-.87,1.76-.55,3.5-1.18,5.33-1.81ZM47.54,33.04c-.1-.89-.75-1.38-1.72-1.63-4.98-1.29-9.95-2.61-14.93-3.88-.58-.15-1.26-.13-1.83.02-4.95,1.26-9.88,2.56-14.82,3.86-1.38.36-2.05,1.25-1.74,2.29.32,1.06,1.26,1.45,2.69,1.08,2.41-.63,4.82-1.26,7.24-1.89,2.53-.65,5.06-1.8,7.58-1.79,2.57.01,5.13,1.17,7.69,1.84,2.45.64,4.89,1.3,7.35,1.92,1.4.35,2.52-.41,2.49-1.81Z"/>
      <path class="cls-1" d="M11.96,23.58c0-3.82,0-7.48,0-11.15,0-.8.43-1.23,1.21-1.3.31-.03.62-.02.94-.02,10.58,0,21.17,0,31.75,0,1.99,0,2.18.2,2.18,2.22,0,3.36,0,6.71,0,10.2-.44-.08-.8-.13-1.15-.22-5.28-1.37-10.56-2.76-15.85-4.1-.64-.16-1.4-.17-2.05,0-5.29,1.34-10.57,2.73-15.85,4.1-.34.09-.68.15-1.18.27Z"/>
      <path class="cls-1" d="M35.27,7.54h-10.65c.08-1.85.04-3.67.28-5.44.17-1.21,1.45-2.03,2.8-2.07,1.52-.04,3.04-.05,4.56,0,1.64.05,2.86,1.11,2.99,2.72.12,1.54.03,3.1.03,4.79Z"/>
    </g>
  </g>
</svg>