<?xml version="1.0" encoding="UTF-8"?>
<svg id="Capa_2" data-name="Capa 2" xmlns="http://www.w3.org/2000/svg" viewBox="0 0 79.09 79.09">
  <defs>
    <style>
      .cls-1 {
        fill: #002075;
        stroke-width: 0px;
      }
    </style>
  </defs>
  <g id="Capa_1-2" data-name="Capa 1">
    <g>
      <path class="cls-1" d="M39.61,79.09C17.76,79.11,0,61.41,0,39.57,0,17.72,17.71,0,39.56,0c21.84,0,39.55,17.73,39.53,39.59-.02,21.77-17.71,39.48-39.48,39.5ZM28.41,62.92c0-.71,0-1.27,0-1.82,0-3.86.04-7.72-.02-11.58-.02-1.47.51-2.28,1.98-2.63,2.75-.66,5.46-1.46,8.19-2.19,2.23-.6,3.09.05,3.1,2.36.01,4.68,0,9.37,0,14.05,0,.55,0,1.1,0,1.69h4.12V13.26c-.38.16-.61.24-.83.36-6.8,3.65-13.58,7.31-20.4,10.92-.85.45-.97,1.03-.97,1.86.02,9.06.01,18.12.01,27.18,0,2.68-.04,5.36.04,8.03.01.45.47,1.22.79,1.26,1.26.15,2.54.06,3.98.06ZM49.53,13.63c0,.96,0,1.55,0,2.15,0,14.2,0,28.4.01,42.59,0,1.47-.39,3.51.38,4.25.81.76,2.81.22,4.29.33,1.04.08,1.3-.36,1.3-1.34-.02-14.2-.01-28.4-.03-42.59,0-.43-.06-1.05-.34-1.26-1.73-1.35-3.52-2.6-5.62-4.12ZM59.2,40.58c-.04.83-.08,1.37-.08,1.91,0,5.29,0,10.58,0,15.87,0,4.82,0,4.8,4.82,4.58.86-.04,1.16-.31,1.16-1.17-.03-5.8,0-11.61-.03-17.42,0-.4-.18-1.01-.46-1.16-1.7-.9-3.46-1.69-5.4-2.62ZM19.87,40.59c-1.69.8-3.17,1.58-4.71,2.21-.92.38-1.18.92-1.17,1.86.04,4.62,0,9.25.03,13.87,0,1.41-.37,3.39.38,4.09.79.74,2.72.19,4.14.32,1.19.1,1.46-.38,1.45-1.5-.05-6.47-.02-12.94-.03-19.42,0-.39-.05-.78-.1-1.43ZM37.93,62.85v-14.23c-1.96.57-3.81,1.11-5.66,1.64-.06,1.47-.14,2.95-.18,4.42-.03,1.03,0,2.05,0,3.08v5.08h5.85Z"/>
      <path class="cls-1" d="M30.06,44.51c-.53-.53-1.44-1.02-1.49-1.59-.06-.68.47-1.89,1-2.06,3.31-1.06,6.67-1.97,10.06-2.73.52-.11,1.58.73,1.85,1.37.45,1.06-.29,1.87-1.36,2.17-3.05.86-6.12,1.66-9.18,2.49-.2.05-.4.06-.61.09l-.27.26Z"/>
    </g>
  </g>
</svg>