<?xml version="1.0" encoding="UTF-8"?>
<svg id="Capa_2" data-name="Capa 2" xmlns="http://www.w3.org/2000/svg" viewBox="0 0 79.09 79.09">
  <defs>
    <style>
      .cls-1 {
        fill: #fff;
        stroke-width: 0px;
      }
    </style>
  </defs>
  <g id="Capa_1-2" data-name="Capa 1">
    <g>
      <path class="cls-1" d="M39.51,79.09C17.75,79.11.02,61.37,0,39.56-.02,17.76,17.72,0,39.48,0c21.9,0,39.6,17.72,39.61,39.63,0,21.76-17.72,39.44-39.58,39.46ZM30.29,41.82c-.72.46-1.38.84-2,1.29-5.46,3.95-8.31,9.3-8.48,16.03-.05,1.76,1.21,2.98,2.8,2.98,1.53,0,2.66-1.14,2.8-2.82.03-.29,0-.59.03-.88.42-7.31,6.61-13.18,13.96-13.23,7.47-.05,13.77,5.73,14.25,13.1.03.41,0,.83.05,1.23.19,1.55,1.36,2.62,2.83,2.6,1.47-.02,2.66-1.12,2.75-2.67.05-.81-.01-1.65-.12-2.46-.93-6.74-4.45-11.74-10.3-15.14,6.35-8.45,6.3-15.99-.12-21.57-5.49-4.78-13.85-4.5-19.08.64-5.81,5.71-5.61,13.58.62,20.9Z"/>
      <path class="cls-1" d="M39.55,22.6c4.7,0,8.51,3.86,8.47,8.57-.04,4.62-3.85,8.38-8.48,8.38-4.69,0-8.51-3.87-8.47-8.57.04-4.61,3.85-8.38,8.48-8.38Z"/>
    </g>
  </g>
</svg>