<?xml version="1.0" encoding="UTF-8"?>
<svg id="Capa_2" data-name="Capa 2" xmlns="http://www.w3.org/2000/svg" viewBox="0 0 55.69 55.74">
  <defs>
    <style>
      .cls-1 {
        fill: #fff;
        stroke-width: 0px;
      }
    </style>
  </defs>
  <g id="Capa_1-2" data-name="Capa 1">
    <g>
      <path class="cls-1" d="M1.93,48.19v-19.31h7.59v7.28c1.42-.71,2.69-1.29,3.91-1.97.68-.38,1.23-.35,1.9.02,1.19.66,2.43,1.23,3.79,1.91v-7.23c.42-.03.77-.07,1.12-.07,1.92,0,3.84,0,5.77,0,.46,0,.87,0,.86.66-.02,6.09-.03,12.18-.04,18.28,0,.06-.06.13-.16.34-.57,0-1.21,0-1.85,0-2.47,0-4.93.03-7.4-.03-.41,0-.95-.31-1.18-.65-2.88-4.27-8.64-4.29-11.44.04-.79,1.22-1.84.32-2.87.75Z"/>
      <path class="cls-1" d="M38.37,25.39c-2.74-3.52-5.48-6.81-7.97-10.28-2.83-3.97-2.01-9.48,1.65-12.72,3.55-3.15,8.97-3.17,12.56-.07,3.7,3.21,4.59,8.7,1.78,12.7-2.48,3.52-5.26,6.83-8.01,10.37ZM45.07,9.63c.01-3.7-2.97-6.72-6.66-6.75-3.67-.03-6.71,2.98-6.74,6.66-.03,3.77,2.96,6.79,6.71,6.79,3.7,0,6.68-2.99,6.69-6.7Z"/>
      <path class="cls-1" d="M41.92,47.95c-1.43.34-2.29.05-3.13-1.14-2.04-2.89-6.1-3.42-9.02-1.4-.28.2-.56.4-.96.67v-11.47c.76,0,1.5,0,2.24,0,2.03,0,4.06,0,6.09,0,1.45,0,1.7.26,1.75,1.94-1.33,0-2.65,0-3.98,0-1.64.01-2.29.68-2.31,2.32,0,.44-.01.87,0,1.31.04,1.36.75,2.07,2.1,2.09,1.63.02,3.26.03,4.9,0,.64-.01.97.13,1.12.83.34,1.62.79,3.22,1.2,4.87Z"/>
      <path class="cls-1" d="M12.43,18.6c-1.42-1.91-2.83-3.67-4.07-5.53-1.33-1.99-.83-4.67,1-6.18,1.84-1.52,4.51-1.48,6.28.11,1.76,1.58,2.15,4.24.79,6.22-1.23,1.79-2.58,3.49-3.99,5.38ZM12.46,8.68c-1.09-.01-1.92.8-1.92,1.89,0,1.05.77,1.85,1.81,1.89,1.1.04,1.94-.75,1.97-1.83.03-1.09-.78-1.93-1.87-1.94Z"/>
      <path class="cls-1" d="M50.85,43.59c-1.45-1.97-2.89-3.75-4.12-5.65-1.28-1.97-.74-4.56,1.06-6.07,1.8-1.5,4.42-1.48,6.18.04,1.82,1.57,2.28,4.18.94,6.19-1.23,1.83-2.61,3.55-4.06,5.5ZM52.78,35.54c-.01-1.05-.91-1.9-1.97-1.88-1.02.02-1.85.85-1.87,1.86-.02,1.05.85,1.93,1.91,1.93,1.06,0,1.94-.87,1.93-1.92Z"/>
      <path class="cls-1" d="M10.46,46.14c2.68-.02,4.86,2.15,4.86,4.8,0,2.61-2.16,4.77-4.77,4.8-2.67.02-4.85-2.14-4.84-4.81,0-2.64,2.12-4.77,4.75-4.78ZM10.54,49.01c-1.05-.02-1.92.85-1.92,1.92,0,1.02.79,1.87,1.8,1.92,1.04.05,1.94-.8,1.97-1.87.03-1.08-.8-1.96-1.86-1.98Z"/>
      <path class="cls-1" d="M33.6,46.14c2.63.01,4.75,2.14,4.77,4.77.02,2.66-2.17,4.84-4.84,4.82-2.61-.02-4.76-2.17-4.77-4.79-.01-2.66,2.17-4.83,4.84-4.81ZM35.45,50.95c0-1.07-.85-1.94-1.9-1.94-1.01,0-1.85.83-1.88,1.85-.03,1.07.79,1.97,1.84,2,1.04.03,1.92-.84,1.93-1.91Z"/>
      <path class="cls-1" d="M51.76,28.84h-1.7c-.23-1.93-.34-3.84-.72-5.7-.31-1.51-.76-3.04-1.48-4.4-.69-1.31-.45-2.18.6-3.13,2.37,4.09,3.54,8.44,3.31,13.22Z"/>
      <path class="cls-1" d="M3.83,26.81c.18-4.2,1.37-8.01,3.53-11.54,1.39,1.24,1.4,1.26.65,2.77-1.16,2.33-1.86,4.79-2.16,7.36-.2,1.66-.18,1.67-2.02,1.41Z"/>
      <path class="cls-1" d="M11.5,33.29v-4.41h5.66v4.2c-1.89-1.47-3.72-1.74-5.66.21Z"/>
      <path class="cls-1" d="M18.4,7.46c-.18-.28-.47-.74-.83-1.3,3.38-1.59,6.88-2.36,10.59-2.28-.35,1.79-.49,1.75-2.09,2.01-2.52.4-5,1.01-7.67,1.57Z"/>
      <path class="cls-1" d="M26.84,50.09v1.71h-9.59v-1.71h9.59Z"/>
      <path class="cls-1" d="M46.08,40.4c.39.52.76,1.01,1.22,1.63-1.21,1.33-2.42,2.65-3.65,4.01-.87-1.47-.81-1.89.13-2.93.77-.85,1.49-1.74,2.31-2.7Z"/>
      <path class="cls-1" d="M34.59,40.28v-1.82c1.53,0,3.02-.12,4.46.07.42.06.73,1,1.24,1.75h-5.7Z"/>
      <path class="cls-1" d="M3.75,51.83H0v-1.78h3.75v1.78Z"/>
      <path class="cls-1" d="M22.95,23.16v1.79h-1.81v-1.79h1.81Z"/>
      <path class="cls-1" d="M24.99,24.92v-1.8h1.8v1.8h-1.8Z"/>
      <path class="cls-1" d="M28.8,24.92v-1.8h1.8v1.8h-1.8Z"/>
      <path class="cls-1" d="M42.1,51.82h-1.79v-1.77h1.79v1.77Z"/>
    </g>
  </g>
</svg>