<?xml version="1.0" encoding="UTF-8"?>
<svg id="Capa_2" data-name="Capa 2" xmlns="http://www.w3.org/2000/svg" viewBox="0 0 32.53 32.53">
  <defs>
    <style>
      .cls-1 {
        fill: #fff;
        stroke-width: 0px;
      }
    </style>
  </defs>
  <g id="Capa_1-2" data-name="Capa 1">
    <g>
      <path class="cls-1" d="M20.59,9.38c-1.46-.22-6.96-.21-8.48-.03-1.5.17-2.5,1.1-2.73,2.59-.24,1.59-.19,7.51,0,8.7.21,1.24.91,2.09,2.14,2.43,1.29.36,7.5.28,8.89.12,1.51-.17,2.51-1.1,2.74-2.6.23-1.52.19-7.05.04-8.46-.16-1.52-1.1-2.52-2.6-2.75ZM16.26,20.69c-2.44,0-4.42-1.98-4.42-4.42,0-2.44,1.98-4.42,4.42-4.42,2.44,0,4.42,1.98,4.42,4.42s-1.98,4.42-4.42,4.42ZM20.86,12.71c-.57,0-1.03-.47-1.03-1.04,0-.57.47-1.03,1.04-1.03.57,0,1.03.47,1.03,1.04,0,.57-.47,1.03-1.04,1.03Z"/>
      <path class="cls-1" d="M16.29,13.41c-1.58-.01-2.87,1.25-2.88,2.83-.01,1.58,1.25,2.87,2.83,2.88,1.58.01,2.87-1.25,2.88-2.83.01-1.58-1.25-2.87-2.83-2.88Z"/>
      <path class="cls-1" d="M16.27,0C7.28,0,0,7.28,0,16.27s7.28,16.27,16.27,16.27,16.27-7.28,16.27-16.27S25.25,0,16.27,0ZM24.62,21.24c-.52,1.96-1.79,3.13-3.77,3.45-1.5.24-8.18.29-9.54-.06-1.96-.51-3.13-1.78-3.46-3.76-.24-1.45-.32-8.21.09-9.67.53-1.91,1.8-3.03,3.73-3.35,1.69-.28,6.5-.21,8.52-.1,1.19.06,2.27.44,3.16,1.28.84.8,1.28,1.81,1.39,2.94.14,1.36.28,7.76-.12,9.27Z"/>
    </g>
  </g>
</svg>