<?xml version="1.0" encoding="UTF-8"?>
<svg id="Capa_1" data-name="Capa 1" xmlns="http://www.w3.org/2000/svg" version="1.1" viewBox="0 0 1080 1080">
  <defs>
    <style>
      .cls-1 {
        fill: #fdfdfd;
        stroke-width: 0px;
      }
    </style>
  </defs>
  <path class="cls-1" d="M423.3,259.8c-33.8-93.3-22-152.2,37.3-193.7,51-35.7,119.6-33.1,167.4,6.4,53.7,44.3,63.6,106.2,27.9,187.3,7.9,0,14.5,0,21.2,0,35.9.5,72.1-2.4,107.5,2.2,80.7,10.4,139.6,70.1,154.2,152.5,24.7,138.6,49,277.2,73.2,415.8,19.1,109.6-63.6,211.9-174.9,212.7-197.7,1.4-395.3,1.3-593,0-109.3-.7-193.8-97.9-176.6-205.8,23.1-144.7,49.2-289,76.7-433,16.6-86.9,88.7-143.2,177.4-144.3,33.2-.4,66.5,0,101.6,0ZM539.2,984.4c96.5,0,193.1.4,289.6-.1,82.9-.4,138.4-67.7,124-148.8-24.2-136.6-48.3-273.3-72.2-410-11.3-64.3-60.1-106.4-125.2-106.5-143.5-.2-287-.2-430.5,0-64.3,0-113.7,41.6-124.8,104.7-24.1,136-48,272-71.7,408.1-15.4,88.2,39.2,152.5,129.1,152.6,93.9.1,187.8,0,281.8,0ZM619.2,179c-.4-44-36.8-79.7-80.4-78.8-43.1.9-77.7,36.2-77.7,79.5,0,44,35.9,80.1,79.4,79.8,43.8-.3,79.1-36.4,78.7-80.5Z"/>
  <path class="cls-1" d="M686.3,691.3c-7.5-1.1-13.3-1.6-18.9-3-15.4-3.9-23.1-14.3-22.4-30,.7-14.9,8.9-25.4,23.7-26.7,18.1-1.6,36.8-2.6,54.4.5,8.8,1.6,20,11.6,22.9,20.2,12.9,38.2-7.9,89.6-42.7,111.3-35.6,22.2-80.8,18.8-112.6-9.2-19.4-17.1-30.8-38.8-31.7-64.9-.8-25.4-1-50.9,0-76.3,1.5-37.3,26.8-70.7,62-82.5,38.1-12.7,72.1-5,100.6,23.6,15,15,16.1,32.6,4.1,45.3-12.2,12.9-29.4,12.7-44.7-2.1-12.7-12.3-26.5-16.8-42.6-9.8-15.5,6.7-21.1,20.1-20.7,36.6.5,20.2-.3,40.5.4,60.6.7,18,13.1,31.2,29.8,33.4,18.2,2.4,30.8-6.2,38.2-27.1Z"/>
  <path class="cls-1" d="M391.5,612.3c22.5-20.9,44.7-41.4,66.9-62.1,5.7-5.3,10.7-11.5,16.5-16.6,12.7-11.1,29.6-11.2,40.7-.9,11.9,11,13,28.9,1,42.1-19.3,21.2-39.7,41.4-59.6,62-4,4.2-7.9,8.6-13.7,14.9,13.9,14.6,27.7,29,41.5,43.3,9.9,10.3,20.2,20.4,29.8,31,13.2,14.5,13.5,31.6,1.4,43.5-12.2,12-29.5,11.6-43.4-2.2-21.7-21.6-42.9-43.7-64.1-65.8-4.4-4.6-8.1-9.9-12.1-14.9-1.7.7-3.4,1.5-5.2,2.2,0,18.5.3,37,0,55.4-.4,21.1-11.8,33.7-29.8,33.5-18-.2-29.1-12.6-29.2-34.1-.2-61.3-.2-122.5,0-183.8,0-22.5,11.7-35.3,30.4-34.8,17.7.5,28.2,13.2,28.6,34.8.3,17.6.4,35.2.7,52.7,0,.4.9.7-.6-.4Z"/>
</svg>