<?xml version="1.0" encoding="UTF-8"?>
<svg id="Capa_2" data-name="Capa 2" xmlns="http://www.w3.org/2000/svg" viewBox="0 0 32.74 32.74">
  <defs>
    <style>
      .cls-1 {
        fill: #fdfdfd;
        stroke-width: 0px;
      }
    </style>
  </defs>
  <g id="Capa_1-2" data-name="Capa 1">
    <path class="cls-1" d="M16.37,0C7.33,0,0,7.33,0,16.37s7.33,16.37,16.37,16.37,16.37-7.33,16.37-16.37S25.41,0,16.37,0ZM10.97,25.32c-1.16-.01-2.33,0-3.49,0-.19,0-.24-.05-.24-.24,0-4.15,0-8.3,0-12.45,0-.17.04-.23.22-.23,1.18,0,2.36,0,3.54,0,.23,0,.26.09.26.28,0,2.07,0,4.13,0,6.2s0,4.1,0,6.15c0,.23-.06.3-.29.29ZM9.25,10.62c-1.27,0-2.32-1.05-2.33-2.32,0-1.28,1.05-2.34,2.33-2.33,1.27,0,2.32,1.05,2.32,2.31,0,1.29-1.04,2.34-2.33,2.34ZM26.32,25.05c0,.21-.06.27-.27.27-1.17,0-2.33,0-3.5,0-.21,0-.25-.06-.25-.26,0-2.15,0-4.3,0-6.46,0-.54-.04-1.08-.19-1.6-.28-.97-.97-1.46-1.98-1.4-1.38.07-2.1.76-2.28,2.16-.04.34-.06.67-.06,1.01,0,2.09,0,4.19,0,6.28,0,.21-.05.27-.26.27-1.17-.01-2.35,0-3.52,0-.19,0-.24-.05-.24-.24,0-4.14,0-8.29,0-12.43,0-.21.07-.25.26-.25,1.11,0,2.23,0,3.34,0,.21,0,.26.06.25.26-.01.5,0,.99,0,1.49.27-.3.49-.61.77-.87.85-.8,1.85-1.2,3.03-1.19.64,0,1.28.05,1.9.23,1.42.41,2.25,1.39,2.64,2.78.3,1.04.35,2.11.35,3.18,0,2.26,0,4.52,0,6.78Z"/>
  </g>
</svg>