<?xml version="1.0" encoding="UTF-8"?>
<svg id="Capa_1" data-name="Capa 1" xmlns="http://www.w3.org/2000/svg" version="1.1" viewBox="0 0 550 550">
  <defs>
    <style>
      .cls-1 {
        fill: #fff;
        stroke-width: 0px;
      }
    </style>
  </defs>
  <path class="cls-1" d="M253.1,539.3c-17.5-25.1-37.3-53.3-59.6-84.9-22.3-31.5-38.1-53.7-47.6-66.6-9.5-12.9-20.4-28.8-32.8-47.8-12.4-19-20.6-32.4-24.6-40.3-4-7.9-8.4-17.9-13.1-30.1-4.8-12.2-7.7-22.7-8.8-31.7-1.1-8.9-1.6-19.5-1.6-31.7,0-57.3,20.4-106,61.3-146.1C167.1,20.1,216.7,0,275,0s107.9,20.1,148.7,60.1c40.8,40.1,61.2,88.8,61.2,146.1s-.5,22.8-1.6,31.7c-1.1,9-4,19.5-8.7,31.7-4.8,12.2-9.1,22.2-13.1,30.1-4,7.9-12.2,21.3-24.6,40.3-12.4,19-23.3,34.9-32.8,47.8-9.5,12.9-25.3,35.1-47.6,66.6-22.3,31.5-42.1,59.8-59.6,84.9-5.1,7.2-12.4,10.7-21.9,10.7s-16.8-3.6-21.9-10.7ZM213.2,266.9c17.1,16.8,37.8,25.3,61.8,25.3s44.7-8.4,61.8-25.3,25.7-37.1,25.7-60.7-8.6-43.9-25.7-60.7c-17.1-16.8-37.7-25.3-61.8-25.3s-44.7,8.4-61.8,25.3c-17.1,16.8-25.7,37-25.7,60.7s8.6,43.9,25.7,60.7Z"/>
</svg>