<?xml version="1.0" encoding="UTF-8"?>
<svg id="Capa_1" data-name="Capa 1" xmlns="http://www.w3.org/2000/svg" version="1.1" viewBox="0 0 1080 1080">
  <defs>
    <style>
      .cls-1 {
        fill: #dd6900;
        stroke-width: 0px;
      }
    </style>
  </defs>
  <path class="cls-1" d="M65.6,540.7c1.6,278.9,242.4,497.8,519.1,471,258.6-25.1,450.5-255.6,426.4-513.4-2.9-30.4-10.4-60.5-17.1-90.5-5.3-23.9-1.2-37,16.1-41.8,16.2-4.5,27.8,4.4,34.4,26.3,87,287-95.6,596.9-389.4,660.7C353.7,1118.5,64,918.5,19.2,614-23.7,322.2,189.4,48.7,483.3,17.5c69.8-7.4,138-1.4,204.8,18.9,10.5,3.2,22.9,14.3,26.1,24.3,6.3,20-14.9,33.1-40.1,25.7-52.4-15.3-105.8-20.6-160.2-18.7-218.2,7.6-415,186.9-442,403.5-2.9,23-4.2,46.3-6.2,69.4Z"/>
  <path class="cls-1" d="M542.2,852.3c179.6-.2,321.7-149.8,313.2-329.6-1-21.6,6.4-33.2,22.5-35.1,16.2-1.9,28.3,9.4,29.4,31.7,5.4,116.5-34.7,215.7-122.1,292.3-107,93.8-231.6,119.1-365.6,71.7-133.9-47.5-214.4-145.9-239.6-285.7-37.2-206,116.5-404.8,325.3-423.5,19.6-1.8,39.6-1.9,59.3-.4,18,1.4,28.8,14.8,26.4,30-2.8,18-15.2,21.9-31.6,21.4-188.2-6.3-334,135-331.6,321.1,2.2,168.8,143.4,306.4,314.3,306.2Z"/>
  <path class="cls-1" d="M908.8,171.3c25.6,0,48.1.1,70.6,0,14-.1,28.6,3,30.9,17.6,1.6,10.1-3.2,24.7-10.4,32.2-47.9,49.8-96.8,98.5-146.5,146.6-7.4,7.2-20.1,9-30.4,13.2-.6.2-1.4.1-2,0-63.2-12.3-108.3,13.9-148,61.9-33,39.9-72.5,74.4-109.6,110.8-17.9,17.5-43.5,13.3-46.3-8.2-1.3-10,5.3-23.9,12.9-31.6,50.5-52.1,101.8-103.2,153.6-154,11.1-10.9,18.3-21.8,15.5-37.5-10.9-60.5,11.6-105.5,59.1-143.5,34.5-27.6,63.6-62,94.9-93.6,10.8-10.9,21.4-23,38.7-16,18.3,7.4,17.3,24.2,17.2,40.2-.1,19.7,0,39.4,0,62ZM854.6,158c-34.4,34.4-66.3,66.1-97.7,98.2-3.3,3.4-5.2,9.6-5.4,14.6-.7,15-1.3,30.1.4,45,.5,4.8,7.8,12.1,12.6,12.7,33.4,3.7,64.2,1.5,86.4-30.5,11.8-17.1,29.4-30.3,44.3-45.3,8.3-8.4,16.6-16.7,26.8-27-65.7-3.8-64.2,4.7-67.4-67.6Z"/>
  <path class="cls-1" d="M536.1,748.1c-108.5.5-202.6-92.6-204.1-208-1.4-112.2,89.2-207.7,200.8-210.1,10.5-.2,23.4,6.2,30.9,13.7,4.3,4.3,3.2,20.3-1.5,25.5-6.4,6.9-18.4,10.7-28.4,11.8-79.7,8.3-135.1,59-147.5,136.1-13.4,83.5,46.2,162.4,133.5,176.6,81.1,13.2,162.9-45.6,176.2-126.7,1.5-9.4,2.4-19,3.2-28.5,1.5-17.3,11.2-27.1,28-25.8,17.1,1.3,24.3,13.5,23.7,30.2-2.3,70.4-32.4,126.1-89.3,167.2-35.4,25.6-75.7,37.2-125.5,38.1Z"/>
</svg>