<?xml version="1.0" encoding="UTF-8"?>
<svg id="Capa_1" data-name="Capa 1" xmlns="http://www.w3.org/2000/svg" version="1.1" viewBox="0 0 1080 1080">
  <defs>
    <style>
      .cls-1 {
        fill: #fdfdfd;
        stroke-width: 0px;
      }
    </style>
  </defs>
  <path class="cls-1" d="M130.8,942c18.3-6.2,35.8-10.5,51.8-18,19.4-9,36.4-6.3,55.2,2.1,59.8,26.6,121.1,50.1,180.2,78.1,61.5,29.1,118.6,23.3,175-11.5,8.2-5.1,16.5-12.4,25.3-13.3,8.4-.8,20.8,3.1,25.3,9.3,3.3,4.7-.2,20.7-5.7,24.3-64.7,43.8-133.2,71.1-211.8,38.5-66.2-27.5-132.1-55.7-197.8-84.3-13.5-5.9-25.3-7.1-39.3-1.5-21.7,8.8-44.1,15.8-66.4,23.1-23.6,7.7-34.7.2-34.8-24.2-.2-76.6-.6-153.3.6-229.9.2-9.5,7.9-24.8,15.5-27.3,78.1-26.2,157.2-47.3,241.2-36.1,42.6,5.7,81.9,20.2,117.2,43.7,31.9,21.2,65.5,27,102.4,22.3,19.8-2.5,40.1-1.8,59.8-4.8,41-6.3,73.9,3.6,94.4,44,50.4-32,99.5-63.7,149.3-94.4,12.7-7.8,26.9-15,41.3-17.8,34.5-6.5,62.8,9.7,75.6,40.2,14.1,33.5,6.8,68.2-21.9,89.1-36.8,26.8-75,51.6-112.7,77.2-21.7,14.7-43.5,29.3-65.1,44.1-12.5,8.5-25.8,14.1-35.9-1.4-10.1-15.5.8-25.3,13.2-33.6,55.5-37.4,111-74.8,166.2-112.7,7.6-5.2,17.9-13.1,18.6-20.6,1.1-11.8-1.4-27.9-9-35.2-6.5-6.1-25.3-7.1-33.7-2.1-61.5,36.9-121.7,75.9-182.3,114.4-3.3,2.1-5.9,5.7-7.9,9.2-12.9,22.7-32.9,34.5-57.9,39.2-66.4,12.5-132.8,25-199.2,37.8-14.3,2.8-25.8-.3-29.1-15.2-3.4-15.3,6.5-22.6,20.5-25.3,63-12,126-23.9,189-35.9,6.1-1.2,12.3-2.2,18.1-4.2,15.9-5.3,27.3-15.3,23.8-33.5-3.4-17.6-16.6-24.6-33.8-23.5-24.8,1.6-49.6,3.4-74.3,5.8-42.6,4.1-83.7,3.1-121.2-22.5-79.7-54.4-166.9-54.7-256.4-32.1-21.3,5.4-49.3,6.9-60.8,21.1-10.7,13-3.8,40.7-3.9,62-.2,42.8,0,85.6,0,128.4,0,1.3.5,2.7,1.3,6.8Z"/>
  <path class="cls-1" d="M850.5,316.5c-.3,162.4-128.3,299.5-288.9,309.5-165.3,10.3-307.5-106.6-329.5-270.5-8.3-61.4,2.1-119.4,28.3-175.1,6.8-14.5,15-29.6,33.8-20.2,17.8,8.9,10.5,24,4,37.7-74.7,158.8,11.6,339.2,181.7,380.1,145.6,35,296.7-62.8,324.2-209.6,28.4-151.9-73.5-296.3-223.6-318.3-55.9-8.2-108.3,1.2-159.2,24-7.8,3.5-17.5,6.3-25.3,4.7-5.4-1.1-13.9-11.5-12.8-15.6,2.3-8.8,8.1-19.5,15.7-23.5C450.6,12.4,506.3,1.4,564.8,6.1c161.1,13,285.9,148.8,285.6,310.5Z"/>
  <path class="cls-1" d="M767.6,315.2c.3,125.7-101.6,228.3-227.1,228.6-125.3.3-228.4-102.1-228.7-227.3-.4-125.2,102.2-228.2,227.4-228.6,125.5-.3,228.1,101.8,228.4,227.2ZM726,316c0-102.3-82.9-185.9-185.1-186.4-102.9-.5-187.5,83.6-187.6,186.3,0,101.9,83.6,186,185.4,186.4,103.1.5,187.2-83.2,187.3-186.3Z"/>
  <path class="cls-1" d="M693.9,973.3c-5.6-8-15.6-16-15.5-23.9.1-6.8,11.4-18.4,18.4-18.8,6.6-.4,19,10.3,19.7,17.1.8,7.9-8.3,16.8-13.1,25.2-3.1.2-6.3.3-9.4.5Z"/>
  <path class="cls-1" d="M336,139.2c-9.8-12.6-18.3-18.9-20.2-26.9-3-12.6,6.2-22.9,18.2-20.9,8,1.4,18.3,11.6,20.1,19.6,1.4,6-9,14.8-18.1,28.2Z"/>
  <path class="cls-1" d="M572.2,265.5c-11.3-4-19.2-9.3-26.8-8.8-8.7.5-17.1,6.2-25.7,9.6,3.9,7.8,5.9,18.5,12.2,22.9,10.4,7.4,23.9,10.3,35.7,16,20.8,10.2,33,26.7,34.5,50.2,1.6,24.4-8.2,43.7-29.3,55.2-10.4,5.7-13.2,12-12.5,22.6,1,14.9-4.1,27.3-20.9,26.9-16.7-.4-21.6-13.3-20.3-27.8,1.1-12.8-2.8-20.4-15.5-24.8-12.1-4.2-18.8-15.7-11.7-26.1,4.7-6.8,17.4-9.4,27.1-11.1,5.2-.9,11.7,6.2,17.2,5.6,7.8-.9,20.7-4.2,21.7-8.7,1.6-7.2-2.4-19.1-8.3-23.6-9.5-7.4-22.3-10.3-33.7-15.2-22.8-9.9-36.6-26.9-38.3-52-1.7-25,9.5-43.3,30.6-56.9,5.4-3.5,9.8-12.3,10.3-19,1.1-15.3,4-29.1,22-28.9,16.8.2,21.4,13.4,19.9,27.9-1.3,13,4.2,18.9,15.4,25.2,6.9,3.8,12.4,15.9,12.3,24.3,0,5.7-10.6,11.4-15.8,16.5Z"/>
</svg>