<?xml version="1.0" encoding="UTF-8"?>
<svg id="Capa_2" data-name="Capa 2" xmlns="http://www.w3.org/2000/svg" viewBox="0 0 67.04 55">
  <defs>
    <style>
      .cls-1 {
        fill: #002075;
        stroke-width: 0px;
      }
    </style>
  </defs>
  <g id="Capa_1-2" data-name="Capa 1">
    <g>
      <path class="cls-1" d="M7.59,34.05c8.04-1.92,15.16,4.51,13.46,13.09.44.02.87.05,1.29.05,9.29,0,18.58,0,27.87,0,1.86,0,1.93-.07,1.93-1.9,0-1,0-1.99,0-2.92-5.57,0-11.01,0-16.45,0-3.85,0-5.1-1.23-5.11-5.03-2.85-1.02-3.65-2.2-3.44-4.69-1.22-.81-2.43-1.4-3.33-2.3-.5-.5-.69-1.51-.69-2.3,0-2.03,1.34-3.21,4.05-3.83-.28-3.35,1.2-4.96,4.58-4.96,2.53,0,5.06,0,7.59,0,.42,0,.84-.03,1.25-.05.02-.19.06-.28.04-.35-1.28-3.65-.11-5.35,3.73-5.36,2.53,0,5.05,0,7.78,0,0-.59,0-1.22,0-1.85,0-2.53-.01-5.06,0-7.59,0-.88-.24-1.44-1.24-1.43-4.67,0-9.33,0-14.2,0,0,.52,0,.98,0,1.44,0,3.23.01,6.46,0,9.68,0,1.67-.94,2.18-2.38,1.31-1.27-.77-2.49-1.61-3.79-2.33-.35-.19-1-.19-1.35,0-1.3.71-2.52,1.56-3.79,2.32-1.43.86-2.37.35-2.38-1.32-.02-3.18,0-6.37,0-9.55,0-.47,0-.94,0-1.49-.49-.03-.87-.08-1.25-.08-4.14,0-8.29,0-12.43,0-1.61,0-1.74.13-1.75,1.7,0,2.57,0,5.15,0,7.72,0,.94-.13,1.84-1.32,1.86-1.21.02-1.32-.87-1.32-1.82.01-2.75-.01-5.5.01-8.24C4.98,1.44,6.4,0,8.79,0c14.05,0,28.09,0,42.14,0,2.39,0,3.81,1.43,3.83,3.83.02,3.27-.03,6.54.04,9.81.01.55.35,1.2.74,1.62,1.19,1.27,2.49,2.44,3.71,3.68,1.19,1.21,2.54,1.85,4.31,1.77,2.5-.11,3.47.94,3.47,3.46,0,3.71,0,7.42,0,11.12,0,2.26-1,3.24-3.28,3.27-1.31.02-2.62-.02-3.93.02-.65.02-1.32.07-1.93.27-2.28.74-3.13,1.96-3.13,4.35,0,1,.02,2.01,0,3.01-.06,2.11-1.42,3.51-3.53,3.59-1.05.04-2.09.01-3.14.01-8.99,0-17.97.01-26.96-.02-.91,0-1.48.25-2.07.99-2.78,3.48-6.44,4.89-10.79,3.89-4.19-.96-6.92-3.67-7.93-7.84-1.04-4.28.28-7.94,3.67-10.75.73-.6.97-1.19.96-2.09-.05-3.01,0-6.02-.03-9.03,0-.98.18-1.86,1.33-1.83,1.13.02,1.32.92,1.31,1.88-.01,2.96,0,5.92,0,9.02ZM42.8,16.13c.03,2,.99,3.02,2.83,3.1,1.52.07,3.05.01,4.58.04.8.02,1.48.46,1.32,1.25-.11.51-.78.98-1.29,1.31-.28.18-.76.05-1.16.05-5.84,0-11.69,0-17.53,0-.89,0-1.78.09-1.78,1.22,0,1.1.82,1.27,1.74,1.26,2.22-.02,4.45,0,6.67-.01.97,0,1.85.19,1.85,1.33,0,1.16-.9,1.31-1.86,1.31-3.4-.02-6.8,0-10.2,0-.35,0-.78-.12-1.03.04-.46.3-1.11.75-1.14,1.16-.02.41.58.93,1.03,1.24.27.19.76.07,1.15.07,3.23,0,6.45,0,9.68,0,.31,0,.61,0,.92,0,.87,0,1.47.4,1.46,1.3,0,.91-.65,1.3-1.49,1.31-2.35.02-4.71.02-7.06.01-.92,0-1.75.15-1.72,1.27.03,1.02.8,1.2,1.68,1.19,2.31-.02,4.62,0,6.93,0,.95,0,1.69.36,1.65,1.4-.04.98-.78,1.24-1.67,1.23-1.18-.02-2.35,0-3.53,0-.88,0-1.6.24-1.6,1.28,0,.96.69,1.22,1.51,1.24.26,0,.52,0,.78,0,4.45,0,8.9-.08,13.34.04,2.14.06,3.92-.48,5.52-1.87,1.65-1.43,3.6-2.05,5.8-1.96,1.37.06,2.75.01,4.13.01v-12.53c-4.59-.48-5.25-.57-7.61-3.39-2.52-3-5.45-4.42-9.37-3.93-1.49.19-3.02.03-4.53.03ZM18.64,44.43c.03-4.45-3.46-8.02-7.87-8.06-4.49-.04-8.11,3.52-8.12,7.97,0,4.39,3.59,8,7.96,8.02,4.41.02,8-3.53,8.03-7.93ZM25.7,11.77c1.17-.73,2.15-1.29,3.07-1.92.74-.51,1.41-.52,2.16-.02.96.64,1.96,1.22,3.08,1.91V2.73h-8.31v9.04Z"/>
      <path class="cls-1" d="M7.74,18.89c-.52.32-1.11.96-1.56.87-.47-.08-1.05-.84-1.11-1.35-.04-.33.78-1.07,1.21-1.07.5,0,1,.62,1.49.98-.01.19-.02.38-.03.57Z"/>
      <path class="cls-1" d="M9.56,44.91c1.03-1.23,2.01-2.39,2.98-3.56.56-.67,1.21-1.1,2.01-.48.86.66.63,1.43.02,2.15-1.23,1.47-2.47,2.94-3.7,4.41-.69.83-1.43.91-2.25.2-.59-.51-1.2-1.01-1.79-1.52-.66-.56-.87-1.24-.32-1.95.57-.72,1.28-.61,1.96-.09.34.26.68.52,1.08.84Z"/>
    </g>
  </g>
</svg>