<?xml version="1.0" encoding="UTF-8"?>
<svg id="Capa_1" data-name="Capa 1" xmlns="http://www.w3.org/2000/svg" version="1.1" viewBox="0 0 550 550">
  <defs>
    <style>
      .cls-1 {
        fill: #fff;
        stroke-width: 0px;
      }
    </style>
  </defs>
  <path class="cls-1" d="M69.5,523.5c-11.3,0-20.7-7.7-23.1-18.1l-23.7-100.9c-.4-1.7-.6-3.4-.6-5.2,0-9.7,5.9-18,14.4-21.6l110.6-46.6c2.9-1.2,6-1.9,9.3-1.9,7.4,0,14.1,3.3,18.4,8.6l49,58.8c76.9-35.6,138.8-96.4,175.1-172l-59.9-48.1c-5.3-4.2-8.7-10.8-8.7-18s.7-6.3,1.9-9.1l47.4-108.7c3.7-8.3,12.1-14.1,21.9-14.1s3.6.2,5.3.6l102.7,23.3c10.5,2.4,18.4,11.6,18.4,22.7,0,249-205.4,450.3-458.4,450.3Z"/>
</svg>