<?xml version="1.0" encoding="UTF-8"?>
<svg id="Capa_1" data-name="Capa 1" xmlns="http://www.w3.org/2000/svg" version="1.1" viewBox="0 0 1080 1080">
  <defs>
    <style>
      .cls-1 {
        fill: #fdfdfd;
        stroke-width: 0px;
      }
    </style>
  </defs>
  <path class="cls-1" d="M155,692.8c54.1,0,103.6,0,153.1,0,33.8,0,67.7.9,101.5-.5,10.1-.4,22.9-4.4,29.4-11.5,19.4-21.1,36.2-44.5,57-70.8-20.2,0-35.7-.2-51.3,0-14.5.2-25.3-5.8-25.3-20.9,0-15.1,10.8-20.8,25.4-20.8,132.6.1,265.2,0,397.8.2,25.3,0,44.8,12.8,60.2,31.8,19.9,24.7,39.4,49.9,58.7,75.1,9.5,12.4,17.1,25.8,9,41.9-8.1,16.4-23.3,17.3-39,17.1-19.3-.3-38.6,0-61.3,0v22.4c0,78.7,0,157.5,0,236.2,0,49-23.6,73-71.9,73-173.4,0-346.7,0-520.1,0-47.1,0-71.2-24.3-71.3-71.5,0-85.6,0-171.2,0-260-21.8,0-42.9-.3-64,0-15.4.3-32-1.5-35.7-17.8-2.7-11.7.2-28,6.9-37.9,19.3-28.5,41.3-55.3,63.3-81.9,19.6-23.7,46.4-32.5,76.1-27.4,7.5,1.3,18.3,12.4,18.5,19.3.2,6.9-11.8,20.6-17.1,20-34.1-4.3-49.8,18.3-66.4,40.8-9.8,13.3-20.3,26.2-33.6,43.3ZM516,1024.4v-372.3c-14.7,18.8-26.8,34.7-39.4,50.2-17.6,21.4-39.7,33.2-68.3,32.3-26.2-.8-52.5-.2-78.7-.2-26.6,0-53.3,0-81,0,0,91-.1,179.3.1,267.6,0,15.1,9.2,22.4,24,22.4,80.7,0,161.4,0,243.3,0ZM560.8,651.8v372.6c79.4,0,157.4,0,235.3,0,27.2,0,32.4-5.4,32.4-32.8,0-79.4,0-158.8,0-238.1,0-6-.7-11.9-1.2-19-53.8,0-106.2-.5-158.6.2-28.6.4-50.7-11-68.3-32.4-12.7-15.4-24.7-31.4-39.6-50.4ZM922.1,692.8c-18.4-23.7-33.9-43.1-48.9-62.9-10.8-14.3-24.4-20.3-42.7-20.2-75.9.7-151.8.3-227.7.3-5.8,0-11.6.6-20.9,1.1,19.5,24.8,35.8,47.9,54.8,68.4,7,7.5,20.3,12.2,30.9,12.7,35.8,1.5,71.7.6,107.6.6,47.4,0,94.7,0,146.7,0Z"/>
  <path class="cls-1" d="M786.7,196.6c-6.3,10.9-11.1,23.3-19.3,32.5-20.2,22.7-41.4,44.5-63.4,65.5-10.9,10.4-12.9,20.9-10.6,35,5,31.3,8.9,62.9,12.4,94.4,4.3,38.1-27.9,61.9-62.8,46.2-29.5-13.3-58.6-27.7-87.4-42.6-10.8-5.6-19.6-6-30.7-.4-28.9,14.7-58.5,27.9-87.7,42-16.9,8.2-33.3,9.1-48.8-2.3-15.5-11.4-19.7-27.2-16.8-45.9,4.6-29.3,8-58.8,12.7-88.1,2.3-14.5.4-25.9-11.2-36.9-21.5-20.4-40.8-43.2-61.6-64.3-14.1-14.3-22.3-30.2-15.8-50.3,6.8-21.2,24-28.4,44.5-31.6,28.6-4.4,57-10.9,85.7-14.5,14.5-1.8,21.4-9.1,27.5-20.9,14.2-27.6,29.6-54.6,44.2-82,8.8-16.4,21.2-27.3,40.6-27.5,20.2-.2,33.1,11,42.1,28.3,14.6,28.2,29,56.5,45,83.8,4.2,7.1,13.4,13.7,21.5,15.5,31.6,7.1,63.7,11.9,95.5,18,26.7,5.1,41.2,20.9,44.6,45.9ZM665.3,435c-3.6-27.9-6.2-50.4-9.5-72.8q-9.9-67.2,36.8-115.3c10.1-10.4,20.3-20.7,30.3-31.2,6.3-6.6,12.5-13.4,20.5-22.1-41.3-7.9-78.3-16-115.7-21.5-18-2.7-27.9-11.1-35.7-26.7-16.5-32.9-34.4-65.1-53.5-100.9-19.8,36.3-38.5,68.4-54.8,101.6-9,18.3-21.9,26-41.3,28.8-35.2,5-70.1,11.9-108.3,18.6,6.4,7.3,10.5,12.5,15,17.3,22.2,23.6,44.2,47.5,67,70.5,10.6,10.7,14.7,21.4,12,36.9-6.3,37.2-10.5,74.7-16.1,116.3,9.8-4.4,15.9-7,21.9-9.9,28.7-13.5,57.6-26.6,85.8-41,14.3-7.3,26.7-7.4,41,0,32.9,17,66.4,32.7,104.7,51.3Z"/>
  <path class="cls-1" d="M370,594.5c-8.2,5.1-16.1,13.6-24.7,14.5-12.4,1.3-21.5-9-18.1-21.1,2.1-7.6,12.6-17.9,19.3-17.9,7.9,0,15.8,9.8,23.7,15.4,0,3.1-.2,6.1-.3,9.2Z"/>
</svg>