<?xml version="1.0" encoding="UTF-8"?>
<svg id="Capa_1" data-name="Capa 1" xmlns="http://www.w3.org/2000/svg" version="1.1" viewBox="0 0 1080 1080">
  <defs>
    <style>
      .cls-1 {
        fill: #fdfdfd;
        stroke-width: 0px;
      }
    </style>
  </defs>
  <path class="cls-1" d="M1044.1,528.3l-101.9-173.3c-2.6-4.4-6.8-7.6-11.7-8.9-5-1.3-10.2-.6-14.6,2l-195.6,115c-9.2,5.4-12.2,17.2-6.8,26.3l118.9,202.3h-125v-96.8c0-8.8-6-16.5-14.5-18.6-8.6-2.2-17.4,1.7-21.6,9.4l-125.7,229.5c-3.2,5.8-3.2,12.7,0,18.5l125.7,229.4c3.4,6.3,10,10,16.9,10s3.2-.2,4.8-.6c8.5-2.2,14.5-9.9,14.5-18.6v-96.8h127.4c18.2,0,34.8-9.2,44.4-24.7l129.7-208.8c58.1-47.3,73.4-130.4,35.3-195.3ZM756.3,486.5l162.5-95.5,92.1,156.8c28,47.7,17.2,108.3-24.3,144h-109.7l-120.6-205.2ZM846.4,912.1c-2.5,4-7,6.5-11.7,6.5h-146.7c-10.6,0-19.2,8.6-19.2,19.2v40.9l-84.6-154.3,84.6-154.4v40.9c0,10.6,8.6,19.2,19.2,19.2h271.4l-113,181.9Z"/>
  <path class="cls-1" d="M507.9,693.8h-234.6c0,0,63.4-107.8,63.4-107.8l83.4,49.1c7.6,4.4,17.2,3.2,23.4-3,6.2-6.2,7.4-15.9,2.9-23.4l-134.1-224.8c-3.4-5.6-9.4-9.2-15.9-9.4l-261.5-7.9c-9-.6-16.6,5.4-19.1,13.9-2.4,8.4,1.2,17.5,8.7,21.9l83.4,49.1-64.6,109.8c-9.2,15.7-9.7,34.7-1.2,50.8l114.2,217.7c11.3,74,75.2,129.4,150.5,129.4h201.1c5.1,0,10-2,13.6-5.5,3.6-3.6,5.6-8.5,5.6-13.6v-226.9c0-10.6-8.5-19.2-19.1-19.2ZM76.4,580.7l74.4-126.4c5.4-9.1,2.3-20.9-6.8-26.3l-35.3-20.8,175.9,5.3,90.2,151.2-35.2-20.7c-9.1-5.4-20.9-2.3-26.3,6.8l-137.6,233.9-99.5-189.7c-2.2-4.2-2.1-9.3.3-13.4ZM488.6,920.7h-181.8c-55.3,0-102.1-40.2-111.7-94.1l55.6-94.5h238c0,0,0,188.6,0,188.6Z"/>
  <path class="cls-1" d="M810.9,351.2l128.8-227.7c4.3-7.7,2.9-17.2-3.4-23.3-6.3-6.1-16-7.1-23.4-2.5l-82.3,50.9-67.1-108.4c-9.6-15.4-26.1-24.7-44.3-24.7l-245.8-.3c-70.8-24.5-149.5,6.3-184.6,72.8l-93.7,177.9c-4.9,9.4-1.3,21,8,26l200.8,105.8c2.9,1.5,5.9,2.2,8.9,2.2,6.9,0,13.6-3.7,17-10.3l109.4-207.6,65.8,106.3-82.3,50.9c-7.5,4.6-10.9,13.7-8.2,22.1,2.5,8,10,13.5,18.3,13.5s.7,0,1,0l261.4-13.9c6.6-.3,12.5-4,15.7-9.7ZM404.7,354.8l-166.7-87.9,84.8-160.8c25.8-48.9,83.1-71.7,135.2-55.1l57.7,93.2-111,210.6ZM606.8,332.5l34.7-21.5c4.3-2.7,7.4-7,8.6-11.9,1.2-5,.3-10.2-2.4-14.5L504.9,53.8l214.2.3c4.8,0,9.2,2.5,11.7,6.5l77.2,124.7c5.6,9,17.4,11.8,26.5,6.2l34.8-21.5-86.7,153.1-175.8,9.4Z"/>
</svg>