<?xml version="1.0" encoding="UTF-8"?>
<svg xmlns="http://www.w3.org/2000/svg" xmlns:xlink="http://www.w3.org/1999/xlink" viewBox="0 0 474.15 450.05">
  <defs>
    <style>
      .cls-1 {
        fill: url(#linear-gradient);
      }

      .cls-1, .cls-2, .cls-3, .cls-4, .cls-5, .cls-6, .cls-7, .cls-8, .cls-9 {
        stroke-width: 0px;
      }

      .cls-10 {
        isolation: isolate;
      }

      .cls-2 {
        fill: #dd6900;
      }

      .cls-3 {
        fill: #f7f7f7;
      }

      .cls-4 {
        fill: url(#Degradado_sin_nombre_9);
      }

      .cls-4, .cls-5, .cls-7 {
        mix-blend-mode: multiply;
        opacity: .5;
      }

      .cls-5 {
        fill: url(#radial-gradient-3);
      }

      .cls-6 {
        fill: url(#radial-gradient-2);
      }

      .cls-7 {
        fill: url(#radial-gradient);
      }

      .cls-8 {
        fill: url(#Degradado_sin_nombre_6);
      }

      .cls-9 {
        fill: url(#radial-gradient-4);
      }
    </style>
    <radialGradient id="radial-gradient" cx="194.71" cy="195.37" fx="194.71" fy="195.37" r="192.89" gradientUnits="userSpaceOnUse">
      <stop offset="0" stop-color="#ffd73d"/>
      <stop offset=".26" stop-color="#ffe47e"/>
      <stop offset=".51" stop-color="#ffefb5"/>
      <stop offset=".73" stop-color="#fff8dd"/>
      <stop offset=".9" stop-color="#fffdf6"/>
      <stop offset="1" stop-color="#fff"/>
    </radialGradient>
    <radialGradient id="radial-gradient-2" cx="194.71" cy="195.37" fx="194.71" fy="195.37" r="163.13" gradientUnits="userSpaceOnUse">
      <stop offset="0" stop-color="#fff"/>
      <stop offset=".75" stop-color="#fdfdfd"/>
      <stop offset="1" stop-color="#f7f7f7"/>
    </radialGradient>
    <radialGradient id="radial-gradient-3" cx="194.71" cy="263.02" fx="194.71" fy="263.02" r="187.02" gradientUnits="userSpaceOnUse">
      <stop offset="0" stop-color="#000"/>
      <stop offset=".16" stop-color="#3c3c3c"/>
      <stop offset=".32" stop-color="#777"/>
      <stop offset=".49" stop-color="#a7a7a7"/>
      <stop offset=".64" stop-color="#cdcdcd"/>
      <stop offset=".78" stop-color="#e8e8e8"/>
      <stop offset=".9" stop-color="#f9f9f9"/>
      <stop offset="1" stop-color="#fff"/>
    </radialGradient>
    <radialGradient id="Degradado_sin_nombre_9" data-name="Degradado sin nombre 9" cx="194.71" cy="394.59" fx="194.71" fy="394.59" r="156.48" gradientTransform="translate(0 -178.84) scale(1 .98)" gradientUnits="userSpaceOnUse">
      <stop offset="0" stop-color="#dd6900"/>
      <stop offset="1" stop-color="#fff"/>
    </radialGradient>
    <linearGradient id="Degradado_sin_nombre_6" data-name="Degradado sin nombre 6" x1="194.71" y1="67.58" x2="194.71" y2="323.15" gradientUnits="userSpaceOnUse">
      <stop offset="0" stop-color="#fff"/>
      <stop offset=".12" stop-color="#fefcfa"/>
      <stop offset=".25" stop-color="#fcf5ee"/>
      <stop offset=".37" stop-color="#fae9d9"/>
      <stop offset=".5" stop-color="#f6d7bc"/>
      <stop offset=".63" stop-color="#f1c196"/>
      <stop offset=".76" stop-color="#eba669"/>
      <stop offset=".89" stop-color="#e38733"/>
      <stop offset="1" stop-color="#dd6900"/>
    </linearGradient>
    <linearGradient id="linear-gradient" x1="194.71" y1="71.84" x2="194.71" y2="318.89" gradientUnits="userSpaceOnUse">
      <stop offset="0" stop-color="#fff"/>
      <stop offset=".28" stop-color="#fafafa"/>
      <stop offset=".58" stop-color="#eee"/>
      <stop offset=".88" stop-color="#d9d9d9"/>
      <stop offset="1" stop-color="#cfcfcf"/>
    </linearGradient>
    <radialGradient id="radial-gradient-4" cx="387.1" cy="194.71" fx="387.1" fy="194.71" r="15.39" gradientUnits="userSpaceOnUse">
      <stop offset="0" stop-color="#fff"/>
      <stop offset=".65" stop-color="#fdfdfd"/>
      <stop offset=".88" stop-color="#f6f6f6"/>
      <stop offset="1" stop-color="#efefef"/>
    </radialGradient>
  </defs>
  <g class="cls-10">
    <g id="Capa_2" data-name="Capa 2">
      <g id="Capa_1-2" data-name="Capa 1">
        <g id="template">
          <g>
            <g>
              <circle class="cls-7" cx="194.71" cy="195.37" r="192.89"/>
              <circle class="cls-6" cx="194.71" cy="195.37" r="163.13"/>
              <circle class="cls-5" cx="194.71" cy="263.02" r="187.02"/>
              <circle class="cls-4" cx="194.71" cy="207.86" r="156.48"/>
              <path class="cls-8" d="M315.26,152.91c-5.5-15.58-13.86-29.78-24.85-42.21-11-12.43-24.07-22.46-38.87-29.81-15.32-7.61-31.82-12.01-49.03-13.06-17.22-1.05-34.13,1.3-50.26,6.99-15.58,5.5-29.78,13.86-42.21,24.85-12.43,11-22.46,24.07-29.81,38.87-7.61,15.32-12.01,31.82-13.06,49.03-1.05,17.22,1.3,34.13,6.99,50.26,5.5,15.58,13.86,29.78,24.85,42.21,11,12.43,24.07,22.46,38.87,29.81,15.32,7.61,31.82,12.01,49.03,13.06,2.67.17,5.33.25,7.98.25,14.46,0,28.65-2.42,42.28-7.23,15.58-5.5,29.78-13.86,42.21-24.85,12.43-11,22.46-24.07,29.81-38.87,7.61-15.32,12.01-31.82,13.06-49.03,1.05-17.22-1.3-34.13-6.99-50.26ZM317.95,202.9c-4.16,67.96-62.84,119.87-130.78,115.7-32.92-2.01-63.09-16.73-84.94-41.43-21.85-24.7-32.78-56.43-30.77-89.35,2.02-32.92,16.73-63.09,41.43-84.94,22.77-20.14,51.51-31.01,81.65-31.01,2.56,0,5.13.08,7.71.24,67.96,4.16,119.86,62.83,115.71,130.78Z"/>
              <path class="cls-1" d="M311.24,154.32c-5.31-15.06-13.4-28.79-24.02-40.8-10.63-12.02-23.27-21.71-37.57-28.82-14.81-7.36-30.76-11.61-47.4-12.63-16.64-1.02-32.99,1.26-48.58,6.76-15.06,5.31-28.79,13.39-40.8,24.02-12.02,10.63-21.71,23.27-28.82,37.57-7.36,14.81-11.61,30.76-12.63,47.4-1.02,16.64,1.26,32.99,6.76,48.59,5.31,15.06,13.39,28.79,24.02,40.8,10.63,12.02,23.27,21.71,37.57,28.82,14.81,7.36,30.76,11.61,47.4,12.62,2.58.16,5.15.24,7.71.24,13.98,0,27.7-2.35,40.87-6.99,15.06-5.31,28.79-13.39,40.8-24.02,12.02-10.63,21.71-23.27,28.82-37.57,7.36-14.81,11.61-30.76,12.63-47.4,1.02-16.64-1.26-32.99-6.76-48.59ZM313.84,202.65c-4.02,65.69-60.74,115.87-126.42,111.85-31.82-1.95-60.98-16.17-82.11-40.05-21.13-23.88-31.69-54.55-29.74-86.37,1.95-31.82,16.17-60.98,40.05-82.11,22.01-19.47,49.79-29.97,78.93-29.97,2.47,0,4.96.08,7.45.23,65.69,4.02,115.87,60.73,111.85,126.42Z"/>
              <circle class="cls-3" cx="194.71" cy="195.37" r="119.36"/>
            </g>
            <g>
              <g>
                <path class="cls-9" d="M387.1,210.1c-8.49,0-15.39-6.9-15.39-15.39s6.9-15.39,15.39-15.39,15.39,6.9,15.39,15.39-6.9,15.39-15.39,15.39Z"/>
                <circle class="cls-2" cx="387.1" cy="194.71" r="7.7"/>
              </g>
              <g>
                <rect class="cls-2" x="411.65" y="192.4" width="62.5" height="4.62"/>
                <g>
                  <path class="cls-2" d="M24.48,279.4c-.57-1.14-1.95-1.61-3.1-1.04-1.14.57-1.61,1.95-1.04,3.1l.17.35c.41.81,1.22,1.27,2.07,1.27.35,0,.7-.08,1.03-.25,1.14-.57,1.6-1.96,1.03-3.1l-.17-.34Z"/>
                  <path class="cls-2" d="M42.96,309.21c-.77-1.02-2.22-1.22-3.23-.45-1.02.77-1.22,2.22-.45,3.23l.23.31c.45.6,1.14.91,1.84.91.49,0,.98-.15,1.39-.47,1.02-.77,1.22-2.22.44-3.23l-.23-.31Z"/>
                  <path class="cls-2" d="M33.03,294.74c-.67-1.09-2.09-1.42-3.18-.75-1.09.67-1.42,2.09-.75,3.18l.21.34c.44.7,1.19,1.09,1.96,1.09.42,0,.84-.11,1.22-.35,1.08-.67,1.41-2.1.74-3.18l-.2-.32Z"/>
                  <path class="cls-2" d="M17.39,263.35c-.46-1.19-1.8-1.78-2.99-1.32-1.19.46-1.78,1.8-1.32,2.99l.14.36c.36.91,1.23,1.47,2.15,1.47.28,0,.56-.05.84-.16,1.19-.46,1.78-1.8,1.31-2.99l-.14-.35Z"/>
                  <path class="cls-2" d="M54.18,322.71c-.86-.94-2.32-1.01-3.26-.15-.94.86-1.01,2.32-.15,3.26l.26.29c.46.5,1.08.75,1.7.75.56,0,1.12-.2,1.56-.61.94-.86,1.01-2.32.14-3.26l-.26-.28Z"/>
                  <path class="cls-2" d="M11.82,246.7c-.35-1.23-1.62-1.94-2.85-1.59-1.23.35-1.94,1.63-1.59,2.85l.11.37c.29,1.01,1.21,1.68,2.22,1.68.21,0,.42-.03.63-.09,1.23-.35,1.94-1.63,1.59-2.85l-.11-.37Z"/>
                  <path class="cls-2" d="M5.45,212.6l-.04-.38c-.12-1.27-1.24-2.21-2.51-2.09-1.27.12-2.21,1.24-2.09,2.51l.04.39c.11,1.2,1.12,2.1,2.3,2.1.07,0,.14,0,.22,0,1.27-.12,2.2-1.24,2.09-2.51Z"/>
                  <path class="cls-2" d="M7.89,229.99l-.07-.38c-.23-1.25-1.44-2.08-2.69-1.85-1.25.23-2.08,1.44-1.85,2.69l.07.38c.21,1.11,1.18,1.88,2.27,1.88.14,0,.28-.01.43-.04,1.25-.23,2.08-1.44,1.85-2.69Z"/>
                  <path class="cls-2" d="M160.05,381.64l-.37-.07c-1.25-.24-2.46.59-2.69,1.85-.23,1.25.59,2.46,1.85,2.69l.39.07c.14.03.28.04.42.04,1.09,0,2.06-.78,2.27-1.89.23-1.25-.6-2.46-1.85-2.69Z"/>
                  <path class="cls-2" d="M142.96,377.67l-.37-.11c-1.23-.35-2.5.36-2.85,1.59-.35,1.23.36,2.5,1.59,2.85l.37.11c.21.06.42.09.63.09,1.01,0,1.93-.66,2.22-1.68.35-1.23-.36-2.5-1.59-2.85Z"/>
                  <path class="cls-2" d="M126.3,372.11l-.35-.14c-1.19-.46-2.53.12-2.99,1.31-.46,1.19.12,2.53,1.31,2.99l.37.14c.27.11.55.16.83.16.93,0,1.8-.56,2.15-1.48.46-1.19-.13-2.53-1.32-2.99Z"/>
                  <path class="cls-2" d="M177.44,384.02l-.38-.03c-1.27-.11-2.39.82-2.51,2.09-.12,1.27.82,2.39,2.09,2.51l.39.03c.07,0,.14,0,.21,0,1.18,0,2.19-.9,2.3-2.1.12-1.27-.82-2.39-2.09-2.51Z"/>
                  <path class="cls-2" d="M80.39,346.6l-.31-.23c-1.02-.77-2.47-.57-3.23.45-.77,1.02-.57,2.46.45,3.23l.31.23c.42.31.91.47,1.39.47.7,0,1.39-.32,1.84-.92.77-1.02.57-2.47-.45-3.23Z"/>
                  <path class="cls-2" d="M66.59,335.13c-.94-.86-2.4-.79-3.26.15-.86.94-.79,2.4.15,3.26l.29.26c.44.4,1,.6,1.55.6.63,0,1.25-.25,1.71-.75.86-.94.79-2.4-.15-3.26l-.29-.26Z"/>
                  <path class="cls-2" d="M94.89,356.51l-.33-.2c-1.08-.67-2.51-.34-3.18.74-.67,1.08-.34,2.51.74,3.18l.33.2c.38.23.8.35,1.21.35.77,0,1.53-.39,1.96-1.09.67-1.08.34-2.51-.75-3.18Z"/>
                  <path class="cls-2" d="M110.23,365.04l-.34-.17c-1.14-.57-2.53-.11-3.1,1.03-.57,1.14-.11,2.53,1.03,3.1l.35.18c.33.16.68.24,1.03.24.85,0,1.67-.47,2.07-1.28.57-1.14.1-2.53-1.04-3.09Z"/>
                  <path class="cls-2" d="M387.64,168.35c-6.22-45.93-28.74-88.17-63.56-119.15C288.42,17.47,242.48,0,194.71,0c-26.28,0-51.78,5.15-75.79,15.3-23.19,9.81-44.01,23.85-61.89,41.73-17.88,17.88-31.92,38.7-41.73,61.89C5.15,142.92,0,168.42,0,194.71c0,1.28,1.03,2.31,2.31,2.31s2.31-1.03,2.31-2.31C4.62,89.89,89.89,4.62,194.71,4.62c95.75,0,176.84,71.54,188.62,166.4l.27,2.2,2.21-.18c.59-.05,1.19-.07,1.79-.07,11.99,0,21.74,9.75,21.74,21.74s-9.75,21.74-21.74,21.74c-.6,0-1.2-.02-1.79-.07l-2.21-.18-.27,2.2c-11.79,94.87-92.88,166.4-188.62,166.4-1.27,0-2.31,1.03-2.31,2.31s1.03,2.31,2.31,2.31c47.77,0,93.72-17.47,129.37-49.19,34.83-30.99,57.34-73.23,63.56-119.16,14.52-.02,26.32-11.84,26.32-26.36s-11.8-26.34-26.32-26.36Z"/>
                </g>
              </g>
            </g>
          </g>
        </g>
      </g>
    </g>
  </g>
</svg>