<?xml version="1.0" encoding="UTF-8"?>
<svg xmlns="http://www.w3.org/2000/svg" xmlns:xlink="http://www.w3.org/1999/xlink" viewBox="0 0 413.46 450.05">
  <defs>
    <style>
      .cls-1 {
        fill: url(#linear-gradient);
      }

      .cls-1, .cls-2, .cls-3, .cls-4, .cls-5, .cls-6, .cls-7, .cls-8, .cls-9 {
        stroke-width: 0px;
      }

      .cls-2 {
        fill: #002075;
      }

      .cls-10 {
        isolation: isolate;
      }

      .cls-3 {
        fill: #f7f7f7;
      }

      .cls-4 {
        fill: url(#Degradado_sin_nombre_2);
      }

      .cls-4, .cls-5, .cls-8 {
        mix-blend-mode: multiply;
        opacity: .5;
      }

      .cls-5 {
        fill: url(#radial-gradient-3);
      }

      .cls-6 {
        fill: url(#radial-gradient-2);
      }

      .cls-7 {
        fill: url(#Degradado_sin_nombre_5);
      }

      .cls-8 {
        fill: url(#radial-gradient);
      }

      .cls-9 {
        fill: url(#radial-gradient-4);
      }
    </style>
    <radialGradient id="radial-gradient" cx="218.75" cy="195.37" fx="218.75" fy="195.37" r="192.89" gradientUnits="userSpaceOnUse">
      <stop offset="0" stop-color="#01b8e0"/>
      <stop offset=".17" stop-color="#39c7e6"/>
      <stop offset=".4" stop-color="#7edbef"/>
      <stop offset=".6" stop-color="#b5eaf6"/>
      <stop offset=".78" stop-color="#ddf5fa"/>
      <stop offset=".91" stop-color="#f6fcfd"/>
      <stop offset="1" stop-color="#fff"/>
    </radialGradient>
    <radialGradient id="radial-gradient-2" cx="218.75" cy="195.37" fx="218.75" fy="195.37" r="163.13" gradientUnits="userSpaceOnUse">
      <stop offset="0" stop-color="#fff"/>
      <stop offset=".75" stop-color="#fdfdfd"/>
      <stop offset="1" stop-color="#f7f7f7"/>
    </radialGradient>
    <radialGradient id="radial-gradient-3" cx="218.75" cy="263.02" fx="218.75" fy="263.02" r="187.02" gradientUnits="userSpaceOnUse">
      <stop offset="0" stop-color="#000"/>
      <stop offset=".16" stop-color="#3c3c3c"/>
      <stop offset=".32" stop-color="#777"/>
      <stop offset=".49" stop-color="#a7a7a7"/>
      <stop offset=".64" stop-color="#cdcdcd"/>
      <stop offset=".78" stop-color="#e8e8e8"/>
      <stop offset=".9" stop-color="#f9f9f9"/>
      <stop offset="1" stop-color="#fff"/>
    </radialGradient>
    <radialGradient id="Degradado_sin_nombre_2" data-name="Degradado sin nombre 2" cx="218.75" cy="394.59" fx="218.75" fy="394.59" r="156.48" gradientTransform="translate(0 -178.84) scale(1 .98)" gradientUnits="userSpaceOnUse">
      <stop offset="0" stop-color="#002075"/>
      <stop offset="1" stop-color="#fff"/>
    </radialGradient>
    <linearGradient id="Degradado_sin_nombre_5" data-name="Degradado sin nombre 5" x1="218.75" y1="67.58" x2="218.75" y2="323.15" gradientUnits="userSpaceOnUse">
      <stop offset="0" stop-color="#fff"/>
      <stop offset=".12" stop-color="#fafbfc"/>
      <stop offset=".25" stop-color="#eef0f6"/>
      <stop offset=".37" stop-color="#d9deea"/>
      <stop offset=".5" stop-color="#bcc4db"/>
      <stop offset=".63" stop-color="#96a4c6"/>
      <stop offset=".76" stop-color="#697bad"/>
      <stop offset=".89" stop-color="#334d91"/>
      <stop offset="1" stop-color="#002075"/>
    </linearGradient>
    <linearGradient id="linear-gradient" x1="218.75" y1="71.84" x2="218.75" y2="318.89" gradientUnits="userSpaceOnUse">
      <stop offset="0" stop-color="#fff"/>
      <stop offset=".28" stop-color="#fafafa"/>
      <stop offset=".58" stop-color="#eee"/>
      <stop offset=".88" stop-color="#d9d9d9"/>
      <stop offset="1" stop-color="#cfcfcf"/>
    </linearGradient>
    <radialGradient id="radial-gradient-4" cx="25.86" cy="194.9" fx="25.86" fy="194.9" r="15.39" gradientUnits="userSpaceOnUse">
      <stop offset="0" stop-color="#fff"/>
      <stop offset=".65" stop-color="#fdfdfd"/>
      <stop offset=".88" stop-color="#f6f6f6"/>
      <stop offset="1" stop-color="#efefef"/>
    </radialGradient>
  </defs>
  <g class="cls-10">
    <g id="Capa_2" data-name="Capa 2">
      <g id="Capa_1-2" data-name="Capa 1">
        <g id="template">
          <g>
            <g>
              <circle class="cls-8" cx="218.75" cy="195.37" r="192.89"/>
              <circle class="cls-6" cx="218.75" cy="195.37" r="163.13"/>
              <circle class="cls-5" cx="218.75" cy="263.02" r="187.02"/>
              <circle class="cls-4" cx="218.75" cy="207.86" r="156.48"/>
              <path class="cls-7" d="M339.31,152.91c-5.5-15.58-13.86-29.78-24.85-42.21-11-12.43-24.07-22.46-38.87-29.81-15.32-7.61-31.82-12.01-49.03-13.06-17.22-1.05-34.13,1.3-50.26,6.99-15.58,5.5-29.78,13.86-42.21,24.85-12.43,11-22.46,24.07-29.81,38.87-7.61,15.32-12.01,31.82-13.06,49.03-1.05,17.22,1.3,34.13,6.99,50.26,5.5,15.58,13.86,29.78,24.85,42.21,11,12.43,24.07,22.46,38.87,29.81,15.32,7.61,31.82,12.01,49.03,13.06,2.67.17,5.33.25,7.98.25,14.46,0,28.65-2.42,42.28-7.23,15.58-5.5,29.78-13.86,42.21-24.85,12.43-11,22.46-24.07,29.81-38.87,7.61-15.32,12.01-31.82,13.06-49.03,1.05-17.22-1.3-34.13-6.99-50.26ZM342,202.9c-4.16,67.96-62.84,119.87-130.78,115.7-32.92-2.01-63.09-16.73-84.94-41.43-21.85-24.7-32.78-56.43-30.77-89.35,2.02-32.92,16.73-63.09,41.43-84.94,22.77-20.14,51.51-31.01,81.65-31.01,2.56,0,5.13.08,7.71.24,67.96,4.16,119.86,62.83,115.71,130.78Z"/>
              <path class="cls-1" d="M335.29,154.32c-5.31-15.06-13.4-28.79-24.02-40.8-10.63-12.02-23.27-21.71-37.57-28.82-14.81-7.36-30.76-11.61-47.4-12.63-16.64-1.02-32.99,1.26-48.58,6.76-15.06,5.31-28.79,13.39-40.8,24.02-12.02,10.63-21.71,23.27-28.82,37.57-7.36,14.81-11.61,30.76-12.63,47.4-1.02,16.64,1.26,32.99,6.76,48.59,5.31,15.06,13.39,28.79,24.02,40.8,10.63,12.02,23.27,21.71,37.57,28.82,14.81,7.36,30.76,11.61,47.4,12.62,2.58.16,5.15.24,7.71.24,13.98,0,27.7-2.35,40.87-6.99,15.06-5.31,28.79-13.39,40.8-24.02,12.02-10.63,21.71-23.27,28.82-37.57,7.36-14.81,11.61-30.76,12.63-47.4,1.02-16.64-1.26-32.99-6.76-48.59ZM337.89,202.65c-4.02,65.69-60.74,115.87-126.42,111.85-31.82-1.95-60.98-16.17-82.11-40.05-21.13-23.88-31.69-54.55-29.74-86.37,1.95-31.82,16.17-60.98,40.05-82.11,22.01-19.47,49.79-29.97,78.93-29.97,2.47,0,4.96.08,7.45.23,65.69,4.02,115.87,60.73,111.85,126.42Z"/>
              <circle class="cls-3" cx="218.75" cy="195.37" r="119.36"/>
            </g>
            <g>
              <g>
                <path class="cls-9" d="M25.86,210.29c-8.49,0-15.39-6.9-15.39-15.39s6.9-15.39,15.39-15.39,15.39,6.9,15.39,15.39-6.9,15.39-15.39,15.39Z"/>
                <circle class="cls-2" cx="25.86" cy="194.9" r="7.7"/>
              </g>
              <g>
                <path class="cls-2" d="M396.16,126.3c.35.92,1.23,1.48,2.15,1.48.28,0,.56-.05.83-.16,1.19-.46,1.78-1.8,1.32-2.99l-.14-.37c-.46-1.19-1.8-1.77-2.99-1.31-1.19.46-1.78,1.8-1.31,2.99l.14.35Z"/>
                <path class="cls-2" d="M389.09,110.23c.4.81,1.22,1.28,2.07,1.28.34,0,.7-.08,1.03-.24,1.14-.57,1.61-1.95,1.04-3.09l-.18-.35c-.57-1.14-1.96-1.6-3.1-1.03-1.14.57-1.6,1.96-1.03,3.1l.17.34Z"/>
                <path class="cls-2" d="M380.56,94.89c.44.7,1.19,1.09,1.96,1.09.42,0,.84-.11,1.21-.35,1.08-.67,1.42-2.09.75-3.18l-.2-.33c-.67-1.08-2.1-1.42-3.18-.74-1.08.67-1.42,2.1-.74,3.18l.2.33Z"/>
                <path class="cls-2" d="M359.44,66.87c.46.5,1.08.75,1.71.75.55,0,1.11-.2,1.55-.6.94-.86,1.01-2.32.15-3.26l-.26-.29c-.86-.94-2.32-1.01-3.26-.15-.94.86-1.01,2.32-.15,3.26l.26.29Z"/>
                <path class="cls-2" d="M370.64,80.39c.45.6,1.14.92,1.84.92.48,0,.97-.15,1.39-.47,1.02-.77,1.22-2.22.45-3.23l-.23-.31c-.77-1.02-2.22-1.22-3.23-.45-1.02.77-1.22,2.22-.45,3.23l.23.31Z"/>
                <path class="cls-2" d="M408.04,177.06l.03.38c.11,1.2,1.12,2.1,2.3,2.1.07,0,.14,0,.21,0,1.27-.12,2.21-1.24,2.09-2.51l-.03-.39c-.12-1.27-1.24-2.2-2.51-2.09-1.27.12-2.21,1.24-2.09,2.51Z"/>
                <path class="cls-2" d="M405.62,159.68l.07.37c.2,1.11,1.18,1.89,2.27,1.89.14,0,.28-.01.42-.04,1.25-.23,2.08-1.43,1.85-2.69l-.07-.39c-.23-1.25-1.44-2.08-2.69-1.85-1.25.23-2.08,1.44-1.85,2.69Z"/>
                <path class="cls-2" d="M401.71,142.96c.29,1.02,1.21,1.68,2.22,1.68.21,0,.42-.03.63-.09,1.23-.35,1.94-1.62,1.59-2.85l-.11-.37c-.35-1.23-1.63-1.94-2.85-1.59-1.23.35-1.94,1.63-1.59,2.85l.11.37Z"/>
                <path class="cls-2" d="M253.66,7.81l.38.07c.14.03.29.04.43.04,1.09,0,2.06-.77,2.27-1.88.23-1.25-.59-2.46-1.85-2.69l-.38-.07c-1.25-.23-2.46.6-2.69,1.85s.6,2.46,1.85,2.69Z"/>
                <path class="cls-2" d="M287.4,17.39l.35.14c.28.11.56.16.84.16.92,0,1.8-.56,2.15-1.47.46-1.19-.12-2.53-1.31-2.99l-.36-.14c-1.19-.46-2.53.13-2.99,1.32-.46,1.19.13,2.53,1.32,2.99Z"/>
                <path class="cls-2" d="M347.05,54.44c.44.41,1,.61,1.56.61.63,0,1.25-.25,1.7-.75.86-.94.8-2.4-.14-3.26l-.29-.26c-.94-.86-2.4-.79-3.26.15-.86.94-.79,2.4.15,3.26l.28.26Z"/>
                <path class="cls-2" d="M236.27,5.41l.38.04c.07,0,.14,0,.22,0,1.18,0,2.19-.9,2.3-2.1.12-1.27-.82-2.39-2.09-2.51l-.39-.04c-1.27-.12-2.39.82-2.51,2.09-.12,1.27.82,2.39,2.09,2.51Z"/>
                <path class="cls-2" d="M270.75,11.82l.37.11c.21.06.42.09.63.09,1.01,0,1.93-.66,2.22-1.68.35-1.23-.36-2.5-1.59-2.85l-.37-.11c-1.23-.35-2.5.36-2.85,1.59-.35,1.23.36,2.5,1.59,2.85Z"/>
                <path class="cls-2" d="M333.26,42.96l.31.23c.42.32.91.47,1.39.47.7,0,1.39-.32,1.84-.91.77-1.02.57-2.46-.44-3.23l-.31-.23c-1.02-.77-2.47-.57-3.23.45-.77,1.02-.57,2.46.45,3.23Z"/>
                <path class="cls-2" d="M303.45,24.48l.34.17c.33.17.69.25,1.03.25.85,0,1.66-.47,2.07-1.27.57-1.14.11-2.53-1.03-3.1l-.35-.17c-1.14-.57-2.53-.1-3.1,1.04-.57,1.14-.1,2.53,1.04,3.1Z"/>
                <path class="cls-2" d="M318.79,33.03l.32.2c.38.24.8.35,1.22.35.77,0,1.52-.39,1.96-1.09.68-1.08.35-2.51-.74-3.18l-.34-.21c-1.09-.67-2.51-.33-3.18.75-.67,1.09-.33,2.51.75,3.18Z"/>
                <path class="cls-2" d="M411.15,192.4c-1.28,0-2.31,1.03-2.31,2.31,0,104.82-85.27,190.09-190.09,190.09-95.73,0-176.82-71.52-188.62-166.37l-.27-2.15-2.17.14c-.45.03-.89.04-1.34.04-11.99,0-21.74-9.75-21.74-21.74s9.75-21.74,21.74-21.74c.45,0,.89.01,1.34.04l2.17.14.27-2.15C41.94,76.14,123.03,4.62,218.76,4.62c1.27,0,2.31-1.03,2.31-2.31s-1.03-2.31-2.31-2.31c-47.77,0-93.71,17.47-129.36,49.18-34.83,30.99-57.36,73.24-63.58,119.17-14.29.29-25.82,12-25.82,26.35s11.53,26.06,25.82,26.35c6.22,45.93,28.74,88.18,63.58,119.17,35.65,31.72,81.59,49.18,129.36,49.18,26.28,0,51.78-5.15,75.79-15.3,23.19-9.81,44.01-23.85,61.89-41.73,17.88-17.88,31.92-38.7,41.73-61.89,10.15-24.01,15.3-49.5,15.3-75.79,0-1.28-1.03-2.31-2.31-2.31Z"/>
              </g>
            </g>
          </g>
        </g>
      </g>
    </g>
  </g>
</svg>