<?xml version="1.0" encoding="UTF-8"?>
<svg id="Capa_1" data-name="Capa 1" xmlns="http://www.w3.org/2000/svg" version="1.1" viewBox="0 0 1080 1080">
  <defs>
    <style>
      .cls-1 {
        fill: #0a1149;
        stroke-width: 0px;
      }
    </style>
  </defs>
  <path class="cls-1" d="M818.4,486.7c20.1-2.9,29.7,6.3,37.3,21.2,13.5,26.2,36.1,39.8,65.4,42.3,21.1,1.8,28.7,9.2,28.4,30.2-.7,56,3.6,112.7-4,167.8-13.8,100.1-73.4,166.6-169,199.6-8.1,2.8-19.3,1.6-27.6-1.5-93.2-35.1-148.6-101.8-165-200.4-1.1-6.8-2-13.7-3.3-22.5h-18.5c-131.8,0-263.6,0-395.4,0-30.5,0-36.9-6.3-36.9-36.1,0-131.3-.2-262.6.3-393.8,0-10.2,2.7-21.2,7.1-30.4,17.9-37.5,37.3-74.3,55.4-111.7,6.8-14.2,16.2-20.7,32.3-20.7,166,.3,331.9.3,497.9,0,16,0,25.6,5.9,32.5,20.3,18.5,38.4,38.3,76.2,56.8,114.6,3.8,7.8,5.9,17.2,6,25.9.5,58.7.3,117.4.3,176.1v19.2ZM581.3,674.5c0-33.3-.2-64.8,0-96.2.1-18.2,8.1-26.8,25.7-27.9,32.1-2,55.8-16.9,70-45.6,6.8-13.9,16.9-19.2,31.9-18.7,20,.7,40.1.2,59.9.2v-178.3h-222.8c0,43.5,0,86.1,0,128.6,0,21.8-8.3,30.3-29.6,30.5-28.3.2-56.6.2-84.8,0-21.3-.1-29.6-8.6-29.7-30.4-.1-37.9,0-75.8,0-113.6,0-5.1,0-10.2,0-15.1h-223v366.6h402.3ZM904.4,597.3c-38.5-9.1-66.2-27.3-86.3-57.1-2.3-3.4-8.8-5.5-13.3-5.6-26.1-.5-52.3-.5-78.4,0-4.6,0-11,2.2-13.3,5.6-20.2,29.7-47.8,48-83.4,56.4,0,40.3-1.6,80.4.3,120.2,4.1,84.5,45.4,144.8,123,179.2,7.2,3.2,18.1,3.1,25.4,0,61-25.6,104.1-70.3,115.7-135.2,9.6-53.5,7.4-109.1,10.4-163.5ZM193.6,257.8h207.6v-78.7c-54.5,0-108.2-.1-161.8.3-3.3,0-7.9,3.2-9.5,6.2-12.2,23.5-23.8,47.3-36.3,72.3ZM754.8,258.2c-11.7-23.6-23.1-45.7-33.6-68.2-3.9-8.5-9-11.3-18.2-11.2-48,.5-95.9.2-143.9.3-4,0-8.1.7-12,1.1v78h207.8ZM450.9,418.1h46.1v-109.8h-46.1v109.8ZM450.2,257.6h46.9v-77.4h-46.9v77.4Z"/>
  <path class="cls-1" d="M297.2,547.2c-14.9,0-29.9.3-44.8,0-15.9-.4-26.4-10.3-26.4-24,0-13.7,10.5-23.7,26.5-23.9,30.4-.3,60.8-.3,91.2,0,15.9.2,26.4,10.2,26.4,24,0,13.8-10.5,23.6-26.5,23.9-15.5.4-30.9,0-46.4,0Z"/>
  <path class="cls-1" d="M296.7,643.3c-14.9,0-29.9.3-44.8,0-15.7-.4-26.2-10.7-25.9-24.5.3-13.2,10.4-23.2,25.3-23.4,30.9-.4,61.9-.4,92.8,0,15.7.2,26.2,10.7,25.9,24.4-.3,13.8-10.7,23.2-26.9,23.5-15.5.3-30.9,0-46.4,0Z"/>
  <path class="cls-1" d="M741.9,731.4c25.1-25.4,47.5-48.1,70.1-70.7,13.3-13.3,27.1-14.9,37.8-4.8,11,10.4,9.7,25.2-4,38.9-27,27.2-54.1,54.3-81.3,81.3-16.2,16.1-27,16-43.5-.3-12.1-12-24.2-24-36.1-36.1-13-13.3-14.6-27.3-4.4-37.8,10.8-11.1,24.8-9.7,38.8,4.4,7.5,7.5,14.2,15.8,22.6,25.1Z"/>
</svg>