<?xml version="1.0" encoding="UTF-8"?>
<svg id="Capa_2" data-name="Capa 2" xmlns="http://www.w3.org/2000/svg" viewBox="0 0 507.98 132.31">
  <defs>
    <style>
      .cls-1 {
        fill: #fff;
        stroke-width: 0px;
      }
    </style>
  </defs>
  <g id="Capa_1-2" data-name="Capa 1">
    <g>
      <g>
        <path class="cls-1" d="M431.85,103.17c0,1.41-.19,2.79-.56,4.13s-1.11,2.65-2.19,3.92c.85,1.18,1.52,2.46,2.01,3.85.49,1.39.74,2.74.74,4.06,0,1.74-.32,3.39-.95,4.94-.63,1.55-1.53,2.94-2.68,4.16-1.15,1.22-2.53,2.21-4.13,2.96-1.6.75-3.36,1.13-5.29,1.13h-18.27v-10.02h18.27c.8,0,1.51-.29,2.12-.88.61-.59.92-1.33.92-2.22,0-.8-.31-1.51-.92-2.12-.61-.61-1.32-.92-2.12-.92h-18.27v-9.95h18.27c.8,0,1.51-.31,2.12-.92s.92-1.34.92-2.19-.31-1.58-.92-2.19c-.61-.61-1.32-.92-2.12-.92h-18.27v-9.88h18.27c1.93,0,3.69.35,5.29,1.06,1.6.71,2.97,1.67,4.13,2.89,1.15,1.22,2.05,2.62,2.68,4.2.63,1.58.95,3.21.95,4.9Z"/>
        <path class="cls-1" d="M454.28,89.2c3.01,0,5.82.56,8.43,1.69,2.61,1.13,4.89,2.67,6.84,4.62,1.95,1.95,3.49,4.23,4.62,6.84,1.13,2.61,1.69,5.42,1.69,8.43s-.56,5.75-1.69,8.36c-1.13,2.61-2.67,4.89-4.62,6.84s-4.23,3.49-6.84,4.62c-2.61,1.13-5.42,1.69-8.43,1.69s-5.75-.56-8.36-1.69c-2.61-1.13-4.89-2.67-6.84-4.62-1.95-1.95-3.49-4.23-4.62-6.84-1.13-2.61-1.69-5.4-1.69-8.36s.56-5.82,1.69-8.43c1.13-2.61,2.67-4.89,4.62-6.84,1.95-1.95,4.23-3.49,6.84-4.62,2.61-1.13,5.4-1.69,8.36-1.69ZM454.28,122.01c1.6,0,3.09-.29,4.48-.88,1.39-.58,2.59-1.39,3.6-2.42,1.01-1.03,1.82-2.22,2.43-3.58.61-1.36.92-2.8.92-4.35s-.31-3.07-.92-4.45c-.61-1.38-1.42-2.57-2.43-3.58-1.01-1.01-2.21-1.8-3.6-2.38-1.39-.58-2.88-.88-4.48-.88s-3.02.29-4.41.88c-1.39.58-2.59,1.38-3.6,2.38-1.01,1.01-1.82,2.2-2.43,3.58-.61,1.38-.92,2.86-.92,4.45s.31,2.99.92,4.35c.61,1.36,1.42,2.55,2.43,3.58,1.01,1.03,2.21,1.83,3.6,2.42,1.39.58,2.86.88,4.41.88Z"/>
        <path class="cls-1" d="M494.92,110.79l6.84,11.36,6.21,10.16h-11.92l-26.04-43.11h11.85l7.13,11.71,7.06-11.71h11.92l-13.05,21.59ZM481.24,113.89l6.07,9.74-5.43,8.68h-11.85l11.22-18.42Z"/>
      </g>
      <g>
        <g>
          <path class="cls-1" d="M206.76,105.3h-49.31v-24.4h40.61c4.78,0,8.53-3.75,8.53-8.53v-4.35c-.4,0-.26-.43-.08-.89-30.03.15-60.05,1.43-90.01,3.85v50.36c0,4.78,3.75,8.53,8.53,8.53h81.73c4.78,0,8.53-3.75,8.53-8.53v-7.51c0-4.78-3.75-8.53-8.53-8.53Z"/>
          <path class="cls-1" d="M44.25,79.03c11.54,5.89,20.93,11.34,20.93,18.98,0,5.97-5.97,9.73-12.12,9.73s-12.12-3.58-12.12-11.09v-3.92c0-4.78-3.75-8.53-8.53-8.53H9.08l-3.49.51c-3.29,1.18-5.59,4.28-5.59,8.02v.51c0,26.11,26.45,39.07,53.07,39.07s53.07-14.16,53.07-38.22c0-8.69-3.36-15.64-8.51-21.43-17.82,1.72-35.62,3.85-53.37,6.37Z"/>
          <path class="cls-1" d="M227.41,67.2v54.14c0,4.78,3.75,8.53,8.53,8.53h23.89c4.78,0,8.53-3.75,8.53-8.53v-49.83l24.4,53.07h.17c1.19,3.07,4.27,5.29,7.85,5.29h23.89c4.78,0,8.53-3.75,8.53-8.53v-48.12c-35.18-3.57-70.48-5.58-105.79-6.02Z"/>
          <path class="cls-1" d="M348.55,74.87v46.47c0,4.78,3.75,8.53,8.53,8.53h23.89c4.78,0,8.53-3.75,8.53-8.53v-40.99c-.93-.16-1.88-.32-2.82-.48-12.69-1.87-25.4-3.54-38.14-5Z"/>
        </g>
        <g>
          <path class="cls-1" d="M43.44,33.03c0-4.91,4.91-8.64,9.66-8.64s9.65,2.54,9.65,7.62v3.9c0,4.74,3.73,8.47,8.47,8.47h23.71c4.74,0,8.47-3.73,8.47-8.47v-.51C103.41,11.69,78.17,0,53.1,0S2.79,14.06,2.79,36.76c0,20.31,20.04,30.75,37.46,39.55,18.25-2.67,36.54-4.91,54.86-6.72-17.98-17.15-51.67-23.39-51.67-36.56Z"/>
          <path class="cls-1" d="M198.43,56.74h-40.31v-30.66h47.26c4.74,0,8.47-3.73,8.47-8.47v-7.45c0-4.74-3.73-8.47-8.47-8.47h-79.44c-4.74,0-8.47,3.73-8.47,8.47v57.42c29.72-2.38,59.51-3.65,89.31-3.8-.66-4.04-4.09-7.04-8.34-7.04Z"/>
          <path class="cls-1" d="M333.1,10.16c0-4.74-3.73-8.47-8.47-8.47h-23.71c-4.74,0-8.47,3.73-8.47,8.47v49.8l-24.05-52c-.34-1.02-.85-1.86-1.19-2.71-1.52-2.2-4.06-3.56-6.94-3.56h-23.71c-4.74,0-8.47,3.73-8.47,8.47v53.7c35.06.44,70.1,2.44,105.02,5.97V10.16Z"/>
          <path class="cls-1" d="M389.51,10.16c0-4.74-3.73-8.47-8.47-8.47h-23.71c-4.74,0-8.47,3.73-8.47,8.47v61.35c13.57,1.55,27.13,3.35,40.65,5.37V10.16Z"/>
        </g>
      </g>
    </g>
  </g>
</svg>