<?xml version="1.0" encoding="UTF-8"?>
<svg id="Capa_2" data-name="Capa 2" xmlns="http://www.w3.org/2000/svg" xmlns:xlink="http://www.w3.org/1999/xlink" viewBox="0 0 473.84 164.21">
  <defs>
    <style>
      .cls-1 {
        fill: #002075;
      }

      .cls-1, .cls-2, .cls-3, .cls-4 {
        stroke-width: 0px;
      }

      .cls-2, .cls-5 {
        fill: none;
      }

      .cls-3 {
        fill: #cb6103;
      }

      .cls-6 {
        clip-path: url(#clippath);
      }

      .cls-5 {
        stroke: #fff;
        stroke-miterlimit: 10;
        stroke-width: 5px;
      }

      .cls-4 {
        fill: #fff;
      }
    </style>
    <clipPath id="clippath">
      <rect class="cls-2" x="86.49" y="0" width="373.15" height="97.59"/>
    </clipPath>
  </defs>
  <g id="Capa_1-2" data-name="Capa 1">
    <g class="cls-6">
      <g>
        <path class="cls-1" d="M134.29,71.7c0-3.58-3.25-7.19-9.75-10.85-1.63-.98-4.35-2.44-8.17-4.39-9.75-4.88-16.46-9.02-20.12-12.44-5.37-5.04-8.09-10.69-8.17-16.95,0-8.45,4.23-15.28,12.68-20.48,7.07-4.39,15.2-6.58,24.39-6.58,11.54,0,20.85,2.76,27.92,8.29,6.01,4.71,9.06,10.65,9.14,17.8v.37c0,2.76-1.22,4.68-3.66,5.73-.9.33-1.75.49-2.56.49h-17.56c-2.76,0-4.68-1.22-5.73-3.66-.33-.89-.49-1.75-.49-2.56v-2.93c0-2.76-1.58-4.55-4.76-5.37-.81-.16-1.58-.24-2.32-.24-2.76,0-4.84,1.14-6.22,3.41-.57.98-.85,1.95-.85,2.93,0,3.17,3.09,6.46,9.27,9.88,1.54.9,4.06,2.24,7.56,4.02,9.92,4.88,16.83,9.1,20.73,12.68,5.61,5.28,8.45,11.3,8.54,18.04,0,8.86-4.43,15.97-13.29,21.34-7.32,4.39-15.81,6.58-25.48,6.58-11.95,0-21.62-2.93-29.02-8.78-6.5-5.2-9.8-11.79-9.88-19.75v-.37c0-2.76,1.22-4.67,3.66-5.73.89-.41,1.79-.61,2.68-.61h17.44c2.76,0,4.67,1.3,5.73,3.9.32.81.49,1.63.49,2.44v2.8c0,3.9,1.87,6.46,5.61,7.68,1.14.33,2.23.49,3.29.49,3.66,0,6.3-1.26,7.93-3.78.65-1.14.98-2.27.98-3.41Z"/>
        <path class="cls-1" d="M202.58,59.75v17.92h36.09c2.76,0,4.67,1.22,5.73,3.66.32.9.49,1.75.49,2.56v5.49c0,2.76-1.22,4.68-3.66,5.73-.81.33-1.67.49-2.56.49h-59.87c-2.76,0-4.68-1.22-5.73-3.66-.33-.89-.49-1.75-.49-2.56V7.44c0-2.76,1.22-4.67,3.66-5.73.89-.32,1.75-.49,2.56-.49h58.65c2.76,0,4.67,1.22,5.73,3.66.32.9.49,1.75.49,2.56v5.49c0,2.76-1.22,4.68-3.66,5.73-.9.33-1.75.49-2.56.49h-34.87v22.68h29.75c2.76,0,4.67,1.22,5.73,3.66.32.9.49,1.75.49,2.56v5.49c0,2.76-1.22,4.68-3.66,5.73-.81.33-1.67.49-2.56.49h-29.75Z"/>
        <path class="cls-1" d="M307.69,1.22h17.56c2.76,0,4.67,1.22,5.73,3.66.32.9.49,1.75.49,2.56v81.94c0,2.76-1.22,4.68-3.66,5.73-.81.33-1.67.49-2.56.49h-17.56c-2.68,0-4.55-1.22-5.61-3.66-.08-.08-.12-.16-.12-.24h-.12l-17.8-38.77v36.46c0,2.76-1.22,4.68-3.66,5.73-.81.33-1.67.49-2.56.49h-17.56c-2.76,0-4.68-1.22-5.73-3.66-.33-.89-.49-1.75-.49-2.56V7.44c0-2.76,1.22-4.67,3.66-5.73.89-.32,1.75-.49,2.56-.49h17.56c2.19.08,3.9.94,5.12,2.56.08.16.16.41.24.73.32.57.53,1.02.61,1.34l17.68,38.29V7.44c0-2.76,1.22-4.67,3.66-5.73.89-.32,1.75-.49,2.56-.49Z"/>
        <path class="cls-1" d="M349.28,1.22h17.56c2.76,0,4.67,1.22,5.73,3.66.32.9.49,1.75.49,2.56v81.94c0,2.76-1.22,4.68-3.66,5.73-.81.33-1.67.49-2.56.49h-17.56c-2.76,0-4.67-1.22-5.73-3.66-.33-.89-.49-1.75-.49-2.56V7.44c0-2.76,1.22-4.67,3.66-5.73.89-.32,1.75-.49,2.56-.49Z"/>
      </g>
      <path class="cls-4" d="M88.47,98.52l-3.77-37.67s146.92-21.53,161.45-4.84c0,0-2.15-18.3,129.16,4.84l1.61,35.52-288.46,2.15Z"/>
      <g>
        <path class="cls-2" d="M373.66,59.36v30.21c0,3.52-2.77,6.29-6.29,6.29h-17.61c-3.52,0-6.29-2.77-6.29-6.29v-34.64c-3.72-.46-7.49-.89-11.32-1.3v35.94c0,3.52-2.77,6.29-6.29,6.29h-17.61c-2.64,0-4.91-1.64-5.79-3.9h-.13l-17.99-39.12v36.73c0,3.52-2.77,6.29-6.29,6.29h-17.61c-3.52,0-6.29-2.77-6.29-6.29v-40.64c-5.07-.09-10.19-.14-15.34-.15v4.69c0,3.52-2.77,6.29-6.29,6.29h-29.93v17.99h36.35c3.52,0,6.29,2.77,6.29,6.29v5.53c0,3.52-2.77,6.29-6.29,6.29h-60.25c-3.52,0-6.29-2.77-6.29-6.29v-38.63c-5.2.36-10.33.76-15.38,1.2,4.33,4.46,7.21,9.89,7.21,16.8,0,17.73-19.5,28.17-39.12,28.17s-39.12-9.56-39.12-28.8v-.38c0-3.52,2.77-6.29,6.29-6.29h17.61c3.52,0,6.29,2.77,6.29,6.29v2.89c0,5.53,4.4,8.18,8.93,8.18s8.93-2.77,8.93-7.17c0-6.09-8.1-10.29-17.54-15.06C46.78,66.82,0,85.33,0,106.5c0,31.88,106.07,57.72,236.92,57.72s236.92-25.84,236.92-57.72c0-19.47-39.57-36.68-100.18-47.14Z"/>
        <path class="cls-3" d="M134.61,72.38c0,4.4-4.4,7.17-8.93,7.17s-8.93-2.64-8.93-8.18v-2.89c0-3.52-2.77-6.29-6.29-6.29h-17.61c-3.52,0-6.29,2.77-6.29,6.29v.38c0,19.24,19.5,28.8,39.12,28.8s39.12-10.44,39.12-28.17c0-6.92-2.88-12.34-7.21-16.8-14.18,1.24-27.74,2.79-40.52,4.63,9.44,4.77,17.54,8.97,17.54,15.06Z"/>
        <path class="cls-3" d="M178.72,95.86h60.25c3.52,0,6.29-2.77,6.29-6.29v-5.53c0-3.52-2.77-6.29-6.29-6.29h-36.35v-17.99h29.93c3.52,0,6.29-2.77,6.29-6.29v-4.69c-.64,0-1.28,0-1.92,0-22.36,0-43.99.75-64.49,2.16v38.63c0,3.52,2.77,6.29,6.29,6.29Z"/>
        <path class="cls-3" d="M260.47,95.86h17.61c3.52,0,6.29-2.77,6.29-6.29v-36.73l17.99,39.12h.13c.88,2.26,3.14,3.9,5.79,3.9h17.61c3.52,0,6.29-2.77,6.29-6.29v-35.94c-24.15-2.59-50.41-4.22-77.98-4.7v40.64c0,3.52,2.77,6.29,6.29,6.29Z"/>
        <path class="cls-3" d="M349.77,95.86h17.61c3.52,0,6.29-2.77,6.29-6.29v-30.21c-9.56-1.65-19.65-3.13-30.19-4.42v34.64c0,3.52,2.77,6.29,6.29,6.29Z"/>
      </g>
      <path class="cls-5" d="M171.89,51.48s43.85-3.5,67.89-2.16"/>
      <path class="cls-5" d="M253.64,49.47s59.02,1.65,80.2,4.7"/>
      <path class="cls-5" d="M159.32,52.64s-32.89,2.33-46.35,5.7"/>
      <path class="cls-5" d="M341.09,54.97s32.63,4.14,34.96,5.96"/>
      <g>
        <path class="cls-1" d="M403.74,72.39c0,1.04-.14,2.05-.41,3.03s-.81,1.94-1.61,2.88c.62.86,1.11,1.81,1.48,2.82.36,1.02.54,2.01.54,2.98,0,1.28-.23,2.49-.7,3.63s-1.12,2.16-1.97,3.06c-.85.9-1.86,1.62-3.03,2.18-1.17.55-2.47.83-3.89.83h-13.42v-7.36h13.42c.59,0,1.11-.21,1.55-.65.45-.43.67-.98.67-1.63,0-.59-.22-1.11-.67-1.55-.45-.45-.97-.67-1.55-.67h-13.42v-7.31h13.42c.59,0,1.11-.22,1.55-.67s.67-.98.67-1.61-.22-1.16-.67-1.61c-.45-.45-.97-.67-1.55-.67h-13.42v-7.25h13.42c1.42,0,2.71.26,3.89.78,1.17.52,2.18,1.23,3.03,2.12.85.9,1.5,1.93,1.97,3.08.47,1.16.7,2.36.7,3.6Z"/>
        <path class="cls-1" d="M420.21,62.13c2.21,0,4.27.41,6.19,1.24,1.92.83,3.59,1.96,5.03,3.39,1.43,1.43,2.56,3.11,3.39,5.03.83,1.92,1.24,3.98,1.24,6.19s-.41,4.22-1.24,6.14c-.83,1.92-1.96,3.59-3.39,5.03-1.43,1.43-3.11,2.56-5.03,3.39-1.92.83-3.98,1.24-6.19,1.24s-4.22-.41-6.14-1.24c-1.92-.83-3.59-1.96-5.03-3.39-1.43-1.43-2.56-3.11-3.39-5.03-.83-1.92-1.24-3.96-1.24-6.14s.41-4.27,1.24-6.19c.83-1.92,1.96-3.59,3.39-5.03,1.43-1.43,3.11-2.56,5.03-3.39,1.92-.83,3.96-1.24,6.14-1.24ZM420.21,86.22c1.17,0,2.27-.21,3.29-.64,1.02-.43,1.9-1.02,2.64-1.78.74-.75,1.34-1.63,1.79-2.63.45-1,.67-2.06.67-3.19s-.22-2.26-.67-3.27c-.45-1.01-1.05-1.89-1.79-2.63-.74-.74-1.62-1.32-2.64-1.75-1.02-.43-2.12-.64-3.29-.64s-2.22.21-3.24.64c-1.02.43-1.9,1.01-2.64,1.75-.74.74-1.34,1.61-1.79,2.63-.45,1.01-.67,2.1-.67,3.27s.22,2.2.67,3.19c.45,1,1.04,1.87,1.79,2.63.74.76,1.62,1.35,2.64,1.78,1.02.43,2.1.64,3.24.64Z"/>
        <path class="cls-1" d="M450.05,77.98l5.03,8.34,4.56,7.46h-8.76l-19.12-31.66h8.7l5.23,8.6,5.18-8.6h8.76l-9.59,15.85ZM440,80.26l4.46,7.15-3.99,6.37h-8.7l8.24-13.52Z"/>
      </g>
    </g>
  </g>
</svg>