<?xml version="1.0" encoding="UTF-8"?>
<svg id="Capa_2" data-name="Capa 2" xmlns="http://www.w3.org/2000/svg" viewBox="0 0 147.53 50.69">
  <defs>
    <style>
      .cls-1 {
        fill: #fff;
        stroke-width: 0px;
      }
    </style>
  </defs>
  <g id="Capa_1-2" data-name="Capa 1">
    <g>
      <g>
        <path class="cls-1" d="M78.31,40.46h-18.68v-9.24h15.38c1.81,0,3.23-1.42,3.23-3.23v-1.65c-.15,0-.1-.16-.03-.34-11.37.06-22.75.54-34.09,1.46v19.08c0,1.81,1.42,3.23,3.23,3.23h30.96c1.81,0,3.23-1.42,3.23-3.23v-2.84c0-1.81-1.42-3.23-3.23-3.23Z"/>
        <path class="cls-1" d="M16.76,30.51c4.37,2.23,7.93,4.3,7.93,7.19,0,2.26-2.26,3.68-4.59,3.68s-4.59-1.36-4.59-4.2v-1.49c0-1.81-1.42-3.23-3.23-3.23H3.44l-1.32.19c-1.25.45-2.12,1.62-2.12,3.04v.19c0,9.89,10.02,14.8,20.1,14.8s20.1-5.36,20.1-14.48c0-3.29-1.27-5.92-3.23-8.12-6.75.65-13.49,1.46-20.22,2.41Z"/>
        <path class="cls-1" d="M86.13,26.03v20.51c0,1.81,1.42,3.23,3.23,3.23h9.05c1.81,0,3.23-1.42,3.23-3.23v-18.87l9.24,20.1h.06c.45,1.16,1.62,2,2.97,2h9.05c1.81,0,3.23-1.42,3.23-3.23v-18.23c-13.32-1.35-26.69-2.11-40.07-2.28Z"/>
        <path class="cls-1" d="M132.02,28.94v17.6c0,1.81,1.42,3.23,3.23,3.23h9.05c1.81,0,3.23-1.42,3.23-3.23v-15.53c-.35-.06-.71-.12-1.07-.18-4.81-.71-9.62-1.34-14.44-1.89Z"/>
      </g>
      <g>
        <path class="cls-1" d="M16.46,12.51c0-1.86,1.86-3.27,3.66-3.27s3.66.96,3.66,2.89v1.48c0,1.8,1.41,3.21,3.21,3.21h8.98c1.8,0,3.21-1.41,3.21-3.21v-.19C39.17,4.43,29.61,0,20.11,0S1.06,5.33,1.06,13.92c0,7.69,7.59,11.65,14.19,14.98,6.91-1.01,13.84-1.86,20.78-2.55-6.81-6.5-19.57-8.86-19.57-13.85Z"/>
        <path class="cls-1" d="M75.16,21.49h-15.27v-11.61h17.9c1.8,0,3.21-1.41,3.21-3.21v-2.82c0-1.8-1.41-3.21-3.21-3.21h-30.09c-1.8,0-3.21,1.41-3.21,3.21v21.75c11.26-.9,22.54-1.38,33.83-1.44-.25-1.53-1.55-2.67-3.16-2.67Z"/>
        <path class="cls-1" d="M126.17,3.85c0-1.8-1.41-3.21-3.21-3.21h-8.98c-1.8,0-3.21,1.41-3.21,3.21v18.86l-9.11-19.7c-.13-.39-.32-.71-.45-1.03-.58-.83-1.54-1.35-2.63-1.35h-8.98c-1.8,0-3.21,1.41-3.21,3.21v20.34c13.28.17,26.55.92,39.78,2.26V3.85Z"/>
        <path class="cls-1" d="M147.53,3.85c0-1.8-1.41-3.21-3.21-3.21h-8.98c-1.8,0-3.21,1.41-3.21,3.21v23.24c5.14.59,10.27,1.27,15.4,2.03V3.85Z"/>
      </g>
    </g>
  </g>
</svg>