<?xml version="1.0" encoding="UTF-8"?>
<svg id="Capa_2" data-name="Capa 2" xmlns="http://www.w3.org/2000/svg" viewBox="0 0 32.24 32.24">
  <defs>
    <style>
      .cls-1 {
        fill: #fff;
        stroke-width: 0px;
      }
    </style>
  </defs>
  <g id="Capa_1-2" data-name="Capa 1">
    <path class="cls-1" d="M16.12,0C7.22,0,0,7.22,0,16.12s7.22,16.12,16.12,16.12,16.12-7.22,16.12-16.12S25.02,0,16.12,0ZM24.98,14.28s-3.1-.13-4.74-1.62v6.73c0,.36,0,.71-.05,1.08-.45,3.48-3.65,5.94-7.13,5.49-3.48-.45-5.93-3.64-5.48-7.13.45-3.48,3.64-5.94,7.14-5.49v3.62c-.28-.08-.55-.12-.83-.12-1.55,0-2.82,1.26-2.82,2.8,0,1.55,1.26,2.81,2.81,2.81,1.55,0,2.81-1.26,2.81-2.81V6.02h3.55c0,.39.11,4.56,4.74,4.76v3.51Z"/>
  </g>
</svg>