<?xml version="1.0" encoding="UTF-8"?>
<svg id="Capa_1" data-name="Capa 1" xmlns="http://www.w3.org/2000/svg" version="1.1" viewBox="0 0 1080 1080">
  <defs>
    <style>
      .cls-1 {
        fill: #fff;
        stroke-width: 0px;
      }
    </style>
  </defs>
  <path class="cls-1" d="M380.7,602.2c17.2-36.8,32.5-69.8,47.9-102.7,16.7-35.7,33.1-71.6,50.3-107.1,4.6-9.5,9.5-22.3,17.7-26.2,32-15.2,28.3-41.5,25.1-71.7-6.3,0-13.2,0-20,0-45.2,0-90.5-.2-135.7.1-15.5.1-24.8-5-24.7-22.1.2-43.1.2-86.1,0-129.2,0-15.5,7.4-21.9,22.5-21.8,56.7.2,113.4.3,170.1,0,17.9-.1,23.8,8.5,23.7,25.3-.4,61.7,0,123.5-.4,185.2,0,11.1,3.6,16.6,12.9,23.5,12.7,9.3,24.4,22.6,31.3,36.7,30.3,61.8,58.6,124.5,87.7,186.9,3,6.3,6.3,12.5,11.1,22.1,21.2-36.4,39.3-71.1,61.1-103.4,9.8-14.5,25.2-28.5,41.1-34.8,31.1-12.3,59.4,4.1,77.9,39.9,56.3,109.7,112.3,219.6,168.4,329.4,6.5,12.8,13.6,25.3,19.4,38.4,19.9,45.1-7.3,87.6-56.3,87.6-314.4.1-628.9.1-943.3,0-49.4,0-78.4-43.1-56.3-87.2,63-125.6,126.9-250.7,192-375.3,25.4-48.6,83.6-48.7,112.9-2.1,10.7,17,20.3,34.7,30.4,52,10.1,17.3,20.2,34.6,33,56.3ZM636.1,546.9c-42.9,27.1-82.6,26.2-121.7-.3-3-2-6.2-3.6-9.5-5.1-31.9-14.2-54.9-5.6-69.8,26.3-52.1,111.6-104.1,223.3-156.1,335-2.9,6.1-5.2,12.5-8.2,19.6h540.1c-58.6-125.9-116.2-249.7-174.8-375.5ZM336.8,600.4c-29.2,19.9-57.5,17.7-88.3,4.2-14.5-6.4-33.1-4.2-49.8-4-5,0-11.9,5.8-14.4,10.7-47.1,91.1-93.9,182.3-140,273.9-11.1,22,.2,38.5,24.6,38.6,48.1.3,96.2-.4,144.3.4,13.5.2,20.3-4.1,25.9-16.4,35.4-77.6,69.9-155.7,108.5-231.7,15.3-30,12.1-51.8-10.8-75.7ZM897.2,614.3c-34.2,15.9-65.8,11.2-97-7-9.5-5.6-21.5-8.8-32.6-9.7-28.4-2.4-54.9,31.2-43.9,55.1,39.9,86.6,80.1,173,120.9,259.2,2.6,5.5,11.3,11.4,17.2,11.5,50.9.9,101.9.8,152.9.4,19.3-.2,29.6-15,24.2-33.5-1.4-4.7-4.1-9.1-6.4-13.6-42-82.4-84.1-164.7-126.2-247-2.5-4.9-5.7-9.6-9.1-15.3ZM377,258.3h145v-100.7h-145v100.7ZM469.4,494.2c25.3,9.9,49.5,17.7,72.1,28.7,23.2,11.3,45.2,13.4,67.1-.5,4.5-2.8,9.6-12.4,8-16.1-16.4-37.3-32.9-74.7-52.1-110.6-11-20.7-37.8-20-48.9,1-17.6,33.4-32.5,68.1-46.3,97.5ZM766.2,557.6c22.8,9.2,43.8,17.6,64.8,26.1,17,6.9,33.6,9.4,50.4-2.9-12.3-23.9-23.1-47.2-35.9-69.4-13.1-22.8-37-23-51.5-.9-10.1,15.5-18.8,31.9-27.8,47.2ZM320.4,567.6c-11.2-19.2-21.7-38.7-33.7-57.3-13.3-20.5-36.5-21.5-49.3-1.7-10.3,16-18,33.6-25.9,48.6,22.3,7.2,42.5,13.4,62.6,20.2,17,5.8,32.3,4.4,46.3-9.8Z"/>
</svg>