<?xml version="1.0" encoding="UTF-8"?>
<svg id="Capa_1" data-name="Capa 1" xmlns="http://www.w3.org/2000/svg" version="1.1" xmlns:xlink="http://www.w3.org/1999/xlink" viewBox="0 0 1920 1080">
  <defs>
    <style>
      .cls-1 {
        fill: url(#Degradado_sin_nombre_12);
      }

      .cls-1, .cls-2, .cls-3, .cls-4, .cls-5, .cls-6, .cls-7, .cls-8, .cls-9, .cls-10, .cls-11, .cls-12, .cls-13, .cls-14, .cls-15, .cls-16, .cls-17, .cls-18 {
        stroke-width: 0px;
      }

      .cls-2 {
        fill: url(#Degradado_sin_nombre_4);
      }

      .cls-2, .cls-19, .cls-8, .cls-11, .cls-12, .cls-14, .cls-17 {
        isolation: isolate;
      }

      .cls-2, .cls-8, .cls-11, .cls-12, .cls-14, .cls-17 {
        mix-blend-mode: multiply;
        opacity: .5;
      }

      .cls-3 {
        fill: url(#Degradado_sin_nombre_14);
      }

      .cls-4 {
        fill: url(#Degradado_sin_nombre_13);
      }

      .cls-5 {
        fill: #002075;
      }

      .cls-6 {
        fill: #dd6900;
      }

      .cls-7 {
        fill: #f7f7f7;
      }

      .cls-8 {
        fill: url(#Degradado_sin_nombre_10);
      }

      .cls-9 {
        fill: url(#Degradado_sin_nombre_7);
      }

      .cls-10 {
        fill: url(#Degradado_sin_nombre_9);
      }

      .cls-11 {
        fill: url(#Degradado_sin_nombre_8);
      }

      .cls-12 {
        fill: url(#Degradado_sin_nombre);
      }

      .cls-13 {
        fill: #c60;
      }

      .cls-14 {
        fill: url(#Degradado_sin_nombre_11);
      }

      .cls-15 {
        fill: url(#Degradado_sin_nombre_2);
      }

      .cls-16 {
        fill: url(#Degradado_sin_nombre_5);
      }

      .cls-17 {
        fill: url(#Degradado_sin_nombre_3);
      }

      .cls-18 {
        fill: url(#Degradado_sin_nombre_6);
      }
    </style>
    <radialGradient id="Degradado_sin_nombre" data-name="Degradado sin nombre" cx="451.3" cy="526.5" fx="451.3" fy="526.5" r="395.8" gradientTransform="translate(0 1082) scale(1 -1)" gradientUnits="userSpaceOnUse">
      <stop offset="0" stop-color="#ffd73d"/>
      <stop offset=".3" stop-color="#ffe47e"/>
      <stop offset=".5" stop-color="#ffefb5"/>
      <stop offset=".7" stop-color="#fff8dd"/>
      <stop offset=".9" stop-color="#fffdf6"/>
      <stop offset="1" stop-color="#fff"/>
    </radialGradient>
    <radialGradient id="Degradado_sin_nombre_2" data-name="Degradado sin nombre 2" cx="451.3" cy="526.5" fx="451.3" fy="526.5" r="334.7" gradientTransform="translate(0 1082) scale(1 -1)" gradientUnits="userSpaceOnUse">
      <stop offset="0" stop-color="#fff"/>
      <stop offset=".7" stop-color="#fdfdfd"/>
      <stop offset="1" stop-color="#f7f7f7"/>
    </radialGradient>
    <radialGradient id="Degradado_sin_nombre_3" data-name="Degradado sin nombre 3" cx="451.3" cy="387.7" fx="451.3" fy="387.7" r="383.7" gradientTransform="translate(0 1082) scale(1 -1)" gradientUnits="userSpaceOnUse">
      <stop offset="0" stop-color="#000"/>
      <stop offset=".2" stop-color="#3c3c3c"/>
      <stop offset=".3" stop-color="#777"/>
      <stop offset=".5" stop-color="#a7a7a7"/>
      <stop offset=".6" stop-color="#cdcdcd"/>
      <stop offset=".8" stop-color="#e8e8e8"/>
      <stop offset=".9" stop-color="#f9f9f9"/>
      <stop offset="1" stop-color="#fff"/>
    </radialGradient>
    <radialGradient id="Degradado_sin_nombre_4" data-name="Degradado sin nombre 4" cx="451.3" cy="332.9" fx="451.3" fy="332.9" r="321.1" gradientTransform="translate(0 929) scale(1 -1)" gradientUnits="userSpaceOnUse">
      <stop offset="0" stop-color="#dd6900"/>
      <stop offset="1" stop-color="#fff"/>
    </radialGradient>
    <linearGradient id="Degradado_sin_nombre_5" data-name="Degradado sin nombre 5" x1="451.2" y1="788.7" x2="451.2" y2="264.4" gradientTransform="translate(0 1082) scale(1 -1)" gradientUnits="userSpaceOnUse">
      <stop offset="0" stop-color="#fff"/>
      <stop offset="0" stop-color="#fefcfa"/>
      <stop offset=".2" stop-color="#fcf5ee"/>
      <stop offset=".4" stop-color="#fae9d9"/>
      <stop offset=".5" stop-color="#f6d7bc"/>
      <stop offset=".6" stop-color="#f1c196"/>
      <stop offset=".8" stop-color="#eba669"/>
      <stop offset=".9" stop-color="#e38733"/>
      <stop offset="1" stop-color="#dd6900"/>
    </linearGradient>
    <linearGradient id="Degradado_sin_nombre_6" data-name="Degradado sin nombre 6" x1="451.3" y1="779.9" x2="451.3" y2="273" gradientTransform="translate(0 1082) scale(1 -1)" gradientUnits="userSpaceOnUse">
      <stop offset="0" stop-color="#fff"/>
      <stop offset=".3" stop-color="#fafafa"/>
      <stop offset=".6" stop-color="#eee"/>
      <stop offset=".9" stop-color="#d9d9d9"/>
      <stop offset="1" stop-color="#cfcfcf"/>
    </linearGradient>
    <radialGradient id="Degradado_sin_nombre_7" data-name="Degradado sin nombre 7" cx="846" cy="527.9" fx="846" fy="527.9" r="31.6" gradientTransform="translate(0 1082) scale(1 -1)" gradientUnits="userSpaceOnUse">
      <stop offset="0" stop-color="#fff"/>
      <stop offset=".6" stop-color="#fdfdfd"/>
      <stop offset=".9" stop-color="#f6f6f6"/>
      <stop offset="1" stop-color="#efefef"/>
    </radialGradient>
    <radialGradient id="Degradado_sin_nombre_8" data-name="Degradado sin nombre 8" cx="1468.7" cy="526.5" fx="1468.7" fy="526.5" r="395.8" gradientTransform="translate(0 1082) scale(1 -1)" gradientUnits="userSpaceOnUse">
      <stop offset="0" stop-color="#01b8e0"/>
      <stop offset=".2" stop-color="#39c7e6"/>
      <stop offset=".4" stop-color="#7edbef"/>
      <stop offset=".6" stop-color="#b5eaf6"/>
      <stop offset=".8" stop-color="#ddf5fa"/>
      <stop offset=".9" stop-color="#f6fcfd"/>
      <stop offset="1" stop-color="#fff"/>
    </radialGradient>
    <radialGradient id="Degradado_sin_nombre_9" data-name="Degradado sin nombre 9" cx="1468.7" cy="526.5" fx="1468.7" fy="526.5" r="334.7" gradientTransform="translate(0 1082) scale(1 -1)" gradientUnits="userSpaceOnUse">
      <stop offset="0" stop-color="#fff"/>
      <stop offset=".7" stop-color="#fdfdfd"/>
      <stop offset="1" stop-color="#f7f7f7"/>
    </radialGradient>
    <radialGradient id="Degradado_sin_nombre_10" data-name="Degradado sin nombre 10" cx="1468.7" cy="387.7" fx="1468.7" fy="387.7" r="383.7" gradientTransform="translate(0 1082) scale(1 -1)" gradientUnits="userSpaceOnUse">
      <stop offset="0" stop-color="#000"/>
      <stop offset=".2" stop-color="#3c3c3c"/>
      <stop offset=".3" stop-color="#777"/>
      <stop offset=".5" stop-color="#a7a7a7"/>
      <stop offset=".6" stop-color="#cdcdcd"/>
      <stop offset=".8" stop-color="#e8e8e8"/>
      <stop offset=".9" stop-color="#f9f9f9"/>
      <stop offset="1" stop-color="#fff"/>
    </radialGradient>
    <radialGradient id="Degradado_sin_nombre_11" data-name="Degradado sin nombre 11" cx="1468.7" cy="332.9" fx="1468.7" fy="332.9" r="321.1" gradientTransform="translate(0 929) scale(1 -1)" gradientUnits="userSpaceOnUse">
      <stop offset="0" stop-color="#002075"/>
      <stop offset="1" stop-color="#fff"/>
    </radialGradient>
    <linearGradient id="Degradado_sin_nombre_12" data-name="Degradado sin nombre 12" x1="1468.8" y1="788.7" x2="1468.8" y2="264.4" gradientTransform="translate(0 1082) scale(1 -1)" gradientUnits="userSpaceOnUse">
      <stop offset="0" stop-color="#fff"/>
      <stop offset="0" stop-color="#fafbfc"/>
      <stop offset=".2" stop-color="#eef0f6"/>
      <stop offset=".4" stop-color="#d9deea"/>
      <stop offset=".5" stop-color="#bcc4db"/>
      <stop offset=".6" stop-color="#96a4c6"/>
      <stop offset=".8" stop-color="#697bad"/>
      <stop offset=".9" stop-color="#334d91"/>
      <stop offset="1" stop-color="#002075"/>
    </linearGradient>
    <linearGradient id="Degradado_sin_nombre_13" data-name="Degradado sin nombre 13" x1="1468.7" y1="779.9" x2="1468.7" y2="273" gradientTransform="translate(0 1082) scale(1 -1)" gradientUnits="userSpaceOnUse">
      <stop offset="0" stop-color="#fff"/>
      <stop offset=".3" stop-color="#fafafa"/>
      <stop offset=".6" stop-color="#eee"/>
      <stop offset=".9" stop-color="#d9d9d9"/>
      <stop offset="1" stop-color="#cfcfcf"/>
    </linearGradient>
    <radialGradient id="Degradado_sin_nombre_14" data-name="Degradado sin nombre 14" cx="1072.9" cy="527.5" fx="1072.9" fy="527.5" r="31.6" gradientTransform="translate(0 1082) scale(1 -1)" gradientUnits="userSpaceOnUse">
      <stop offset="0" stop-color="#fff"/>
      <stop offset=".6" stop-color="#fdfdfd"/>
      <stop offset=".9" stop-color="#f6f6f6"/>
      <stop offset="1" stop-color="#efefef"/>
    </radialGradient>
  </defs>
  <g class="cls-19">
    <g id="Capa_1-2" data-name="Capa 1">
      <g>
        <g>
          <g id="template">
            <g>
              <g>
                <circle class="cls-12" cx="451.3" cy="555.5" r="395.8"/>
                <circle class="cls-15" cx="451.3" cy="555.5" r="334.7"/>
                <circle class="cls-17" cx="451.3" cy="694.3" r="383.7"/>
                <circle class="cls-2" cx="451.3" cy="581.1" r="321.1"/>
                <path class="cls-16" d="M698.6,468.4c-11.3-32-28.4-61.1-51-86.6s-49.4-46.1-79.7-61.2c-31.4-15.6-65.3-24.6-100.6-26.8-35.3-2.2-70,2.7-103.1,14.3-32,11.3-61.1,28.4-86.6,51s-46.1,49.4-61.2,79.7c-15.6,31.4-24.6,65.3-26.8,100.6s2.7,70,14.3,103.1c11.3,32,28.4,61.1,51,86.6,22.6,25.5,49.4,46.1,79.7,61.2,31.4,15.6,65.3,24.6,100.6,26.8,5.5.3,10.9.5,16.4.5,29.7,0,58.8-5,86.7-14.8,32-11.3,61.1-28.4,86.6-51s46.1-49.4,61.2-79.7c15.6-31.4,24.6-65.3,26.8-100.6s-2.7-70-14.3-103.1h0ZM704.2,570.9c-8.5,139.4-128.9,245.9-268.3,237.4-67.5-4.1-129.4-34.3-174.3-85-44.8-50.7-67.3-115.8-63.1-183.3,4.1-67.5,34.3-129.4,85-174.3,46.7-41.3,105.7-63.6,167.5-63.6s10.5.2,15.8.5c139.4,8.5,245.9,128.9,237.4,268.3Z"/>
                <path class="cls-18" d="M690.4,471.3c-10.9-30.9-27.5-59.1-49.3-83.7-21.8-24.7-47.7-44.5-77.1-59.1-30.4-15.1-63.1-23.8-97.3-25.9-34.1-2.1-67.7,2.6-99.7,13.9-30.9,10.9-59.1,27.5-83.7,49.3-24.7,21.8-44.5,47.7-59.1,77.1-15.1,30.4-23.8,63.1-25.9,97.2-2.1,34.1,2.6,67.7,13.9,99.7,10.9,30.9,27.5,59.1,49.3,83.7,21.8,24.7,47.7,44.5,77.1,59.1,30.4,15.1,63.1,23.8,97.2,25.9,5.3.3,10.6.5,15.8.5,28.7,0,56.8-4.8,83.9-14.3,30.9-10.9,59.1-27.5,83.7-49.3,24.7-21.8,44.5-47.7,59.1-77.1,15.1-30.4,23.8-63.1,25.9-97.2,2.1-34.1-2.6-67.7-13.9-99.7h0ZM695.7,570.4c-8.2,134.8-124.6,237.7-259.4,229.5-65.3-4-125.1-33.2-168.5-82.2-43.3-49-65-111.9-61-177.2s33.2-125.1,82.2-168.5c45.2-40,102.2-61.5,161.9-61.5s10.2.2,15.3.5c134.8,8.2,237.7,124.6,229.5,259.4h0Z"/>
                <circle class="cls-7" cx="451.3" cy="555.5" r="244.9"/>
              </g>
              <g>
                <g>
                  <path class="cls-9" d="M846,585.7c-17.4,0-31.6-14.2-31.6-31.6s14.2-31.6,31.6-31.6,31.6,14.2,31.6,31.6-14.2,31.6-31.6,31.6Z"/>
                  <circle class="cls-6" cx="846" cy="554.1" r="15.8"/>
                </g>
                <g>
                  <rect class="cls-6" x="896.4" y="549.4" width="128.2" height="9.5"/>
                  <g>
                    <path class="cls-6" d="M102,727.9c-1.2-2.3-4-3.3-6.4-2.1-2.3,1.2-3.3,4-2.1,6.4l.4.7c.8,1.7,2.5,2.6,4.2,2.6s1.4-.2,2.1-.5c2.3-1.2,3.3-4,2.1-6.4,0,0-.3-.7-.3-.7Z"/>
                    <path class="cls-6" d="M139.9,789c-1.6-2.1-4.5-2.5-6.6-.9s-2.5,4.5-.9,6.6l.5.6c.9,1.2,2.3,1.9,3.8,1.9s2-.3,2.9-1c2.1-1.6,2.5-4.6.9-6.6l-.5-.6h0Z"/>
                    <path class="cls-6" d="M119.6,759.3c-1.4-2.2-4.3-2.9-6.5-1.5s-2.9,4.3-1.5,6.5l.4.7c.9,1.4,2.4,2.2,4,2.2s1.7-.2,2.5-.7c2.2-1.4,2.9-4.3,1.5-6.5l-.4-.6h0Z"/>
                    <path class="cls-6" d="M87.5,694.9c-.9-2.4-3.7-3.7-6.1-2.7-2.4.9-3.7,3.7-2.7,6.1l.3.7c.7,1.9,2.5,3,4.4,3s1.2,0,1.7-.3c2.4-1,3.6-3.7,2.7-6.1l-.3-.7Z"/>
                    <path class="cls-6" d="M163,816.8c-1.8-1.9-4.8-2.1-6.7-.3s-2.1,4.8-.3,6.7l.5.6c.9,1,2.2,1.5,3.5,1.5s2.3-.4,3.2-1.2c1.9-1.8,2.1-4.8.3-6.7l-.5-.6Z"/>
                    <path class="cls-6" d="M76,660.8c-.7-2.5-3.3-4-5.9-3.3-2.5.7-4,3.3-3.3,5.9l.2.8c.6,2.1,2.5,3.4,4.6,3.4s.9,0,1.3-.2c2.5-.7,4-3.3,3.3-5.9l-.2-.8h0Z"/>
                    <path class="cls-6" d="M63,590.8v-.8c-.3-2.6-2.6-4.5-5.2-4.3-2.6.2-4.5,2.5-4.3,5.1v.8c.3,2.5,2.4,4.3,4.8,4.3s.3,0,.4,0c2.6-.2,4.5-2.5,4.3-5.2h0Z"/>
                    <path class="cls-6" d="M68,626.5v-.8c-.6-2.6-3.1-4.3-5.7-3.8-2.6.5-4.3,2.9-3.8,5.5v.8c.6,2.3,2.6,3.9,4.8,3.9s.6,0,.9,0c2.6-.5,4.3-3,3.8-5.5h0Z"/>
                    <path class="cls-6" d="M380.2,937.7h-.8c-2.6-.6-5,1.1-5.5,3.6-.5,2.6,1.2,5,3.8,5.5h.8c.3.2.6.2.9.2,2.2,0,4.2-1.6,4.7-3.9.5-2.6-1.2-5-3.8-5.5h-.1Z"/>
                    <path class="cls-6" d="M345.1,929.5l-.8-.2c-2.5-.7-5.1.7-5.9,3.3-.7,2.5.7,5.1,3.3,5.9l.8.2c.4,0,.9.2,1.3.2,2.1,0,4-1.4,4.6-3.4.7-2.5-.7-5.1-3.3-5.8v-.2Z"/>
                    <path class="cls-6" d="M310.9,918.1l-.7-.3c-2.4-.9-5.2.3-6.1,2.7-1,2.4.3,5.2,2.7,6.1l.8.3c.6.2,1.1.3,1.7.3,1.9,0,3.7-1.2,4.4-3,.9-2.4-.3-5.2-2.7-6.1h0Z"/>
                    <path class="cls-6" d="M415.9,942.5h-.8c-2.6-.3-4.9,1.6-5.1,4.2-.2,2.6,1.7,4.9,4.3,5.1h1.2c2.4,0,4.5-1.8,4.7-4.3.2-2.6-1.7-4.9-4.3-5.1h0Z"/>
                    <path class="cls-6" d="M216.8,865.8l-.6-.5c-2.1-1.6-5.1-1.2-6.6.9-1.6,2.1-1.2,5.1.9,6.6l.6.5c.9.6,1.9,1,2.9,1s2.9-.6,3.8-1.9c1.6-2.1,1.2-5.1-.9-6.6h0Z"/>
                    <path class="cls-6" d="M188.4,842.2c-1.9-1.8-4.9-1.6-6.7.3-1.8,1.9-1.6,4.9.3,6.7l.6.5c.9.8,2.1,1.2,3.2,1.2s2.6-.5,3.5-1.5c1.8-1.9,1.6-4.9-.3-6.7l-.6-.5Z"/>
                    <path class="cls-6" d="M246.5,886.1l-.7-.4c-2.2-1.4-5.1-.7-6.5,1.5s-.7,5.1,1.5,6.5l.7.4c.8.5,1.6.7,2.5.7,1.6,0,3.1-.8,4-2.2,1.4-2.2.7-5.1-1.5-6.5Z"/>
                    <path class="cls-6" d="M278,903.6l-.7-.3c-2.3-1.2-5.2-.2-6.4,2.1-1.2,2.3-.2,5.2,2.1,6.4l.7.4c.7.3,1.4.5,2.1.5,1.7,0,3.4-1,4.2-2.6,1.2-2.3.2-5.2-2.1-6.3v-.2Z"/>
                    <path class="cls-6" d="M847.1,500c-12.8-94.2-59-180.9-130.4-244.5-73.2-65.1-167.4-100.9-265.4-100.9s-106.2,10.6-155.5,31.4c-47.6,20.1-90.3,48.9-127,85.6s-65.5,79.4-85.6,127c-20.8,49.3-31.4,101.6-31.4,155.5s2.1,4.7,4.7,4.7,4.7-2.1,4.7-4.7c0-215.1,175-390,390-390s362.8,146.8,387,341.4l.6,4.5,4.5-.4c1.2,0,2.4-.1,3.7-.1,24.6,0,44.6,20,44.6,44.6s-20,44.6-44.6,44.6-2.5,0-3.7,0l-4.5-.4-.6,4.5c-24.2,194.6-190.6,341.4-387,341.4s-4.7,2.1-4.7,4.7,2.1,4.7,4.7,4.7c98,0,192.3-35.8,265.4-100.9,71.5-63.6,117.7-150.2,130.4-244.5,29.8,0,54-24.3,54-54.1s-24.2-54-54-54.1h0Z"/>
                  </g>
                </g>
              </g>
            </g>
            <g>
              <g>
                <circle class="cls-11" cx="1468.7" cy="555.5" r="395.8"/>
                <circle class="cls-10" cx="1468.7" cy="555.5" r="334.7"/>
                <circle class="cls-8" cx="1468.7" cy="694.3" r="383.7"/>
                <circle class="cls-14" cx="1468.7" cy="581.1" r="321.1"/>
                <path class="cls-1" d="M1716.1,468.4c-11.3-32-28.4-61.1-51-86.6s-49.4-46.1-79.7-61.2c-31.4-15.6-65.3-24.6-100.6-26.8-35.3-2.2-70,2.7-103.1,14.3-32,11.3-61.1,28.4-86.6,51s-46.1,49.4-61.2,79.7c-15.6,31.4-24.6,65.3-26.8,100.6-2.2,35.3,2.7,70,14.3,103.1,11.3,32,28.4,61.1,51,86.6s49.4,46.1,79.7,61.2c31.4,15.6,65.3,24.6,100.6,26.8,5.5.3,10.9.5,16.4.5,29.7,0,58.8-5,86.7-14.8,32-11.3,61.1-28.4,86.6-51s46.1-49.4,61.2-79.7c15.6-31.4,24.6-65.3,26.8-100.6,2.2-35.3-2.7-70-14.3-103.1h0ZM1721.6,570.9c-8.5,139.4-128.9,245.9-268.3,237.4-67.5-4.1-129.4-34.3-174.3-85-44.8-50.7-67.3-115.8-63.1-183.3,4.1-67.5,34.3-129.4,85-174.3,46.7-41.3,105.7-63.6,167.5-63.6s10.5.2,15.8.5c139.4,8.5,245.9,128.9,237.4,268.3h0Z"/>
                <path class="cls-4" d="M1707.8,471.3c-10.9-30.9-27.5-59.1-49.3-83.7-21.8-24.7-47.7-44.5-77.1-59.1-30.4-15.1-63.1-23.8-97.3-25.9-34.1-2.1-67.7,2.6-99.7,13.9-30.9,10.9-59.1,27.5-83.7,49.3-24.7,21.8-44.5,47.7-59.1,77.1-15.1,30.4-23.8,63.1-25.9,97.2-2.1,34.1,2.6,67.7,13.9,99.7,10.9,30.9,27.5,59.1,49.3,83.7,21.8,24.7,47.7,44.5,77.1,59.1,30.4,15.1,63.1,23.8,97.2,25.9,5.3.3,10.6.5,15.8.5,28.7,0,56.8-4.8,83.9-14.3,30.9-10.9,59.1-27.5,83.7-49.3,24.7-21.8,44.5-47.7,59.1-77.1,15.1-30.4,23.8-63.1,25.9-97.2,2.1-34.1-2.6-67.7-13.9-99.7h0ZM1713.1,570.4c-8.2,134.8-124.6,237.7-259.4,229.5-65.3-4-125.1-33.2-168.5-82.2-43.3-49-65-111.9-61-177.2s33.2-125.1,82.2-168.5c45.2-40,102.2-61.5,161.9-61.5s10.2.2,15.3.5c134.8,8.2,237.7,124.6,229.5,259.4Z"/>
                <circle class="cls-7" cx="1468.7" cy="555.5" r="244.9"/>
              </g>
              <g>
                <g>
                  <path class="cls-3" d="M1072.9,586.1c-17.4,0-31.6-14.2-31.6-31.6s14.2-31.6,31.6-31.6,31.6,14.2,31.6,31.6-14.2,31.6-31.6,31.6Z"/>
                  <circle class="cls-5" cx="1072.9" cy="554.5" r="15.8"/>
                </g>
                <g>
                  <path class="cls-5" d="M1832.7,413.8c.7,1.9,2.5,3,4.4,3s1.1-.1,1.7-.3c2.4-.9,3.7-3.7,2.7-6.1l-.3-.8c-1-2.4-3.7-3.6-6.1-2.7-2.4,1-3.6,3.7-2.7,6.1l.3.7h0Z"/>
                  <path class="cls-5" d="M1818.2,380.8c.8,1.7,2.5,2.6,4.2,2.6s1.4-.2,2.1-.5c2.3-1.2,3.3-4,2.1-6.3l-.4-.7c-1.2-2.3-4-3.3-6.4-2.1-2.3,1.2-3.3,4-2.1,6.4l.3.7h.2Z"/>
                  <path class="cls-5" d="M1800.7,349.3c.9,1.4,2.4,2.2,4,2.2s1.7-.2,2.5-.7c2.2-1.4,2.9-4.3,1.5-6.5l-.4-.7c-1.4-2.2-4.3-2.9-6.5-1.5s-2.9,4.3-1.5,6.5l.4.7Z"/>
                  <path class="cls-5" d="M1757.4,291.8c.9,1,2.2,1.5,3.5,1.5s2.3-.4,3.2-1.2c1.9-1.8,2.1-4.8.3-6.7l-.5-.6c-1.8-1.9-4.8-2.1-6.7-.3-1.9,1.8-2.1,4.8-.3,6.7l.5.6Z"/>
                  <path class="cls-5" d="M1780.3,319.6c.9,1.2,2.3,1.9,3.8,1.9s2-.3,2.9-1c2.1-1.6,2.5-4.5.9-6.6l-.5-.6c-1.6-2.1-4.5-2.5-6.6-.9s-2.5,4.5-.9,6.6l.5.6h-.1Z"/>
                  <path class="cls-5" d="M1857.1,517.9v.8c.3,2.5,2.4,4.3,4.8,4.3s.3,0,.4,0c2.6-.2,4.5-2.5,4.3-5.1v-.8c-.3-2.6-2.6-4.5-5.2-4.3s-4.5,2.5-4.3,5.1h0Z"/>
                  <path class="cls-5" d="M1852.1,482.2v.8c.6,2.3,2.6,3.9,4.8,3.9s.6,0,.9,0c2.6-.5,4.3-2.9,3.8-5.5v-.8c-.6-2.6-3.1-4.3-5.7-3.8s-4.3,3-3.8,5.5h0Z"/>
                  <path class="cls-5" d="M1844.1,447.9c.6,2.1,2.5,3.4,4.6,3.4s.9,0,1.3-.2c2.5-.7,4-3.3,3.3-5.8l-.2-.8c-.7-2.5-3.3-4-5.9-3.3-2.5.7-4,3.3-3.3,5.9l.2.8Z"/>
                  <path class="cls-5" d="M1540.3,170.7h.8c.3.2.6.2.9.2,2.2,0,4.2-1.6,4.7-3.9.5-2.6-1.2-5-3.8-5.5h-.8c-2.6-.6-5,1.1-5.5,3.6s1.2,5,3.8,5.5h0Z"/>
                  <path class="cls-5" d="M1609.5,190.3l.7.3c.6.2,1.1.3,1.7.3,1.9,0,3.7-1.1,4.4-3,1-2.4-.3-5.2-2.7-6.1l-.7-.3c-2.4-.9-5.2.3-6.1,2.7s.3,5.2,2.7,6.1Z"/>
                  <path class="cls-5" d="M1731.9,266.3c.9.8,2.1,1.2,3.2,1.2s2.6-.5,3.5-1.5c1.8-1.9,1.6-4.9-.3-6.7l-.6-.5c-1.9-1.8-4.9-1.6-6.7.3-1.8,1.9-1.6,4.9.3,6.7l.6.5Z"/>
                  <path class="cls-5" d="M1504.7,165.7h1.2c2.4,0,4.5-1.8,4.7-4.3.2-2.6-1.7-4.9-4.3-5.2h-.8c-2.6-.3-4.9,1.6-5.1,4.2-.2,2.6,1.7,4.9,4.3,5.1v.2Z"/>
                  <path class="cls-5" d="M1575.4,178.9l.8.2c.4.1.9.2,1.3.2,2.1,0,4-1.4,4.6-3.4.7-2.5-.7-5.1-3.3-5.9l-.8-.2c-2.5-.7-5.1.7-5.9,3.3-.7,2.5.7,5.1,3.3,5.9h0Z"/>
                  <path class="cls-5" d="M1703.6,242.8l.6.5c.9.6,1.9,1,2.9,1s2.8-.6,3.8-1.9c1.6-2.1,1.2-5.1-.9-6.6l-.6-.5c-2.1-1.6-5.1-1.2-6.6.9-1.6,2.1-1.2,5.1.9,6.6h-.1Z"/>
                  <path class="cls-5" d="M1642.5,204.9l.7.3c.7.3,1.4.5,2.1.5,1.7,0,3.4-1,4.2-2.6,1.2-2.3.2-5.2-2.1-6.4l-.7-.4c-2.3-1.2-5.2-.2-6.4,2.1-1.2,2.3-.2,5.2,2.1,6.4h.1Z"/>
                  <path class="cls-5" d="M1673.9,222.4l.6.4c.8.5,1.6.7,2.5.7,1.6,0,3.1-.8,4-2.2,1.4-2.2.7-5.1-1.5-6.5l-.7-.4c-2.2-1.4-5.1-.7-6.5,1.5s-.7,5.1,1.5,6.5h0Z"/>
                  <path class="cls-5" d="M1863.5,549.4c-2.6,0-4.7,2.1-4.7,4.7,0,215.1-175,390-390,390s-362.8-146.7-387-341.3l-.6-4.4-4.4.3h-2.8c-24.6,0-44.6-20-44.6-44.6s20-44.6,44.6-44.6,1.8,0,2.8,0l4.4.3.6-4.4c24.2-194.6,190.6-341.3,387-341.3s4.7-2.1,4.7-4.7-2.1-4.7-4.7-4.7c-98,0-192.3,35.8-265.4,100.9-71.5,63.6-117.7,150.3-130.4,244.5-29.3.6-53,24.6-53,54.1s23.7,53.5,53,54.1c12.8,94.2,59,180.9,130.4,244.5,73.1,65.1,167.4,100.9,265.4,100.9s106.2-10.6,155.5-31.4c47.6-20.1,90.3-48.9,127-85.6,36.7-36.7,65.5-79.4,85.6-127,20.8-49.3,31.4-101.6,31.4-155.5s-2.1-4.7-4.7-4.7h-.1Z"/>
                </g>
              </g>
            </g>
          </g>
          <g class="cls-19">
            <g class="cls-19">
              <path class="cls-13" d="M332,581.5v13.8h15.4v4h-15.4v14.1h17.1v4.2h-22.3v-40.5h22.3v4.2h-17.1Z"/>
              <path class="cls-13" d="M381.3,589.2c2.3,2.4,3.4,5.8,3.4,10.2v18.3h-5.2v-17.9c0-3.1-.8-5.5-2.4-7.2-1.6-1.7-3.8-2.5-6.5-2.5s-5.2.9-6.9,2.8c-1.7,1.9-2.6,4.6-2.6,8.1v16.7h-5.2v-31.5h5.2v7.5c.8-2.6,2.2-4.5,4.3-5.9,2-1.4,4.4-2.1,7.1-2.1s6.6,1.2,8.9,3.5Z"/>
              <path class="cls-13" d="M405,612.1l9.8-25.9h5.6l-12.3,31.5h-6.2l-12.3-31.5h5.6l9.9,25.9Z"/>
              <path class="cls-13" d="M425.5,574.6c.7-.6,1.5-.9,2.6-.9s1.9.3,2.6.9c.7.6,1,1.4,1,2.3s-.3,1.7-1,2.3c-.7.6-1.5.9-2.6.9s-1.9-.3-2.6-.9c-.7-.6-1-1.4-1-2.3s.3-1.7,1-2.3ZM430.7,586.2v31.5h-5.2v-31.5h5.2Z"/>
              <path class="cls-13" d="M459.8,588.1c2.1,1.5,3.6,3.6,4.4,6.1v-8h5.2v31.5h-5.2v-8c-.8,2.6-2.3,4.6-4.4,6.1-2.1,1.5-4.7,2.3-7.8,2.3s-5.3-.6-7.5-2c-2.2-1.3-3.9-3.2-5.1-5.6-1.2-2.4-1.9-5.3-1.9-8.6s.6-6.2,1.9-8.6c1.2-2.4,3-4.3,5.1-5.6,2.2-1.3,4.7-2,7.5-2s5.7.8,7.8,2.3ZM445.8,593.5c-1.9,2-2.9,4.9-2.9,8.5s1,6.4,2.9,8.5c1.9,2,4.5,3.1,7.7,3.1s3.9-.5,5.5-1.4c1.6-1,2.9-2.3,3.8-4,.9-1.7,1.4-3.8,1.4-6.1s-.5-4.3-1.4-6.1c-.9-1.8-2.2-3.1-3.8-4-1.6-.9-3.5-1.4-5.5-1.4-3.2,0-5.8,1-7.7,3.1Z"/>
              <path class="cls-13" d="M483,575.2v42.5h-5.2v-42.5h5.2Z"/>
              <path class="cls-13" d="M513.8,587.7c2.4,1.3,4.3,3.2,5.6,5.6,1.4,2.4,2,5.3,2,8.6s-.7,6.2-2,8.6c-1.4,2.4-3.2,4.3-5.6,5.6-2.4,1.3-5.1,2-8.1,2s-5.7-.6-8.1-2c-2.4-1.3-4.3-3.2-5.7-5.6-1.4-2.4-2.1-5.3-2.1-8.6s.7-6.2,2.1-8.6c1.4-2.4,3.3-4.3,5.7-5.6,2.4-1.3,5.1-2,8.1-2s5.7.7,8.1,2ZM500.5,591.6c-1.6.8-2.9,2.1-3.8,3.9-1,1.7-1.5,3.9-1.5,6.5s.5,4.7,1.5,6.4c1,1.7,2.3,3,3.8,3.9,1.6.8,3.3,1.3,5.2,1.3s3.6-.4,5.2-1.3c1.6-.8,2.9-2.1,3.8-3.9,1-1.7,1.5-3.9,1.5-6.4s-.5-4.7-1.5-6.5c-1-1.7-2.3-3-3.8-3.9-1.6-.8-3.3-1.3-5.2-1.3s-3.6.4-5.2,1.3Z"/>
              <path class="cls-13" d="M563.1,588.1c2.1,1.5,3.6,3.6,4.4,6.1v-8h5.2v31.5h-5.2v-8c-.8,2.6-2.3,4.6-4.4,6.1-2.1,1.5-4.7,2.3-7.8,2.3s-5.3-.6-7.5-2c-2.2-1.3-3.9-3.2-5.1-5.6-1.2-2.4-1.9-5.3-1.9-8.6s.6-6.2,1.9-8.6c1.2-2.4,3-4.3,5.1-5.6,2.2-1.3,4.7-2,7.5-2s5.7.8,7.8,2.3ZM549.1,593.5c-1.9,2-2.9,4.9-2.9,8.5s1,6.4,2.9,8.5c1.9,2,4.5,3.1,7.7,3.1s3.9-.5,5.5-1.4c1.6-1,2.9-2.3,3.8-4,.9-1.7,1.4-3.8,1.4-6.1s-.5-4.3-1.4-6.1c-.9-1.8-2.2-3.1-3.8-4-1.6-.9-3.5-1.4-5.5-1.4-3.2,0-5.8,1-7.7,3.1Z"/>
            </g>
            <g class="cls-19">
              <path class="cls-13" d="M341.2,674.7v4.6h-3.9c-3.2,0-5.6-.8-7.2-2.3-1.6-1.5-2.4-4.1-2.4-7.7v-17h-4.7v-4.5h4.7v-7.9h5.3v7.9h8.2v4.5h-8.2v17.1c0,2,.4,3.4,1.1,4.2s2,1.1,3.9,1.1h3.2Z"/>
              <path class="cls-13" d="M375.6,647.8v31.5h-5.2v-7.4c-.8,2.6-2.2,4.5-4.3,5.9-2,1.4-4.4,2-7.1,2s-6.6-1.2-8.8-3.5c-2.3-2.4-3.4-5.7-3.4-10.1v-18.4h5.2v17.9c0,3.1.8,5.6,2.4,7.3,1.6,1.7,3.8,2.6,6.5,2.6s5.2-.9,6.9-2.8c1.7-1.9,2.6-4.6,2.6-8.1v-16.8h5.2Z"/>
              <path class="cls-13" d="M422.1,650.6c2.6,2.1,4.3,5,4.9,8.6h-5.5c-.4-2.3-1.4-4-3.1-5.3-1.7-1.3-3.8-1.9-6.3-1.9s-3.5.4-5,1.3c-1.5.8-2.7,2.1-3.6,3.9-.9,1.7-1.4,3.9-1.4,6.5s.5,4.7,1.4,6.5c.9,1.7,2.1,3,3.6,3.9,1.5.8,3.2,1.3,5,1.3s4.6-.7,6.3-2c1.7-1.3,2.7-3.1,3.1-5.3h5.5c-.6,3.6-2.2,6.5-4.9,8.6-2.6,2.1-6,3.2-10,3.2s-5.7-.6-8-2c-2.3-1.3-4.2-3.2-5.5-5.6-1.3-2.4-2-5.3-2-8.6s.7-6.2,2-8.6c1.3-2.4,3.1-4.3,5.5-5.6,2.3-1.3,5-2,8-2s7.3,1.1,10,3.2Z"/>
              <path class="cls-13" d="M454.5,649.7c2.1,1.5,3.6,3.6,4.4,6.1v-8h5.2v31.5h-5.2v-8c-.8,2.6-2.3,4.6-4.4,6.1-2.1,1.5-4.7,2.3-7.8,2.3s-5.3-.6-7.5-2c-2.2-1.3-3.9-3.2-5.1-5.6-1.2-2.4-1.9-5.3-1.9-8.6s.6-6.2,1.9-8.6c1.2-2.4,3-4.3,5.1-5.6,2.2-1.3,4.7-2,7.5-2s5.7.8,7.8,2.3ZM440.5,655.1c-1.9,2-2.9,4.9-2.9,8.5s1,6.4,2.9,8.5c1.9,2,4.5,3.1,7.7,3.1s3.9-.5,5.5-1.4c1.6-1,2.9-2.3,3.8-4,.9-1.7,1.4-3.8,1.4-6.1s-.5-4.3-1.4-6.1c-.9-1.8-2.2-3.1-3.8-4-1.6-.9-3.5-1.4-5.5-1.4-3.2,0-5.8,1-7.7,3.1Z"/>
              <path class="cls-13" d="M491,650.2c2.2,1.9,3.5,4.4,3.9,7.5h-5c-.2-1.9-1-3.4-2.3-4.6-1.3-1.2-3.1-1.8-5.3-1.8s-3.3.5-4.4,1.3c-1.1.9-1.6,2.1-1.6,3.6s.4,2.1,1.1,2.8c.7.7,1.6,1.2,2.6,1.6,1.1.4,2.5.8,4.3,1.2,2.3.5,4.2,1.1,5.7,1.6s2.7,1.4,3.7,2.7c1,1.2,1.5,2.9,1.5,4.9s-1,4.6-2.9,6.3c-1.9,1.6-4.5,2.4-7.7,2.4s-6.8-.9-9.2-2.7c-2.4-1.8-3.8-4.3-4.2-7.5h5.1c.2,1.9,1,3.5,2.5,4.6,1.5,1.2,3.4,1.8,5.8,1.8s3.2-.5,4.2-1.4c1-.9,1.5-2.1,1.5-3.6s-.4-2.2-1.1-2.9c-.7-.7-1.6-1.3-2.7-1.7-1.1-.4-2.5-.8-4.4-1.2-2.3-.5-4.2-1.1-5.6-1.6-1.4-.5-2.6-1.4-3.6-2.6-1-1.2-1.5-2.7-1.5-4.7s1-4.8,2.9-6.4c2-1.6,4.6-2.4,8-2.4s6.4.9,8.6,2.8Z"/>
              <path class="cls-13" d="M502.2,636.2c.7-.6,1.5-.9,2.6-.9s1.9.3,2.6.9c.7.6,1,1.4,1,2.3s-.3,1.7-1,2.3c-.7.6-1.5.9-2.6.9s-1.9-.3-2.6-.9c-.7-.6-1-1.4-1-2.3s.3-1.7,1-2.3ZM507.4,647.8v31.5h-5.2v-31.5h5.2Z"/>
              <path class="cls-13" d="M521,636.8v42.5h-5.2v-42.5h5.2Z"/>
              <path class="cls-13" d="M534.6,636.8v42.5h-5.2v-42.5h5.2Z"/>
              <path class="cls-13" d="M563.7,649.7c2.1,1.5,3.6,3.6,4.4,6.1v-8h5.2v31.5h-5.2v-8c-.8,2.6-2.3,4.6-4.4,6.1-2.1,1.5-4.7,2.3-7.8,2.3s-5.3-.6-7.5-2c-2.2-1.3-3.9-3.2-5.1-5.6-1.2-2.4-1.9-5.3-1.9-8.6s.6-6.2,1.9-8.6c1.2-2.4,3-4.3,5.1-5.6,2.2-1.3,4.7-2,7.5-2s5.7.8,7.8,2.3ZM549.7,655.1c-1.9,2-2.9,4.9-2.9,8.5s1,6.4,2.9,8.5c1.9,2,4.5,3.1,7.7,3.1s3.9-.5,5.5-1.4c1.6-1,2.9-2.3,3.8-4,.9-1.7,1.4-3.8,1.4-6.1s-.5-4.3-1.4-6.1c-.9-1.8-2.2-3.1-3.8-4-1.6-.9-3.5-1.4-5.5-1.4-3.2,0-5.8,1-7.7,3.1Z"/>
            </g>
          </g>
          <g class="cls-19">
            <g class="cls-19">
              <path class="cls-5" d="M1371,616.1l-10.6-16.5h-5.7v16.5h-5.2v-40.5h13.3c4.6,0,8,1.1,10.3,3.3s3.4,5.1,3.4,8.8-.9,5.9-2.8,8-4.5,3.3-8,3.8l11,16.7h-5.9ZM1354.7,595.8h7.6c5.9,0,8.9-2.6,8.9-7.8s-3-7.8-8.9-7.8h-7.6v15.6Z"/>
              <path class="cls-5" d="M1411.7,601.5h-25.2c.1,3.6,1.1,6.3,3.1,8.1,1.9,1.8,4.3,2.7,7.1,2.7s4.6-.6,6.3-1.9c1.7-1.3,2.7-3,3.1-5.1h5.6c-.4,2.2-1.2,4.1-2.6,5.9-1.3,1.7-3,3.1-5.1,4-2.1,1-4.5,1.4-7.1,1.4s-5.7-.6-8-2c-2.3-1.3-4.2-3.2-5.5-5.6-1.3-2.4-2-5.3-2-8.6s.7-6.2,2-8.6c1.3-2.4,3.1-4.3,5.5-5.6,2.3-1.3,5-2,8-2s5.7.7,8,2c2.3,1.3,4,3,5.2,5.2,1.2,2.2,1.8,4.6,1.8,7.2s0,2.1-.2,2.9ZM1405.5,593.1c-.9-1.6-2.1-2.7-3.6-3.5-1.5-.8-3.2-1.1-5-1.1-2.9,0-5.3.9-7.2,2.7s-3,4.4-3.2,7.8h20.1c.1-2.3-.3-4.3-1.1-5.9Z"/>
              <path class="cls-5" d="M1442.7,587.4c2.6,2.1,4.3,5,4.9,8.6h-5.5c-.4-2.3-1.4-4-3.1-5.3-1.7-1.3-3.8-1.9-6.3-1.9s-3.5.4-5,1.3c-1.5.8-2.7,2.1-3.6,3.9-.9,1.7-1.4,3.9-1.4,6.5s.5,4.7,1.4,6.5c.9,1.7,2.1,3,3.6,3.9,1.5.8,3.2,1.3,5,1.3s4.6-.7,6.3-2c1.7-1.3,2.7-3.1,3.1-5.3h5.5c-.6,3.6-2.2,6.5-4.9,8.6-2.6,2.1-6,3.2-10,3.2s-5.7-.6-8-2c-2.3-1.3-4.2-3.2-5.5-5.6-1.3-2.4-2-5.3-2-8.6s.7-6.2,2-8.6c1.3-2.4,3.1-4.3,5.5-5.6,2.3-1.3,5-2,8-2s7.3,1.1,10,3.2Z"/>
              <path class="cls-5" d="M1454.5,573c.7-.6,1.5-.9,2.6-.9s1.9.3,2.6.9c.7.6,1,1.4,1,2.3s-.3,1.7-1,2.3c-.7.6-1.5.9-2.6.9s-1.9-.3-2.6-.9c-.7-.6-1-1.4-1-2.3s.3-1.7,1-2.3ZM1459.6,584.6v31.5h-5.2v-31.5h5.2Z"/>
              <path class="cls-5" d="M1492.9,586.1c2.2,1.3,3.9,3.2,5.1,5.6,1.2,2.4,1.9,5.3,1.9,8.6s-.6,6.2-1.9,8.6c-1.2,2.4-3,4.3-5.1,5.6-2.2,1.3-4.7,2-7.5,2s-5.7-.8-7.8-2.3-3.6-3.6-4.4-6.1v8h-5.2v-42.5h5.2v19c.8-2.5,2.3-4.6,4.4-6.1s4.7-2.3,7.8-2.3,5.3.7,7.5,2ZM1478.4,590.2c-1.6.9-2.9,2.3-3.8,4-.9,1.8-1.4,3.8-1.4,6.1s.5,4.3,1.4,6.1c.9,1.7,2.2,3.1,3.8,4,1.6,1,3.5,1.4,5.5,1.4,3.3,0,5.8-1,7.8-3.1,1.9-2,2.9-4.9,2.9-8.5s-1-6.4-2.9-8.5c-1.9-2-4.5-3.1-7.8-3.1s-3.9.5-5.5,1.4Z"/>
              <path class="cls-5" d="M1535.5,601.5h-25.2c.1,3.6,1.1,6.3,3.1,8.1,1.9,1.8,4.3,2.7,7.1,2.7s4.6-.6,6.3-1.9c1.7-1.3,2.7-3,3.1-5.1h5.6c-.4,2.2-1.2,4.1-2.6,5.9-1.3,1.7-3,3.1-5.1,4-2.1,1-4.5,1.4-7.1,1.4s-5.7-.6-8-2c-2.3-1.3-4.2-3.2-5.5-5.6-1.3-2.4-2-5.3-2-8.6s.7-6.2,2-8.6c1.3-2.4,3.1-4.3,5.5-5.6,2.3-1.3,5-2,8-2s5.7.7,8,2c2.3,1.3,4,3,5.2,5.2,1.2,2.2,1.8,4.6,1.8,7.2s0,2.1-.2,2.9ZM1529.3,593.1c-.9-1.6-2.1-2.7-3.6-3.5-1.5-.8-3.2-1.1-5-1.1-2.9,0-5.3.9-7.2,2.7s-3,4.4-3.2,7.8h20.1c.1-2.3-.3-4.3-1.1-5.9Z"/>
              <path class="cls-5" d="M1547.7,573.6v42.5h-5.2v-42.5h5.2Z"/>
              <path class="cls-5" d="M1578.5,586.1c2.4,1.3,4.3,3.2,5.6,5.6,1.4,2.4,2,5.3,2,8.6s-.7,6.2-2,8.6c-1.4,2.4-3.2,4.3-5.6,5.6-2.4,1.3-5.1,2-8.1,2s-5.7-.6-8.1-2c-2.4-1.3-4.3-3.2-5.7-5.6-1.4-2.4-2.1-5.3-2.1-8.6s.7-6.2,2.1-8.6c1.4-2.4,3.3-4.3,5.7-5.6,2.4-1.3,5.1-2,8.1-2s5.7.7,8.1,2ZM1565.2,590c-1.6.8-2.9,2.1-3.8,3.9-1,1.7-1.5,3.9-1.5,6.5s.5,4.7,1.5,6.4,2.3,3,3.8,3.9c1.6.8,3.3,1.3,5.2,1.3s3.6-.4,5.2-1.3c1.6-.8,2.9-2.1,3.8-3.9s1.5-3.9,1.5-6.4-.5-4.7-1.5-6.5c-1-1.7-2.3-3-3.8-3.9-1.6-.8-3.3-1.3-5.2-1.3s-3.6.4-5.2,1.3Z"/>
            </g>
            <g class="cls-19">
              <path class="cls-5" d="M1337.8,663.1h-25.2c.1,3.6,1.1,6.3,3.1,8.1,1.9,1.8,4.3,2.7,7.1,2.7s4.6-.6,6.3-1.9c1.7-1.3,2.7-3,3.1-5.1h5.6c-.4,2.2-1.2,4.1-2.6,5.9-1.3,1.7-3,3.1-5.1,4-2.1,1-4.5,1.4-7.1,1.4s-5.7-.6-8-2c-2.3-1.3-4.2-3.2-5.5-5.6-1.3-2.4-2-5.3-2-8.6s.7-6.2,2-8.6c1.3-2.4,3.1-4.3,5.5-5.6,2.3-1.3,5-2,8-2s5.7.7,8,2c2.3,1.3,4,3,5.2,5.2,1.2,2.2,1.8,4.6,1.8,7.2s0,2.1-.2,2.9ZM1331.6,654.7c-.9-1.6-2.1-2.7-3.6-3.5-1.5-.8-3.2-1.1-5-1.1-2.9,0-5.3.9-7.2,2.7-2,1.8-3,4.4-3.2,7.8h20.1c.1-2.3-.3-4.3-1.1-5.9Z"/>
              <path class="cls-5" d="M1370.4,649.2c2.3,2.4,3.4,5.8,3.4,10.2v18.3h-5.2v-17.9c0-3.1-.8-5.5-2.4-7.2-1.6-1.7-3.8-2.5-6.5-2.5s-5.2.9-6.9,2.8c-1.7,1.9-2.6,4.6-2.6,8.1v16.7h-5.2v-31.5h5.2v7.5c.8-2.6,2.2-4.5,4.3-5.9s4.4-2.1,7.1-2.1,6.6,1.2,8.9,3.5Z"/>
              <path class="cls-5" d="M1401.2,641.5v13.8h15.4v4h-15.4v14.1h17.1v4.2h-22.3v-40.5h22.3v4.2h-17.1Z"/>
              <path class="cls-5" d="M1449,649c2.6,2.1,4.3,5,4.9,8.6h-5.5c-.4-2.3-1.4-4-3.1-5.3-1.7-1.3-3.8-1.9-6.3-1.9s-3.5.4-5,1.3c-1.5.8-2.7,2.1-3.6,3.9-.9,1.7-1.4,3.9-1.4,6.5s.5,4.7,1.4,6.5c.9,1.7,2.1,3,3.6,3.9,1.5.8,3.2,1.3,5,1.3s4.6-.7,6.3-2c1.7-1.3,2.7-3.1,3.1-5.3h5.5c-.6,3.6-2.2,6.5-4.9,8.6-2.6,2.1-6,3.2-10,3.2s-5.7-.6-8-2c-2.3-1.3-4.2-3.2-5.5-5.6-1.3-2.4-2-5.3-2-8.6s.7-6.2,2-8.6c1.3-2.4,3.1-4.3,5.5-5.6,2.3-1.3,5-2,8-2s7.3,1.1,10,3.2Z"/>
              <path class="cls-5" d="M1488.7,646.2v31.5h-5.2v-7.4c-.8,2.6-2.2,4.5-4.3,5.9-2,1.4-4.4,2-7.1,2s-6.6-1.2-8.8-3.5-3.4-5.7-3.4-10.1v-18.4h5.2v17.9c0,3.1.8,5.6,2.4,7.3,1.6,1.7,3.8,2.6,6.5,2.6s5.2-.9,6.9-2.8c1.7-1.9,2.6-4.6,2.6-8.1v-16.8h5.2Z"/>
              <path class="cls-5" d="M1517.8,648.1c2.1,1.5,3.6,3.6,4.4,6.1v-8h5.2v31.5h-5.2v-8c-.8,2.6-2.3,4.6-4.4,6.1-2.1,1.5-4.7,2.3-7.8,2.3s-5.3-.6-7.5-2c-2.2-1.3-3.9-3.2-5.1-5.6-1.2-2.4-1.9-5.3-1.9-8.6s.6-6.2,1.9-8.6c1.2-2.4,3-4.3,5.1-5.6,2.2-1.3,4.7-2,7.5-2s5.7.8,7.8,2.3ZM1503.8,653.5c-1.9,2-2.9,4.9-2.9,8.5s1,6.4,2.9,8.5c1.9,2,4.5,3.1,7.7,3.1s3.9-.5,5.5-1.4c1.6-1,2.9-2.3,3.8-4,.9-1.7,1.4-3.8,1.4-6.1s-.5-4.3-1.4-6.1-2.2-3.1-3.8-4c-1.6-.9-3.5-1.4-5.5-1.4-3.2,0-5.8,1-7.7,3.1Z"/>
              <path class="cls-5" d="M1556.5,648.1c2.1,1.5,3.6,3.6,4.4,6.1v-19h5.2v42.5h-5.2v-8c-.8,2.6-2.3,4.6-4.4,6.1-2.1,1.5-4.7,2.3-7.8,2.3s-5.3-.6-7.5-2c-2.2-1.3-3.9-3.2-5.1-5.6-1.2-2.4-1.9-5.3-1.9-8.6s.6-6.2,1.9-8.6c1.2-2.4,3-4.3,5.1-5.6,2.2-1.3,4.7-2,7.5-2s5.7.8,7.8,2.3ZM1542.4,653.5c-1.9,2-2.9,4.9-2.9,8.5s1,6.4,2.9,8.5c1.9,2,4.5,3.1,7.7,3.1s3.9-.5,5.5-1.4c1.6-1,2.9-2.3,3.8-4,.9-1.7,1.4-3.8,1.4-6.1s-.5-4.3-1.4-6.1-2.2-3.1-3.8-4c-1.6-.9-3.5-1.4-5.5-1.4-3.2,0-5.8,1-7.7,3.1Z"/>
              <path class="cls-5" d="M1596.9,647.7c2.4,1.3,4.3,3.2,5.6,5.6,1.4,2.4,2,5.3,2,8.6s-.7,6.2-2,8.6c-1.4,2.4-3.2,4.3-5.6,5.6-2.4,1.3-5.1,2-8.1,2s-5.7-.6-8.1-2c-2.4-1.3-4.3-3.2-5.7-5.6-1.4-2.4-2.1-5.3-2.1-8.6s.7-6.2,2.1-8.6c1.4-2.4,3.3-4.3,5.7-5.6,2.4-1.3,5.1-2,8.1-2s5.7.7,8.1,2ZM1583.5,651.6c-1.6.8-2.9,2.1-3.8,3.9-1,1.7-1.5,3.9-1.5,6.5s.5,4.7,1.5,6.4,2.3,3,3.8,3.9c1.6.8,3.3,1.3,5.2,1.3s3.6-.4,5.2-1.3c1.6-.8,2.9-2.1,3.8-3.9s1.5-3.9,1.5-6.4-.5-4.7-1.5-6.5c-1-1.7-2.3-3-3.8-3.9-1.6-.8-3.3-1.3-5.2-1.3s-3.6.4-5.2,1.3Z"/>
              <path class="cls-5" d="M1621.1,647.5c2-1.2,4.4-1.8,7.1-1.8v5.7h-1.6c-2.9,0-5.4.8-7.2,2.3s-2.8,4-2.8,7.5v16.6h-5.2v-31.5h5.2v6.4c1-2.2,2.5-3.9,4.5-5.1Z"/>
            </g>
          </g>
        </g>
        <g>
          <path class="cls-5" d="M1415.9,489.4c16.5-3.9,31.1,9.3,27.6,26.9.9,0,1.8,0,2.6,0h57.2c3.8,0,3.9,0,4-3.9v-6h-33.7c-7.9,0-10.5-2.5-10.5-10.3-5.8-2.1-7.5-4.5-7.1-9.6-2.5-1.7-5-2.9-6.8-4.7-1-1-1.4-3.1-1.4-4.7,0-4.2,2.7-6.6,8.3-7.9-.6-6.9,2.5-10.2,9.4-10.2h15.6c.9,0,1.7,0,2.6-.1,0-.4,0-.6,0-.7-2.6-7.5-.2-11,7.7-11h16v-19.4c0-1.8-.5-2.9-2.5-2.9h-29.1v22.9c0,3.4-1.9,4.5-4.9,2.7-2.6-1.6-5.1-3.3-7.8-4.8-.7-.4-2-.4-2.8,0-2.7,1.5-5.2,3.2-7.8,4.8-2.9,1.8-4.9.7-4.9-2.7v-22.7c-1,0-1.8-.2-2.6-.2h-25.5c-3.3,0-3.6.3-3.6,3.5v15.8c0,1.9-.3,3.8-2.7,3.8s-2.7-1.8-2.7-3.7v-16.9c0-4.9,3-7.9,7.9-7.9h86.5c4.9,0,7.8,2.9,7.9,7.9v20.1c0,1.1.7,2.5,1.5,3.3,2.4,2.6,5.1,5,7.6,7.5s5.2,3.8,8.8,3.6c5.1-.2,7.1,1.9,7.1,7.1v22.8c0,4.6-2.1,6.7-6.7,6.7h-8.1c-1.3,0-2.7.1-4,.5-4.7,1.5-6.4,4-6.4,8.9v6.2c0,4.3-2.9,7.2-7.2,7.4h-61.7c-1.9,0-3,.5-4.2,2-5.7,7.1-13.2,10-22.1,8-8.6-2-14.2-7.5-16.3-16.1-2.1-8.8.6-16.3,7.5-22.1,1.5-1.2,2-2.4,2-4.3,0-6.2,0-12.4,0-18.5s.4-3.8,2.7-3.8,2.7,1.9,2.7,3.9v18.7ZM1488.2,452.7c0,4.1,2,6.2,5.8,6.4,3.1.1,6.3,0,9.4,0s3,.9,2.7,2.6c-.2,1.1-1.6,2-2.7,2.7-.6.4-1.6.1-2.4.1h-36c-1.8,0-3.6.2-3.7,2.5,0,2.3,1.7,2.6,3.6,2.6h13.7c2,0,3.8.4,3.8,2.7s-1.8,2.7-3.8,2.7h-20.9c-.7,0-1.6-.2-2.1,0-.9.6-2.3,1.5-2.3,2.4s1.2,1.9,2.1,2.5c.6.4,1.6.2,2.4.2h21.8c1.8,0,3,.8,3,2.7s-1.3,2.7-3.1,2.7h-14.5c-1.9,0-3.6.3-3.5,2.6,0,2.1,1.6,2.5,3.4,2.4h14.2c2,0,3.5.7,3.4,2.9,0,2-1.6,2.6-3.4,2.5h-7.2c-1.8,0-3.3.5-3.3,2.6s1.4,2.5,3.1,2.5h1.6c9.1,0,18.3-.2,27.4,0,4.4.1,8-1,11.3-3.8,3.4-2.9,7.4-4.2,11.9-4,2.8.1,5.6,0,8.5,0v-25.7c-9.4-1-10.8-1.2-15.6-6.9-5.2-6.2-11.2-9.1-19.2-8.1-3.1.4-6.2,0-9.3,0v.2ZM1438.6,510.7c0-9.1-7.1-16.5-16.2-16.5s-16.6,7.2-16.7,16.4c0,9,7.4,16.4,16.3,16.5,9.1,0,16.4-7.2,16.5-16.3h0ZM1453.1,443.7c2.4-1.5,4.4-2.6,6.3-3.9,1.5-1,2.9-1.1,4.4,0,2,1.3,4,2.5,6.3,3.9v-18.5h-17.1v18.5h0Z"/>
          <path class="cls-5" d="M1416.2,458.3c-1.1.7-2.3,2-3.2,1.8-1-.2-2.2-1.7-2.3-2.8,0-.7,1.6-2.2,2.5-2.2s2,1.3,3.1,2v1.2h0Z"/>
          <path class="cls-5" d="M1420,511.7c2.1-2.5,4.1-4.9,6.1-7.3,1.1-1.4,2.5-2.3,4.1-1,1.8,1.4,1.3,2.9,0,4.4-2.5,3-5.1,6-7.6,9-1.4,1.7-2.9,1.9-4.6.4-1.2-1.1-2.5-2.1-3.7-3.1-1.3-1.1-1.8-2.6-.6-4,1.2-1.5,2.6-1.2,4-.2.7.5,1.4,1.1,2.2,1.7h0Z"/>
        </g>
        <g>
          <path class="cls-13" d="M449.7,533.3h8v-28.6h-59.4c-3.7,0-3.9-.3-3.9-3.9v-29.2c0-.5-.2-1.2,0-1.5.5-.8,1.3-1.5,1.9-2.3.7.8,1.5,1.5,2.1,2.4.3.4,0,1.2,0,1.8v28.5h36.7c0-.5.2-1.1.2-1.7v-37.4c0-9.2-6.8-16.7-16.1-18.1-8.8-1.3-17.4,4.3-20,12.9-.5,1.5-.7,3.2-.8,4.8-.1,1.4-.4,2.7-2.1,2.6-1.8,0-2.1-1.4-2.1-2.9,0-11.1,9.9-21.4,21.3-21.6,14.5-.2,29-.1,43.6,0,.9,0,2.5,1.1,2.7,1.9.3,1.7-1.1,2.2-2.7,2.2h-28.8c.4.5.5.8.7.9,5.8,4.9,8.4,11.2,8.4,18.7v37.6h65.3c0-.2.2-.3.2-.5,0-13.1.2-26.1,0-39.2-.1-8.8-6.9-16.4-15.9-17.3-6.1-.6-12.4-.1-18.9-.1v15.4c0,.6,1,1.4,1.7,1.8,3.4,1.9,5.1,5.6,4.2,9.1-.9,3.8-4.2,6.4-8,6.4s-7.1-2.6-8-6.3c-.9-3.4.7-7.3,4-8.9,1.8-.8,2-1.9,2-3.5v-38.9c0-3.5.3-3.8,3.8-3.8h15.6c2.3,0,3.2.9,3.2,3.2v10c0,2.3-.8,3.3-3.1,3.3s-5.8.1-8.7-.1c-.9,0-2.3-1.1-2.4-1.9-.3-1.6.9-2.2,2.4-2.1h7.5v-8h-14v20.3h15.1c14,0,23.6,9.6,23.7,23.7v38.4c0,3.1-.4,3.5-3.6,3.5h-43.6v29.5c0,2.4-.9,3.4-3.3,3.3-3.3,0-6.7,0-10,0s-3.2-.7-3.1-3v-22.8c0-1.5.2-2.9,2.1-2.9s2.1,1.4,2.1,2.9v21.6-.2ZM472.2,467.7c0-2.2-1.9-4-4.1-4s-4,1.8-4.1,4c0,2.3,1.9,4.2,4.2,4.2s4-1.9,4-4.1h0Z"/>
          <path class="cls-13" d="M416.9,474h-11.3c-2.1,0-3.2-.8-3.1-3v-6.7c0-1.8.8-2.7,2.6-2.7h23.5c1.8,0,2.6.9,2.6,2.7v6.9c0,2-1,2.7-2.9,2.7h-11.5,0ZM406.7,469.7h20.3v-3.8h-20.3v3.8Z"/>
        </g>
      </g>
    </g>
  </g>
</svg>