<?xml version="1.0" encoding="UTF-8"?>
<svg id="Capa_1" data-name="Capa 1" xmlns="http://www.w3.org/2000/svg" version="1.1" xmlns:xlink="http://www.w3.org/1999/xlink" viewBox="0 0 1080 1920">
  <defs>
    <style>
      .cls-1 {
        fill: url(#Degradado_sin_nombre_12);
      }

      .cls-1, .cls-2, .cls-3, .cls-4, .cls-5, .cls-6, .cls-7, .cls-8, .cls-9, .cls-10, .cls-11, .cls-12, .cls-13, .cls-14, .cls-15, .cls-16 {
        stroke-width: 0px;
      }

      .cls-2 {
        fill: url(#Degradado_sin_nombre_8);
      }

      .cls-3 {
        fill: url(#Degradado_sin_nombre_7);
      }

      .cls-3, .cls-17, .cls-7, .cls-10, .cls-15 {
        isolation: isolate;
      }

      .cls-3, .cls-7, .cls-10, .cls-15 {
        mix-blend-mode: multiply;
        opacity: .5;
      }

      .cls-4 {
        fill: #002075;
      }

      .cls-5 {
        fill: #dd6900;
      }

      .cls-6 {
        fill: #f7f7f7;
      }

      .cls-7 {
        fill: url(#Degradado_sin_nombre_9);
      }

      .cls-8 {
        fill: url(#Degradado_sin_nombre_4);
      }

      .cls-9 {
        fill: url(#Degradado_sin_nombre_11);
      }

      .cls-10 {
        fill: url(#Degradado_sin_nombre);
      }

      .cls-11 {
        fill: #c60;
      }

      .cls-12 {
        fill: url(#Degradado_sin_nombre_2);
      }

      .cls-13 {
        fill: url(#Degradado_sin_nombre_10);
      }

      .cls-14 {
        fill: url(#Degradado_sin_nombre_5);
      }

      .cls-15 {
        fill: url(#Degradado_sin_nombre_3);
      }

      .cls-16 {
        fill: url(#Degradado_sin_nombre_6);
      }
    </style>
    <radialGradient id="Degradado_sin_nombre" data-name="Degradado sin nombre" cx="-467.8" cy="673" fx="-467.8" fy="673" r="400" gradientTransform="translate(1214.4 911.1) rotate(90)" gradientUnits="userSpaceOnUse">
      <stop offset="0" stop-color="#ffd73d"/>
      <stop offset=".3" stop-color="#ffe47e"/>
      <stop offset=".5" stop-color="#ffefb5"/>
      <stop offset=".7" stop-color="#fff8dd"/>
      <stop offset=".9" stop-color="#fffdf6"/>
      <stop offset="1" stop-color="#fff"/>
    </radialGradient>
    <radialGradient id="Degradado_sin_nombre_2" data-name="Degradado sin nombre 2" cx="-467.8" cy="673" fx="-467.8" fy="673" r="338.3" gradientTransform="translate(1214.4 911.1) rotate(90)" gradientUnits="userSpaceOnUse">
      <stop offset="0" stop-color="#fff"/>
      <stop offset=".7" stop-color="#fdfdfd"/>
      <stop offset="1" stop-color="#f7f7f7"/>
    </radialGradient>
    <radialGradient id="Degradado_sin_nombre_3" data-name="Degradado sin nombre 3" cx="-467.8" cy="479.4" fx="-467.8" fy="479.4" r="324.5" gradientTransform="translate(1069.7 911.1) rotate(90)" gradientUnits="userSpaceOnUse">
      <stop offset="0" stop-color="#dd6900"/>
      <stop offset="1" stop-color="#fff"/>
    </radialGradient>
    <linearGradient id="Degradado_sin_nombre_4" data-name="Degradado sin nombre 4" x1="-467.8" y1="938" x2="-467.8" y2="408.1" gradientTransform="translate(1214.4 911.1) rotate(90)" gradientUnits="userSpaceOnUse">
      <stop offset="0" stop-color="#fff"/>
      <stop offset="0" stop-color="#fefcfa"/>
      <stop offset=".2" stop-color="#fcf5ee"/>
      <stop offset=".4" stop-color="#fae9d9"/>
      <stop offset=".5" stop-color="#f6d7bc"/>
      <stop offset=".6" stop-color="#f1c196"/>
      <stop offset=".8" stop-color="#eba669"/>
      <stop offset=".9" stop-color="#e38733"/>
      <stop offset="1" stop-color="#dd6900"/>
    </linearGradient>
    <linearGradient id="Degradado_sin_nombre_5" data-name="Degradado sin nombre 5" x1="-467.9" y1="929.3" x2="-467.9" y2="416.9" gradientTransform="translate(1214.4 911.1) rotate(90)" gradientUnits="userSpaceOnUse">
      <stop offset="0" stop-color="#fff"/>
      <stop offset=".3" stop-color="#fafafa"/>
      <stop offset=".6" stop-color="#eee"/>
      <stop offset=".9" stop-color="#d9d9d9"/>
      <stop offset="1" stop-color="#cfcfcf"/>
    </linearGradient>
    <radialGradient id="Degradado_sin_nombre_6" data-name="Degradado sin nombre 6" cx="-68.9" cy="674.4" fx="-68.9" fy="674.4" r="31.9" gradientTransform="translate(1214.4 911.1) rotate(90)" gradientUnits="userSpaceOnUse">
      <stop offset="0" stop-color="#fff"/>
      <stop offset=".6" stop-color="#fdfdfd"/>
      <stop offset=".9" stop-color="#f6f6f6"/>
      <stop offset="1" stop-color="#efefef"/>
    </radialGradient>
    <radialGradient id="Degradado_sin_nombre_7" data-name="Degradado sin nombre 7" cx="1007.1" cy="231.5" fx="1007.1" fy="231.5" r="400" gradientTransform="translate(772.9 469.6) rotate(90)" gradientUnits="userSpaceOnUse">
      <stop offset="0" stop-color="#01b8e0"/>
      <stop offset=".2" stop-color="#39c7e6"/>
      <stop offset=".4" stop-color="#7edbef"/>
      <stop offset=".6" stop-color="#b5eaf6"/>
      <stop offset=".8" stop-color="#ddf5fa"/>
      <stop offset=".9" stop-color="#f6fcfd"/>
      <stop offset="1" stop-color="#fff"/>
    </radialGradient>
    <radialGradient id="Degradado_sin_nombre_8" data-name="Degradado sin nombre 8" cx="1007.1" cy="231.5" fx="1007.1" fy="231.5" r="338.3" gradientTransform="translate(772.9 469.6) rotate(90)" gradientUnits="userSpaceOnUse">
      <stop offset="0" stop-color="#fff"/>
      <stop offset=".7" stop-color="#fdfdfd"/>
      <stop offset="1" stop-color="#f7f7f7"/>
    </radialGradient>
    <radialGradient id="Degradado_sin_nombre_9" data-name="Degradado sin nombre 9" cx="1007.1" cy="28.9" fx="1007.1" fy="28.9" r="324.5" gradientTransform="translate(628.2 469.6) rotate(90)" gradientUnits="userSpaceOnUse">
      <stop offset="0" stop-color="#002075"/>
      <stop offset="1" stop-color="#fff"/>
    </radialGradient>
    <linearGradient id="Degradado_sin_nombre_10" data-name="Degradado sin nombre 10" x1="1007.1" y1="496.5" x2="1007.1" y2="-33.4" gradientTransform="translate(772.9 469.6) rotate(90)" gradientUnits="userSpaceOnUse">
      <stop offset="0" stop-color="#fff"/>
      <stop offset="0" stop-color="#fafbfc"/>
      <stop offset=".2" stop-color="#eef0f6"/>
      <stop offset=".4" stop-color="#d9deea"/>
      <stop offset=".5" stop-color="#bcc4db"/>
      <stop offset=".6" stop-color="#96a4c6"/>
      <stop offset=".8" stop-color="#697bad"/>
      <stop offset=".9" stop-color="#334d91"/>
      <stop offset="1" stop-color="#002075"/>
    </linearGradient>
    <linearGradient id="Degradado_sin_nombre_11" data-name="Degradado sin nombre 11" x1="1007" y1="487.8" x2="1007" y2="-24.6" gradientTransform="translate(772.9 469.6) rotate(90)" gradientUnits="userSpaceOnUse">
      <stop offset="0" stop-color="#fff"/>
      <stop offset=".3" stop-color="#fafafa"/>
      <stop offset=".6" stop-color="#eee"/>
      <stop offset=".9" stop-color="#d9d9d9"/>
      <stop offset="1" stop-color="#cfcfcf"/>
    </linearGradient>
    <radialGradient id="Degradado_sin_nombre_12" data-name="Degradado sin nombre 12" cx="607.1" cy="232.5" fx="607.1" fy="232.5" r="31.9" gradientTransform="translate(772.9 469.6) rotate(90)" gradientUnits="userSpaceOnUse">
      <stop offset="0" stop-color="#fff"/>
      <stop offset=".6" stop-color="#fdfdfd"/>
      <stop offset=".9" stop-color="#f6f6f6"/>
      <stop offset="1" stop-color="#efefef"/>
    </radialGradient>
  </defs>
  <g class="cls-17">
    <g id="Capa_1-2" data-name="Capa 1">
      <g>
        <g>
          <g>
            <circle class="cls-10" cx="541.4" cy="443.3" r="400"/>
            <circle class="cls-12" cx="541.4" cy="443.3" r="338.3"/>
            <circle class="cls-15" cx="567.3" cy="443.3" r="324.5"/>
            <path class="cls-8" d="M557.5,707.7c35.7-2.2,69.9-11.3,101.7-27.1,30.7-15.3,57.8-36.1,80.6-61.8,22.8-25.8,40.1-55.2,51.5-87.5,10-28.3,15-57.7,15-87.7s-.2-11-.5-16.5c-2.2-35.7-11.3-69.9-27.1-101.7-15.3-30.7-36-57.8-61.8-80.6-25.8-22.8-55.2-40.1-87.5-51.5-33.5-11.8-68.5-16.7-104.2-14.5s-69.9,11.3-101.7,27.1c-30.7,15.2-57.8,36-80.6,61.8-22.8,25.8-40.1,55.2-51.5,87.5-11.8,33.5-16.7,68.5-14.5,104.2s11.3,69.9,27.1,101.7c15.3,30.7,36,57.8,61.8,80.6s55.2,40.1,87.5,51.5c33.5,11.8,68.5,16.7,104.2,14.5ZM285.8,458.9c-.3-5.3-.5-10.7-.5-16,0-62.5,22.5-122.1,64.3-169.3,45.3-51.2,107.9-81.7,176.1-85.9,68.3-4.2,134.1,18.5,185.3,63.8s81.7,107.9,85.9,176.1c8.6,140.9-99,262.6-239.9,271.2-140.9,8.6-262.6-99-271.2-239.9Z"/>
            <path class="cls-14" d="M557,698.9c34.5-2.1,67.6-10.9,98.3-26.2,29.7-14.7,55.9-34.8,77.9-59.8,22-24.9,38.8-53.4,49.8-84.6,9.6-27.3,14.5-55.8,14.5-84.8s-.2-10.6-.5-16c-2.1-34.5-10.9-67.6-26.2-98.3-14.7-29.7-34.8-55.9-59.8-77.9-24.9-22-53.4-38.8-84.6-49.8-32.3-11.4-66.2-16.1-100.8-14-34.5,2.1-67.6,10.9-98.3,26.2-29.7,14.7-55.9,34.8-77.9,59.8-22,24.9-38.8,53.4-49.8,84.6-11.4,32.3-16.1,66.2-14,100.7s10.9,67.6,26.2,98.3c14.7,29.7,34.8,55.9,59.8,77.9,24.9,22,53.4,38.8,84.6,49.8,32.3,11.4,66.2,16.1,100.8,14h0ZM294.3,458.4c-.3-5.2-.5-10.3-.5-15.4,0-60.4,21.8-118,62.1-163.7,43.8-49.5,104.3-79,170.3-83s129.6,17.9,179.1,61.7c49.5,43.8,79,104.3,83,170.3,8.3,136.2-95.7,253.8-231.9,262.2-136.2,8.3-253.8-95.7-262.2-231.9v-.2Z"/>
            <circle class="cls-6" cx="541.4" cy="443.3" r="247.5"/>
          </g>
          <g>
            <g>
              <path class="cls-16" d="M571.9,842.2c0-17.6-14.3-31.9-31.9-31.9s-31.9,14.3-31.9,31.9,14.3,31.9,31.9,31.9,31.9-14.3,31.9-31.9Z"/>
              <circle class="cls-5" cx="540" cy="842.2" r="16"/>
            </g>
            <g>
              <rect class="cls-5" x="535.2" y="893.1" width="9.6" height="129.6"/>
              <g>
                <path class="cls-5" d="M715.6,90.3c-2.4-1.2-3.3-4.1-2.1-6.4,1.2-2.4,4.1-3.3,6.4-2.1l.7.4c1.7.8,2.6,2.5,2.6,4.3s-.2,1.5-.5,2.1c-1.2,2.4-4.1,3.3-6.4,2.1l-.7-.4Z"/>
                <path class="cls-5" d="M777.4,128.6c-2.1-1.6-2.5-4.6-.9-6.7s4.6-2.5,6.7-.9l.6.5c1.2.9,1.9,2.4,1.9,3.8s-.3,2-1,2.9c-1.6,2.1-4.6,2.5-6.7.9l-.6-.5Z"/>
                <path class="cls-5" d="M747.4,108c-2.3-1.4-3-4.3-1.6-6.6,1.4-2.3,4.3-3,6.6-1.6l.7.4c1.5.9,2.3,2.5,2.3,4.1s-.2,1.7-.7,2.5c-1.4,2.2-4.4,2.9-6.6,1.5l-.7-.4h0Z"/>
                <path class="cls-5" d="M682.3,75.6c-2.5-1-3.7-3.7-2.7-6.2s3.7-3.7,6.2-2.7l.8.3c1.9.7,3,2.5,3,4.5s0,1.2-.3,1.7c-1,2.5-3.7,3.7-6.2,2.7l-.7-.3h0Z"/>
                <path class="cls-5" d="M805.4,151.8c-2-1.8-2.1-4.8-.3-6.8s4.8-2.1,6.8-.3l.6.5c1,.9,1.6,2.2,1.6,3.5s-.4,2.3-1.3,3.2c-1.8,2-4.8,2.1-6.8.3l-.6-.5h0Z"/>
                <path class="cls-5" d="M647.8,64c-2.5-.7-4-3.4-3.3-5.9s3.4-4,5.9-3.3l.8.2c2.1.6,3.5,2.5,3.5,4.6s0,.9-.2,1.3c-.7,2.5-3.4,4-5.9,3.3,0,0-.8-.2-.8-.2Z"/>
                <path class="cls-5" d="M577.1,50.8h-.8c-2.6-.3-4.6-2.6-4.3-5.3.2-2.6,2.6-4.6,5.2-4.3h.8c2.5.3,4.3,2.4,4.3,4.8s0,.3,0,.4c-.2,2.6-2.6,4.6-5.2,4.3h0Z"/>
                <path class="cls-5" d="M613.2,55.9h-.8c-2.6-.6-4.3-3.1-3.8-5.7.5-2.6,3-4.3,5.6-3.8h.8c2.3.6,3.9,2.6,3.9,4.8s0,.6,0,.9c-.5,2.6-3,4.3-5.6,3.8h-.1Z"/>
                <path class="cls-5" d="M927.6,371.4v-.8c-.6-2.6,1.1-5.1,3.7-5.6,2.6-.5,5.1,1.2,5.6,3.8v.8c.2.3.2.6.2.9,0,2.3-1.6,4.3-3.9,4.7-2.6.5-5.1-1.2-5.6-3.8Z"/>
                <path class="cls-5" d="M919.4,335.9l-.2-.8c-.7-2.5.8-5.2,3.3-5.9,2.5-.7,5.2.8,5.9,3.3l.2.8c0,.4.2.9.2,1.3,0,2.1-1.4,4-3.5,4.6-2.5.7-5.2-.8-5.9-3.3Z"/>
                <path class="cls-5" d="M907.9,301.4l-.3-.7c-1-2.5.3-5.2,2.7-6.2,2.5-1,5.2.3,6.2,2.7l.3.8c.2.6.3,1.2.3,1.7,0,1.9-1.2,3.7-3.1,4.5-2.5,1-5.2-.3-6.2-2.7h0Z"/>
                <path class="cls-5" d="M932.6,407.5v-.8c-.3-2.6,1.6-5,4.3-5.2,2.6-.2,5,1.7,5.2,4.3v1.2c0,2.4-1.9,4.5-4.4,4.8-2.6.2-5-1.7-5.2-4.3h.1Z"/>
                <path class="cls-5" d="M855,206.2l-.5-.6c-1.6-2.1-1.2-5.1.9-6.7,2.1-1.6,5.1-1.2,6.7.9l.5.6c.7.9,1,1.9,1,2.9s-.7,2.9-1.9,3.8c-2.1,1.6-5.1,1.2-6.7-.9Z"/>
                <path class="cls-5" d="M831.2,177.6c-1.8-2-1.6-5,.3-6.8,2-1.8,5-1.6,6.8.3l.5.6c.8.9,1.2,2.1,1.2,3.2s-.5,2.6-1.6,3.5c-2,1.8-5,1.6-6.8-.3l-.5-.6h0Z"/>
                <path class="cls-5" d="M875.5,236.3l-.4-.7c-1.4-2.2-.7-5.2,1.5-6.6,2.2-1.4,5.2-.7,6.6,1.5l.4.7c.5.8.7,1.7.7,2.5,0,1.6-.8,3.2-2.3,4.1-2.2,1.4-5.2.7-6.6-1.5h0Z"/>
                <path class="cls-5" d="M893.2,268.1l-.4-.7c-1.2-2.4-.2-5.2,2.1-6.4,2.4-1.2,5.2-.2,6.4,2.1l.4.7c.3.7.5,1.4.5,2.1,0,1.8-1,3.5-2.7,4.3-2.4,1.2-5.2.2-6.4-2.2h.1Z"/>
                <path class="cls-5" d="M485.3,843.3c-95.2-12.9-182.8-59.6-247.1-131.8-65.8-73.9-102-169.2-102-268.3s10.7-107.4,31.7-157.2c20.3-48.1,49.4-91.3,86.5-128.3,37.1-37.1,80.3-66.2,128.3-86.5,49.8-21.1,102.7-31.7,157.2-31.7s4.8,2.1,4.8,4.8-2.1,4.8-4.8,4.8c-217.3,0-394.2,176.8-394.2,394.2s148.3,366.7,345.1,391.1l4.6.6-.4,4.6c-.1,1.2-.2,2.5-.2,3.7,0,24.9,20.2,45.1,45.1,45.1s45.1-20.2,45.1-45.1,0-2.5-.2-3.7l-.4-4.6,4.6-.6c196.7-24.4,345.1-192.6,345.1-391.1s2.1-4.8,4.8-4.8,4.8,2.1,4.8,4.8c0,99.1-36.2,194.3-102,268.3-64.3,72.2-151.9,118.9-247.1,131.8,0,30.1-24.5,54.6-54.7,54.6s-54.6-24.5-54.7-54.6h.1Z"/>
              </g>
            </g>
          </g>
        </g>
        <g>
          <g>
            <circle class="cls-3" cx="541.4" cy="1476.7" r="400"/>
            <circle class="cls-2" cx="541.4" cy="1476.7" r="338.3"/>
            <circle class="cls-7" cx="567.3" cy="1476.7" r="324.5"/>
            <path class="cls-13" d="M557.5,1741.2c35.7-2.2,69.9-11.3,101.7-27.1,30.7-15.3,57.8-36.1,80.6-61.8,22.8-25.8,40.1-55.2,51.5-87.5,10-28.3,15-57.7,15-87.7s-.2-11-.5-16.5c-2.2-35.7-11.3-69.9-27.1-101.7-15.3-30.7-36-57.8-61.8-80.6-25.8-22.8-55.2-40.1-87.5-51.5-33.5-11.8-68.5-16.7-104.2-14.5s-69.9,11.3-101.7,27.1c-30.7,15.2-57.8,36-80.6,61.8-22.8,25.8-40.1,55.2-51.5,87.5-11.8,33.5-16.7,68.5-14.5,104.2s11.3,69.9,27.1,101.7c15.3,30.7,36,57.8,61.8,80.6,25.8,22.8,55.2,40.1,87.5,51.5,33.5,11.8,68.5,16.7,104.2,14.5ZM285.8,1492.4c-.3-5.3-.5-10.7-.5-16,0-62.5,22.5-122.1,64.3-169.3,45.3-51.2,107.9-81.7,176.1-85.9,68.3-4.2,134.1,18.5,185.3,63.8s81.7,107.9,85.9,176.1c8.6,140.9-99,262.6-239.9,271.2-140.9,8.6-262.6-99-271.2-239.9Z"/>
            <path class="cls-9" d="M557,1732.4c34.5-2.1,67.6-10.9,98.3-26.2,29.7-14.7,55.9-34.8,77.9-59.8,22-24.9,38.8-53.4,49.8-84.6,9.6-27.3,14.5-55.8,14.5-84.8s-.2-10.6-.5-16c-2.1-34.5-10.9-67.6-26.2-98.3-14.7-29.7-34.8-55.9-59.8-77.9-24.9-22-53.4-38.8-84.6-49.8-32.3-11.4-66.2-16.1-100.8-14-34.5,2.1-67.6,10.9-98.3,26.2-29.7,14.7-55.9,34.8-77.9,59.8-22,24.9-38.8,53.4-49.8,84.6-11.4,32.3-16.1,66.2-14,100.7s10.9,67.6,26.2,98.3c14.7,29.7,34.8,55.9,59.8,77.9,24.9,22,53.4,38.8,84.6,49.8,32.3,11.4,66.2,16.1,100.8,14h0ZM294.3,1491.9c-.3-5.2-.5-10.3-.5-15.4,0-60.4,21.8-118,62.1-163.7,43.8-49.5,104.3-79,170.3-83s129.6,17.9,179.1,61.7c49.5,43.8,79,104.3,83,170.3,8.3,136.2-95.7,253.8-231.9,262.2-136.2,8.3-253.8-95.7-262.2-231.9v-.2Z"/>
            <circle class="cls-6" cx="541.4" cy="1476.7" r="247.5"/>
          </g>
          <g>
            <g>
              <path class="cls-1" d="M572.3,1076.8c0-17.6-14.3-31.9-31.9-31.9s-31.9,14.3-31.9,31.9,14.3,31.9,31.9,31.9,31.9-14.3,31.9-31.9Z"/>
              <circle class="cls-4" cx="540.4" cy="1076.8" r="16"/>
            </g>
            <g>
              <path class="cls-4" d="M398.1,1844.6c1.9.7,3.1,2.5,3.1,4.5s-.1,1.2-.3,1.7c-1,2.5-3.7,3.7-6.2,2.7l-.8-.3c-2.5-1-3.7-3.7-2.7-6.2s3.7-3.7,6.2-2.7l.7.3h0Z"/>
              <path class="cls-4" d="M364.8,1830c1.7.8,2.7,2.5,2.7,4.3s-.2,1.4-.5,2.1c-1.2,2.4-4,3.3-6.4,2.2l-.7-.4c-2.4-1.2-3.3-4.1-2.1-6.4,1.2-2.4,4.1-3.3,6.4-2.1l.7.4h-.1Z"/>
              <path class="cls-4" d="M333,1812.3c1.5.9,2.3,2.5,2.3,4.1s-.2,1.7-.7,2.5c-1.4,2.2-4.3,2.9-6.6,1.5l-.7-.4c-2.2-1.4-2.9-4.3-1.5-6.6,1.4-2.2,4.3-2.9,6.6-1.5l.7.4h0Z"/>
              <path class="cls-4" d="M274.9,1768.5c1,.9,1.6,2.2,1.6,3.5s-.4,2.3-1.2,3.2c-1.8,2-4.8,2.1-6.8.3l-.6-.5c-2-1.8-2.1-4.8-.3-6.8,1.8-2,4.8-2.1,6.8-.3l.6.5h-.1Z"/>
              <path class="cls-4" d="M303,1791.7c1.2.9,1.9,2.4,1.9,3.8s-.3,2-1,2.9c-1.6,2.1-4.6,2.5-6.7.9l-.6-.5c-2.1-1.6-2.5-4.6-.9-6.7s4.6-2.5,6.7-.9l.6.5h0Z"/>
              <path class="cls-4" d="M503.4,1869.2h.8c2.5.3,4.4,2.4,4.4,4.8s0,.3,0,.4c-.2,2.6-2.6,4.6-5.2,4.3h-.8c-2.6-.3-4.6-2.6-4.3-5.3.2-2.6,2.6-4.6,5.2-4.3h-.1Z"/>
              <path class="cls-4" d="M467.4,1864.2h.8c2.3.6,3.9,2.6,3.9,4.8s0,.6,0,.9c-.5,2.6-3,4.3-5.6,3.8h-.8c-2.6-.6-4.3-3.1-3.8-5.7s3-4.3,5.6-3.8h-.1Z"/>
              <path class="cls-4" d="M432.7,1856.1c2.1.6,3.5,2.5,3.5,4.6s0,.9-.2,1.3c-.7,2.5-3.4,4-5.9,3.3l-.8-.2c-2.5-.7-4-3.4-3.3-5.9s3.4-4,5.9-3.3l.8.2Z"/>
              <path class="cls-4" d="M152.5,1549.1v.8c.2.3.2.6.2.9,0,2.3-1.6,4.3-3.9,4.7-2.6.5-5.1-1.2-5.6-3.8v-.8c-.6-2.6,1.1-5.1,3.7-5.6,2.6-.5,5.1,1.2,5.6,3.8Z"/>
              <path class="cls-4" d="M172.3,1619.1l.3.7c.2.6.3,1.2.3,1.7,0,1.9-1.2,3.7-3,4.5-2.5,1-5.2-.3-6.2-2.7l-.3-.8c-1-2.5.3-5.2,2.7-6.2,2.5-1,5.2.3,6.2,2.7h0Z"/>
              <path class="cls-4" d="M249.1,1742.8c.8.9,1.3,2.1,1.3,3.2s-.5,2.6-1.6,3.5c-2,1.8-5,1.7-6.8-.3l-.5-.6c-1.8-2-1.6-5,.3-6.8,2-1.8,5-1.6,6.8.3l.5.6h0Z"/>
              <path class="cls-4" d="M147.5,1513.1v1.2c0,2.4-1.9,4.5-4.3,4.8-2.6.2-5-1.7-5.2-4.3v-.8c-.3-2.6,1.6-5,4.3-5.2,2.6-.2,5,1.7,5.2,4.3h0Z"/>
              <path class="cls-4" d="M160.7,1584.6l.2.8c.1.4.2.9.2,1.3,0,2.1-1.4,4-3.5,4.6-2.5.7-5.2-.7-5.9-3.3l-.2-.8c-.7-2.5.8-5.2,3.3-5.9,2.5-.7,5.2.8,5.9,3.3Z"/>
              <path class="cls-4" d="M225.3,1714.2l.5.6c.7.9,1,1.9,1,2.9s-.7,2.9-1.9,3.8c-2.1,1.6-5.1,1.2-6.7-.9l-.5-.6c-1.6-2.1-1.2-5.1.9-6.7,2.1-1.6,5.1-1.2,6.7.9h0Z"/>
              <path class="cls-4" d="M187,1652.4l.4.7c.3.7.5,1.4.5,2.1,0,1.8-1,3.4-2.6,4.3-2.4,1.2-5.2.2-6.4-2.1l-.4-.7c-1.2-2.4-.2-5.2,2.1-6.4,2.4-1.2,5.2-.2,6.4,2.1Z"/>
              <path class="cls-4" d="M204.8,1684.2l.4.7c.5.8.7,1.7.7,2.5,0,1.6-.8,3.2-2.3,4.1-2.2,1.4-5.2.7-6.6-1.5l-.4-.7c-1.4-2.3-.7-5.2,1.6-6.6s5.2-.7,6.6,1.6h0Z"/>
              <path class="cls-4" d="M535.2,1875.7c0-2.6,2.1-4.8,4.8-4.8,217.3,0,394.2-176.8,394.2-394.2s-148.3-366.7-345-391.1l-4.5-.6.3-4.5v-2.8c0-24.9-20.2-45.1-45.1-45.1s-45.1,20.2-45.1,45.1v2.8l.3,4.5-4.5.6c-196.7,24.5-345,192.6-345,391.1s-2.1,4.8-4.8,4.8-4.8-2.1-4.8-4.8c0-99.1,36.2-194.3,102-268.2,64.3-72.2,151.9-118.9,247.1-131.8.6-29.6,24.9-53.5,54.6-53.5s54,23.9,54.6,53.5c95.2,12.9,182.9,59.6,247.1,131.8,65.8,73.9,102,169.2,102,268.2s-10.7,107.4-31.7,157.2c-20.3,48.1-49.4,91.3-86.5,128.3s-80.3,66.2-128.3,86.5c-49.8,21.1-102.7,31.7-157.2,31.7s-4.8-2.1-4.8-4.8h.3Z"/>
            </g>
          </g>
        </g>
        <g class="cls-17">
          <g class="cls-17">
            <path class="cls-11" d="M413.6,475.1v14h15.6v4.1h-15.6v14.3h17.3v4.3h-22.6v-41h22.6v4.3h-17.3Z"/>
            <path class="cls-11" d="M463.5,483c2.3,2.4,3.4,5.8,3.4,10.3v18.5h-5.3v-18.1c0-3.2-.8-5.6-2.4-7.3-1.6-1.7-3.8-2.6-6.6-2.6s-5.2.9-7,2.8c-1.7,1.9-2.6,4.6-2.6,8.2v16.9h-5.3v-31.9h5.3v7.6c.8-2.6,2.3-4.6,4.3-6,2.1-1.4,4.5-2.1,7.2-2.1s6.7,1.2,9,3.6Z"/>
            <path class="cls-11" d="M487.5,506.2l9.9-26.3h5.7l-12.5,31.9h-6.3l-12.5-31.9h5.7l10,26.3Z"/>
            <path class="cls-11" d="M508.3,468.2c.7-.6,1.5-.9,2.6-.9s2,.3,2.6.9c.7.6,1,1.4,1,2.4s-.3,1.8-1,2.4c-.7.6-1.5.9-2.6.9s-2-.3-2.6-.9c-.7-.6-1-1.4-1-2.4s.3-1.8,1-2.4ZM513.5,479.9v31.9h-5.3v-31.9h5.3Z"/>
            <path class="cls-11" d="M542.9,481.8c2.1,1.5,3.7,3.6,4.5,6.2v-8.1h5.3v31.9h-5.3v-8.1c-.9,2.6-2.4,4.7-4.5,6.2-2.1,1.5-4.8,2.3-7.9,2.3s-5.3-.7-7.6-2c-2.2-1.3-3.9-3.2-5.2-5.7-1.3-2.5-1.9-5.4-1.9-8.7s.6-6.2,1.9-8.7c1.3-2.5,3-4.4,5.2-5.7,2.2-1.3,4.7-2,7.6-2s5.7.8,7.9,2.3ZM528.8,487.3c-2,2.1-2.9,4.9-2.9,8.6s1,6.5,2.9,8.6c2,2.1,4.6,3.1,7.8,3.1s4-.5,5.6-1.5c1.6-1,2.9-2.3,3.9-4.1.9-1.8,1.4-3.8,1.4-6.1s-.5-4.4-1.4-6.2c-.9-1.8-2.2-3.1-3.9-4.1-1.6-.9-3.5-1.4-5.6-1.4-3.3,0-5.9,1-7.8,3.1Z"/>
            <path class="cls-11" d="M566.4,468.8v43h-5.3v-43h5.3Z"/>
            <path class="cls-11" d="M597.6,481.5c2.4,1.3,4.3,3.2,5.7,5.7,1.4,2.5,2.1,5.4,2.1,8.7s-.7,6.2-2.1,8.7c-1.4,2.5-3.3,4.3-5.7,5.7-2.4,1.3-5.2,2-8.2,2s-5.8-.7-8.2-2c-2.4-1.3-4.3-3.2-5.7-5.7-1.4-2.5-2.1-5.4-2.1-8.7s.7-6.2,2.1-8.7c1.4-2.5,3.3-4.4,5.7-5.7,2.4-1.3,5.2-2,8.2-2s5.8.7,8.2,2ZM584.1,485.4c-1.6.9-2.9,2.2-3.9,3.9-1,1.8-1.5,3.9-1.5,6.5s.5,4.7,1.5,6.5c1,1.8,2.3,3.1,3.9,3.9,1.6.9,3.4,1.3,5.3,1.3s3.7-.4,5.3-1.3c1.6-.9,2.9-2.2,3.9-3.9,1-1.8,1.5-3.9,1.5-6.5s-.5-4.8-1.5-6.5c-1-1.8-2.3-3.1-3.9-3.9-1.6-.9-3.4-1.3-5.3-1.3s-3.7.4-5.3,1.3Z"/>
            <path class="cls-11" d="M647.6,481.8c2.1,1.5,3.7,3.6,4.5,6.2v-8.1h5.3v31.9h-5.3v-8.1c-.9,2.6-2.4,4.7-4.5,6.2-2.1,1.5-4.8,2.3-7.9,2.3s-5.3-.7-7.6-2c-2.2-1.3-3.9-3.2-5.2-5.7-1.3-2.5-1.9-5.4-1.9-8.7s.6-6.2,1.9-8.7c1.3-2.5,3-4.4,5.2-5.7,2.2-1.3,4.7-2,7.6-2s5.7.8,7.9,2.3ZM633.4,487.3c-2,2.1-2.9,4.9-2.9,8.6s1,6.5,2.9,8.6c2,2.1,4.6,3.1,7.8,3.1s4-.5,5.6-1.5c1.6-1,2.9-2.3,3.9-4.1.9-1.8,1.4-3.8,1.4-6.1s-.5-4.4-1.4-6.2c-.9-1.8-2.2-3.1-3.9-4.1-1.6-.9-3.5-1.4-5.6-1.4-3.3,0-5.9,1-7.8,3.1Z"/>
          </g>
          <g class="cls-17">
            <path class="cls-11" d="M423,569.4v4.6h-4c-3.3,0-5.7-.8-7.3-2.3-1.6-1.5-2.4-4.1-2.4-7.8v-17.2h-4.8v-4.6h4.8v-8h5.3v8h8.2v4.6h-8.2v17.3c0,2.1.4,3.5,1.1,4.2.8.8,2.1,1.1,3.9,1.1h3.3Z"/>
            <path class="cls-11" d="M457.8,542.1v31.9h-5.3v-7.5c-.8,2.6-2.3,4.6-4.3,6-2.1,1.4-4.5,2.1-7.2,2.1s-6.7-1.2-8.9-3.6c-2.3-2.4-3.4-5.8-3.4-10.3v-18.6h5.3v18.1c0,3.2.8,5.6,2.4,7.3,1.6,1.7,3.8,2.6,6.6,2.6s5.2-.9,7-2.8c1.7-1.9,2.6-4.6,2.6-8.2v-17h5.3Z"/>
            <path class="cls-11" d="M504.8,545c2.7,2.2,4.3,5.1,4.9,8.7h-5.6c-.4-2.3-1.4-4.1-3.2-5.4-1.7-1.3-3.9-1.9-6.4-1.9s-3.6.4-5.1,1.3c-1.5.9-2.8,2.2-3.7,3.9-.9,1.8-1.4,3.9-1.4,6.5s.5,4.8,1.4,6.5,2.2,3.1,3.7,3.9c1.5.9,3.2,1.3,5.1,1.3s4.7-.7,6.4-2c1.7-1.3,2.8-3.1,3.2-5.4h5.6c-.6,3.7-2.3,6.6-4.9,8.7-2.7,2.1-6,3.2-10.1,3.2s-5.8-.7-8.1-2c-2.4-1.3-4.2-3.2-5.5-5.7-1.3-2.5-2-5.4-2-8.7s.7-6.2,2-8.7c1.3-2.5,3.2-4.4,5.5-5.7,2.4-1.3,5.1-2,8.1-2s7.4,1.1,10.1,3.3Z"/>
            <path class="cls-11" d="M537.6,544c2.1,1.5,3.6,3.6,4.5,6.2v-8.1h5.3v31.9h-5.3v-8.1c-.9,2.6-2.4,4.7-4.5,6.2-2.1,1.5-4.8,2.3-7.9,2.3s-5.3-.7-7.6-2c-2.2-1.3-3.9-3.2-5.2-5.7-1.3-2.5-1.9-5.4-1.9-8.7s.6-6.2,1.9-8.7c1.3-2.5,3-4.4,5.2-5.7,2.2-1.3,4.7-2,7.6-2s5.7.8,7.9,2.3ZM523.4,549.5c-2,2.1-2.9,4.9-2.9,8.6s1,6.5,2.9,8.6c2,2.1,4.6,3.1,7.8,3.1s4-.5,5.6-1.5c1.6-1,2.9-2.3,3.9-4.1.9-1.8,1.4-3.8,1.4-6.1s-.5-4.4-1.4-6.2c-.9-1.8-2.2-3.1-3.9-4.1-1.6-.9-3.5-1.4-5.6-1.4-3.3,0-5.9,1-7.8,3.1Z"/>
            <path class="cls-11" d="M574.5,544.5c2.2,1.9,3.5,4.4,4,7.6h-5.1c-.2-1.9-1-3.5-2.4-4.7-1.3-1.2-3.1-1.8-5.4-1.8s-3.4.5-4.4,1.4c-1.1.9-1.6,2.1-1.6,3.7s.4,2.1,1.1,2.8,1.6,1.3,2.7,1.6,2.5.8,4.4,1.2c2.4.5,4.3,1.1,5.7,1.7s2.7,1.5,3.7,2.7c1,1.2,1.5,2.9,1.5,5s-1,4.7-2.9,6.3-4.6,2.4-7.8,2.4-6.9-.9-9.3-2.7c-2.4-1.8-3.8-4.4-4.2-7.6h5.1c.2,1.9,1,3.5,2.5,4.7,1.5,1.2,3.5,1.8,5.9,1.8s3.2-.5,4.3-1.4c1-.9,1.5-2.1,1.5-3.7s-.4-2.2-1.1-3c-.7-.7-1.6-1.3-2.7-1.7-1.1-.4-2.6-.8-4.5-1.2-2.4-.5-4.2-1.1-5.7-1.6-1.4-.5-2.6-1.4-3.6-2.6-1-1.2-1.5-2.8-1.5-4.8s1-4.8,3-6.5c2-1.6,4.7-2.5,8.1-2.5s6.5.9,8.7,2.8Z"/>
            <path class="cls-11" d="M585.9,530.4c.7-.6,1.5-.9,2.6-.9s2,.3,2.6.9c.7.6,1,1.4,1,2.4s-.3,1.8-1,2.4c-.7.6-1.5.9-2.6.9s-2-.3-2.6-.9c-.7-.6-1-1.4-1-2.4s.3-1.8,1-2.4ZM591.2,542.1v31.9h-5.3v-31.9h5.3Z"/>
            <path class="cls-11" d="M604.9,531v43h-5.3v-43h5.3Z"/>
            <path class="cls-11" d="M618.7,531v43h-5.3v-43h5.3Z"/>
            <path class="cls-11" d="M648.1,544c2.1,1.5,3.7,3.6,4.5,6.2v-8.1h5.3v31.9h-5.3v-8.1c-.9,2.6-2.4,4.7-4.5,6.2-2.2,1.5-4.8,2.3-7.9,2.3s-5.3-.7-7.6-2c-2.2-1.3-3.9-3.2-5.2-5.7-1.3-2.5-1.9-5.4-1.9-8.7s.6-6.2,1.9-8.7c1.3-2.5,3-4.4,5.2-5.7,2.2-1.3,4.7-2,7.6-2s5.7.8,7.9,2.3ZM634,549.5c-2,2.1-2.9,4.9-2.9,8.6s1,6.5,2.9,8.6c2,2.1,4.6,3.1,7.8,3.1s4-.5,5.6-1.5,2.9-2.3,3.9-4.1c.9-1.8,1.4-3.8,1.4-6.1s-.5-4.4-1.4-6.2c-.9-1.8-2.2-3.1-3.9-4.1s-3.5-1.4-5.6-1.4c-3.3,0-5.9,1-7.8,3.1Z"/>
          </g>
        </g>
        <g>
          <g class="cls-17">
            <g class="cls-17">
              <path class="cls-4" d="M445.5,1536.6l-10.7-16.7h-5.8v16.7h-5.3v-41h13.5c4.6,0,8.1,1.1,10.5,3.3,2.3,2.2,3.5,5.2,3.5,8.9s-.9,6-2.8,8c-1.9,2-4.6,3.3-8.1,3.8l11.2,16.9h-6ZM429,1516h7.7c6,0,9-2.6,9-7.9s-3-7.9-9-7.9h-7.7v15.8Z"/>
              <path class="cls-4" d="M486.7,1521.8h-25.5c.1,3.6,1.2,6.4,3.1,8.2,2,1.8,4.3,2.7,7.2,2.7s4.7-.6,6.4-1.9c1.7-1.3,2.8-3,3.2-5.2h5.6c-.4,2.2-1.2,4.2-2.6,5.9-1.3,1.7-3.1,3.1-5.2,4.1-2.1,1-4.5,1.5-7.2,1.5s-5.8-.7-8.1-2c-2.4-1.3-4.2-3.2-5.5-5.7-1.3-2.5-2-5.4-2-8.7s.7-6.2,2-8.7c1.3-2.5,3.2-4.4,5.5-5.7,2.4-1.3,5.1-2,8.1-2s5.8.7,8.1,2c2.3,1.3,4.1,3.1,5.3,5.3,1.2,2.2,1.8,4.6,1.8,7.3s0,2.1-.2,2.9ZM480.4,1513.3c-.9-1.6-2.1-2.8-3.7-3.5-1.5-.8-3.2-1.2-5.1-1.2-2.9,0-5.3.9-7.3,2.7-2,1.8-3,4.4-3.2,7.9h20.4c.1-2.4-.3-4.3-1.2-5.9Z"/>
              <path class="cls-4" d="M518.1,1507.5c2.7,2.2,4.3,5.1,4.9,8.7h-5.6c-.4-2.3-1.4-4.1-3.2-5.4-1.7-1.3-3.9-1.9-6.4-1.9s-3.6.4-5.1,1.3c-1.5.9-2.8,2.2-3.7,3.9-.9,1.8-1.4,3.9-1.4,6.5s.5,4.8,1.4,6.5,2.2,3.1,3.7,3.9c1.5.9,3.2,1.3,5.1,1.3s4.7-.7,6.4-2c1.7-1.3,2.8-3.1,3.2-5.4h5.6c-.6,3.7-2.3,6.6-4.9,8.7-2.7,2.1-6,3.2-10.1,3.2s-5.8-.7-8.1-2c-2.4-1.3-4.2-3.2-5.5-5.7-1.3-2.5-2-5.4-2-8.7s.7-6.2,2-8.7c1.3-2.5,3.2-4.4,5.5-5.7,2.4-1.3,5.1-2,8.1-2s7.4,1.1,10.1,3.3Z"/>
              <path class="cls-4" d="M530,1493c.7-.6,1.5-.9,2.6-.9s2,.3,2.6.9c.7.6,1,1.4,1,2.4s-.3,1.8-1,2.4c-.7.6-1.5.9-2.6.9s-2-.3-2.6-.9c-.7-.6-1-1.4-1-2.4s.3-1.8,1-2.4ZM535.2,1504.7v31.9h-5.3v-31.9h5.3Z"/>
              <path class="cls-4" d="M568.9,1506.3c2.2,1.3,3.9,3.2,5.2,5.7,1.3,2.5,1.9,5.4,1.9,8.7s-.6,6.2-1.9,8.7c-1.3,2.5-3,4.3-5.2,5.7-2.2,1.3-4.7,2-7.6,2s-5.7-.8-7.9-2.4-3.6-3.6-4.4-6.2v8.1h-5.3v-43h5.3v19.2c.8-2.6,2.3-4.6,4.4-6.2,2.1-1.6,4.8-2.4,7.9-2.4s5.3.7,7.6,2ZM554.2,1510.4c-1.7.9-3,2.3-3.9,4.1-.9,1.8-1.4,3.8-1.4,6.2s.5,4.4,1.4,6.1c.9,1.8,2.2,3.1,3.9,4.1,1.7,1,3.5,1.5,5.6,1.5,3.3,0,5.9-1,7.9-3.1,2-2.1,2.9-4.9,2.9-8.6s-1-6.5-2.9-8.6c-2-2.1-4.6-3.1-7.9-3.1s-3.9.5-5.6,1.4Z"/>
              <path class="cls-4" d="M612,1521.8h-25.5c.1,3.6,1.2,6.4,3.1,8.2,2,1.8,4.3,2.7,7.2,2.7s4.7-.6,6.4-1.9c1.7-1.3,2.8-3,3.2-5.2h5.6c-.4,2.2-1.2,4.2-2.6,5.9-1.3,1.7-3.1,3.1-5.2,4.1-2.1,1-4.5,1.5-7.2,1.5s-5.8-.7-8.1-2c-2.4-1.3-4.2-3.2-5.5-5.7-1.3-2.5-2-5.4-2-8.7s.7-6.2,2-8.7c1.3-2.5,3.2-4.4,5.5-5.7,2.4-1.3,5.1-2,8.1-2s5.8.7,8.1,2c2.3,1.3,4.1,3.1,5.3,5.3,1.2,2.2,1.8,4.6,1.8,7.3s0,2.1-.2,2.9ZM605.7,1513.3c-.9-1.6-2.1-2.8-3.7-3.5-1.5-.8-3.2-1.2-5.1-1.2-2.9,0-5.3.9-7.3,2.7-2,1.8-3,4.4-3.2,7.9h20.4c.1-2.4-.3-4.3-1.2-5.9Z"/>
              <path class="cls-4" d="M624.4,1493.6v43h-5.3v-43h5.3Z"/>
              <path class="cls-4" d="M655.6,1506.3c2.4,1.3,4.3,3.2,5.7,5.7,1.4,2.5,2.1,5.4,2.1,8.7s-.7,6.2-2.1,8.7c-1.4,2.5-3.3,4.3-5.7,5.7-2.4,1.3-5.2,2-8.2,2s-5.8-.7-8.2-2c-2.4-1.3-4.3-3.2-5.7-5.7-1.4-2.5-2.1-5.4-2.1-8.7s.7-6.2,2.1-8.7c1.4-2.5,3.3-4.4,5.7-5.7,2.4-1.3,5.2-2,8.2-2s5.8.7,8.2,2ZM642.1,1510.2c-1.6.9-2.9,2.2-3.9,3.9-1,1.8-1.5,3.9-1.5,6.5s.5,4.7,1.5,6.5c1,1.8,2.3,3.1,3.9,3.9,1.6.9,3.4,1.3,5.3,1.3s3.7-.4,5.3-1.3c1.6-.9,2.9-2.2,3.9-3.9,1-1.8,1.5-3.9,1.5-6.5s-.5-4.8-1.5-6.5c-1-1.8-2.3-3.1-3.9-3.9-1.6-.9-3.4-1.3-5.3-1.3s-3.7.4-5.3,1.3Z"/>
            </g>
            <g class="cls-17">
              <path class="cls-4" d="M412,1584h-25.5c.1,3.6,1.2,6.4,3.1,8.2,2,1.8,4.3,2.7,7.2,2.7s4.7-.6,6.4-1.9c1.7-1.3,2.8-3,3.2-5.2h5.6c-.4,2.2-1.2,4.2-2.6,5.9-1.3,1.7-3.1,3.1-5.2,4.1-2.1,1-4.5,1.5-7.2,1.5s-5.8-.7-8.1-2c-2.4-1.3-4.2-3.2-5.5-5.7-1.3-2.5-2-5.4-2-8.7s.7-6.2,2-8.7c1.3-2.5,3.2-4.4,5.5-5.7,2.4-1.3,5.1-2,8.1-2s5.8.7,8.1,2c2.3,1.3,4.1,3.1,5.3,5.3,1.2,2.2,1.8,4.6,1.8,7.3s0,2.1-.2,2.9ZM405.8,1575.5c-.9-1.6-2.1-2.8-3.7-3.5-1.5-.8-3.2-1.2-5.1-1.2-2.9,0-5.3.9-7.3,2.7-2,1.8-3,4.4-3.2,7.9h20.4c.1-2.4-.3-4.3-1.2-5.9Z"/>
              <path class="cls-4" d="M445,1570c2.3,2.4,3.4,5.8,3.4,10.3v18.5h-5.3v-18.1c0-3.2-.8-5.6-2.4-7.3-1.6-1.7-3.8-2.6-6.6-2.6s-5.2.9-7,2.8c-1.7,1.9-2.6,4.6-2.6,8.2v16.9h-5.3v-31.9h5.3v7.6c.8-2.6,2.3-4.6,4.3-6,2.1-1.4,4.5-2.1,7.2-2.1s6.7,1.2,9,3.6Z"/>
              <path class="cls-4" d="M476.2,1562.1v14h15.6v4.1h-15.6v14.3h17.3v4.3h-22.6v-41h22.6v4.3h-17.3Z"/>
              <path class="cls-4" d="M524.5,1569.8c2.7,2.2,4.3,5.1,4.9,8.7h-5.6c-.4-2.3-1.4-4.1-3.2-5.4-1.7-1.3-3.9-1.9-6.4-1.9s-3.6.4-5.1,1.3c-1.5.9-2.8,2.2-3.7,3.9-.9,1.8-1.4,3.9-1.4,6.5s.5,4.8,1.4,6.5,2.2,3.1,3.7,3.9c1.5.9,3.2,1.3,5.1,1.3s4.7-.7,6.4-2c1.7-1.3,2.8-3.1,3.2-5.4h5.6c-.6,3.7-2.3,6.6-4.9,8.7-2.7,2.1-6,3.2-10.1,3.2s-5.8-.7-8.1-2c-2.4-1.3-4.2-3.2-5.5-5.7-1.3-2.5-2-5.4-2-8.7s.7-6.2,2-8.7c1.3-2.5,3.2-4.4,5.5-5.7,2.4-1.3,5.1-2,8.1-2s7.4,1.1,10.1,3.3Z"/>
              <path class="cls-4" d="M564.7,1566.9v31.9h-5.3v-7.5c-.8,2.6-2.3,4.6-4.3,6-2.1,1.4-4.5,2.1-7.2,2.1s-6.7-1.2-8.9-3.6c-2.3-2.4-3.4-5.8-3.4-10.3v-18.6h5.3v18.1c0,3.2.8,5.6,2.4,7.3,1.6,1.7,3.8,2.6,6.6,2.6s5.2-.9,7-2.8c1.7-1.9,2.6-4.6,2.6-8.2v-17h5.3Z"/>
              <path class="cls-4" d="M594.2,1568.8c2.1,1.5,3.6,3.6,4.5,6.2v-8.1h5.3v31.9h-5.3v-8.1c-.9,2.6-2.4,4.7-4.5,6.2-2.2,1.5-4.8,2.3-7.9,2.3s-5.3-.7-7.6-2c-2.2-1.3-3.9-3.2-5.2-5.7-1.3-2.5-1.9-5.4-1.9-8.7s.6-6.2,1.9-8.7c1.3-2.5,3-4.4,5.2-5.7,2.2-1.3,4.7-2,7.6-2s5.7.8,7.9,2.3ZM580,1574.3c-2,2.1-2.9,4.9-2.9,8.6s1,6.5,2.9,8.6c2,2.1,4.6,3.1,7.8,3.1s4-.5,5.6-1.5,2.9-2.3,3.9-4.1c.9-1.8,1.4-3.8,1.4-6.1s-.5-4.4-1.4-6.2c-.9-1.8-2.2-3.1-3.9-4.1s-3.5-1.4-5.6-1.4c-3.3,0-5.9,1-7.8,3.1Z"/>
              <path class="cls-4" d="M633.3,1568.8c2.1,1.5,3.6,3.6,4.5,6.2v-19.2h5.3v43h-5.3v-8.1c-.9,2.6-2.4,4.7-4.5,6.2-2.2,1.5-4.8,2.3-7.9,2.3s-5.3-.7-7.6-2c-2.2-1.3-3.9-3.2-5.2-5.7-1.3-2.5-1.9-5.4-1.9-8.7s.6-6.2,1.9-8.7c1.3-2.5,3-4.4,5.2-5.7,2.2-1.3,4.7-2,7.6-2s5.7.8,7.9,2.3ZM619.1,1574.3c-2,2.1-2.9,4.9-2.9,8.6s1,6.5,2.9,8.6c2,2.1,4.6,3.1,7.8,3.1s4-.5,5.6-1.5,2.9-2.3,3.9-4.1c.9-1.8,1.4-3.8,1.4-6.1s-.5-4.4-1.4-6.2c-.9-1.8-2.2-3.1-3.9-4.1s-3.5-1.4-5.6-1.4c-3.3,0-5.9,1-7.8,3.1Z"/>
              <path class="cls-4" d="M674.2,1568.5c2.4,1.3,4.3,3.2,5.7,5.7,1.4,2.5,2.1,5.4,2.1,8.7s-.7,6.2-2.1,8.7c-1.4,2.5-3.3,4.3-5.7,5.7-2.4,1.3-5.2,2-8.2,2s-5.8-.7-8.2-2c-2.4-1.3-4.3-3.2-5.7-5.7-1.4-2.5-2.1-5.4-2.1-8.7s.7-6.2,2.1-8.7c1.4-2.5,3.3-4.4,5.7-5.7,2.4-1.3,5.2-2,8.2-2s5.8.7,8.2,2ZM660.7,1572.4c-1.6.9-2.9,2.2-3.9,3.9-1,1.8-1.5,3.9-1.5,6.5s.5,4.7,1.5,6.5c1,1.8,2.3,3.1,3.9,3.9,1.6.9,3.4,1.3,5.3,1.3s3.7-.4,5.3-1.3c1.6-.9,2.9-2.2,3.9-3.9,1-1.8,1.5-3.9,1.5-6.5s-.5-4.8-1.5-6.5c-1-1.8-2.3-3.1-3.9-3.9s-3.4-1.3-5.3-1.3-3.7.4-5.3,1.3Z"/>
              <path class="cls-4" d="M698.8,1568.2c2-1.2,4.4-1.8,7.2-1.8v5.8h-1.6c-3,0-5.4.8-7.3,2.3-1.9,1.5-2.8,4.1-2.8,7.6v16.8h-5.3v-31.9h5.3v6.4c1-2.2,2.6-3.9,4.6-5.1Z"/>
            </g>
          </g>
          <g>
            <path class="cls-4" d="M491.1,1408.6c16.7-4,31.4,9.4,27.9,27.1.9,0,1.8,0,2.7,0h57.8c3.9,0,4,0,4-3.9v-6.1h-34.1c-8,0-10.6-2.6-10.6-10.4-5.9-2.1-7.6-4.6-7.1-9.7-2.5-1.7-5-2.9-6.9-4.8s-1.4-3.1-1.4-4.8c0-4.2,2.8-6.7,8.4-7.9-.6-6.9,2.5-10.3,9.5-10.3h15.7c.9,0,1.7,0,2.6,0,0-.4,0-.6,0-.7-2.7-7.6-.2-11.1,7.7-11.1h16.1v-19.5c0-1.8-.5-3-2.6-3h-29.4v23.1c0,3.5-2,4.5-4.9,2.7-2.6-1.6-5.2-3.3-7.9-4.8-.7-.4-2.1-.4-2.8,0-2.7,1.5-5.2,3.2-7.9,4.8-3,1.8-4.9.7-4.9-2.7v-22.9c-1,0-1.8-.2-2.6-.2h-25.8c-3.3,0-3.6.3-3.6,3.5v16c0,2-.3,3.8-2.7,3.9-2.5,0-2.7-1.8-2.7-3.8v-17.1c0-5,3-7.9,7.9-7.9h87.4c5,0,7.9,3,7.9,7.9v20.4c0,1.1.7,2.5,1.5,3.4,2.5,2.6,5.2,5.1,7.7,7.6s5.3,3.8,8.9,3.7c5.2-.2,7.2,2,7.2,7.2v23.1c0,4.7-2.1,6.7-6.8,6.8h-8.1c-1.3,0-2.7,0-4,.6-4.7,1.5-6.5,4.1-6.5,9v6.2c0,4.4-3,7.3-7.3,7.4h-62.4c-1.9,0-3.1.5-4.3,2.1-5.8,7.2-13.3,10.1-22.4,8.1-8.7-2-14.3-7.6-16.4-16.2-2.2-8.9.6-16.5,7.6-22.3,1.5-1.3,2-2.5,2-4.3-.1-6.2,0-12.5,0-18.7s.4-3.9,2.8-3.8c2.3,0,2.7,1.9,2.7,3.9v18.7-.3ZM564.1,1371.4c0,4.1,2.1,6.3,5.9,6.4,3.2,0,6.3,0,9.5,0s3.1,1,2.7,2.6c-.2,1.1-1.6,2-2.7,2.7-.6.4-1.6,0-2.4,0h-36.4c-1.8,0-3.7.2-3.7,2.5s1.7,2.6,3.6,2.6h13.8c2,0,3.8.4,3.8,2.8s-1.9,2.7-3.9,2.7h-21.2c-.7,0-1.6-.2-2.1,0-1,.6-2.3,1.5-2.4,2.4,0,.8,1.2,1.9,2.1,2.6.6.4,1.6.2,2.4.2h22c1.8,0,3,.8,3,2.7s-1.4,2.7-3.1,2.7h-14.6c-1.9,0-3.6.3-3.6,2.6s1.7,2.5,3.5,2.5h14.4c2,0,3.5.7,3.4,2.9,0,2-1.6,2.6-3.5,2.5h-7.3c-1.8,0-3.3.5-3.3,2.7s1.4,2.5,3.1,2.6h1.6c9.2,0,18.5-.2,27.7,0,4.4,0,8.1-1,11.4-3.9,3.4-3,7.5-4.3,12-4.1,2.8,0,5.7,0,8.6,0v-26c-9.5-1-10.9-1.2-15.8-7-5.2-6.2-11.3-9.2-19.4-8.1-3.1.4-6.3,0-9.4,0l.3.3ZM514,1430.1c0-9.2-7.2-16.6-16.3-16.7-9.3,0-16.8,7.3-16.8,16.5s7.4,16.6,16.5,16.6,16.6-7.3,16.6-16.4ZM528.6,1362.4c2.4-1.5,4.4-2.7,6.4-4,1.5-1,2.9-1.1,4.5,0,2,1.3,4.1,2.5,6.4,4v-18.7h-17.2v18.7h-.1Z"/>
            <path class="cls-4" d="M491.4,1377.2c-1.1.7-2.3,2-3.2,1.8-1-.2-2.2-1.7-2.3-2.8,0-.7,1.6-2.2,2.5-2.2s2.1,1.3,3.1,2v1.2h-.1Z"/>
            <path class="cls-4" d="M495.2,1431.1c2.1-2.5,4.2-5,6.2-7.4,1.2-1.4,2.5-2.3,4.2-1,1.8,1.4,1.3,3,0,4.5-2.6,3-5.1,6.1-7.7,9.1-1.4,1.7-3,1.9-4.7.4-1.2-1.1-2.5-2.1-3.7-3.2-1.4-1.2-1.8-2.6-.7-4,1.2-1.5,2.7-1.3,4.1-.2.7.5,1.4,1.1,2.2,1.7h.1Z"/>
          </g>
        </g>
        <g>
          <path class="cls-11" d="M532.6,426.5h8.1v-28.9h-60.1c-3.7,0-4-.3-4-4v-29.5c0-.5-.2-1.2,0-1.5.5-.8,1.3-1.5,2-2.3.7.8,1.5,1.5,2.1,2.4.3.4,0,1.2,0,1.8v28.8h37.1c0-.5.2-1.1.2-1.7v-37.8c0-9.3-6.9-16.9-16.2-18.3-8.9-1.3-17.6,4.3-20.2,13-.5,1.6-.7,3.2-.8,4.8-.1,1.4-.4,2.7-2.1,2.7s-2.1-1.4-2.1-2.9c0-11.2,10-21.6,21.5-21.8,14.7-.2,29.4-.1,44,0,.9,0,2.5,1.1,2.7,1.9.3,1.8-1.1,2.2-2.7,2.2h-29.1c.4.5.5.8.7,1,5.9,4.9,8.5,11.3,8.5,18.9v38h66c0-.2.2-.3.2-.5,0-13.2.2-26.4,0-39.6,0-8.9-7-16.6-16.1-17.5-6.2-.6-12.5-.1-19.1-.1v15.6c0,.6,1,1.4,1.7,1.8,3.4,2,5.1,5.6,4.3,9.2-.9,3.8-4.2,6.4-8.1,6.4s-7.1-2.6-8.1-6.4c-.9-3.5.7-7.4,4-9,1.8-.9,2-1.9,2-3.6v-39.4c0-3.5.3-3.9,3.8-3.9h15.8c2.4,0,3.3.9,3.2,3.3v10.1c0,2.3-.8,3.4-3.2,3.3-2.9,0-5.9.1-8.8-.1-.9,0-2.3-1.1-2.4-1.9-.3-1.6,1-2.2,2.5-2.2h7.6v-8.1h-14.2v20.5h15.3c14.2,0,23.9,9.7,23.9,23.9v38.8c0,3.2-.4,3.6-3.6,3.6h-44v29.8c0,2.5-.9,3.4-3.4,3.3-3.4-.1-6.7,0-10.1,0s-3.2-.7-3.2-3v-23c0-1.5.2-2.9,2.1-2.9s2.1,1.4,2.1,2.9v21.8h.2ZM555.4,360.2c0-2.2-1.9-4.1-4.1-4.1s-4.1,1.8-4.1,4.1,1.9,4.3,4.2,4.2c2.2,0,4-2,4-4.2h0Z"/>
          <path class="cls-11" d="M499.4,366.5h-11.4c-2.2,0-3.2-.8-3.2-3v-6.7c0-1.8.8-2.7,2.6-2.7h23.8c1.9,0,2.6.9,2.6,2.7v7c0,2-1,2.8-2.9,2.8h-11.6.1ZM489.1,362.2h20.5v-3.8h-20.5v3.8Z"/>
        </g>
      </g>
    </g>
  </g>
</svg>