<?xml version="1.0" encoding="utf-8"?>
<!-- Generator: Adobe Illustrator 28.4.1, SVG Export Plug-In . SVG Version: 6.00 Build 0)  -->
<svg version="1.1" id="Capa_1" xmlns="http://www.w3.org/2000/svg" xmlns:xlink="http://www.w3.org/1999/xlink" x="0px" y="0px"
	 viewBox="0 0 1004.36 341.16" style="enable-background:new 0 0 1004.36 341.16;" xml:space="preserve">
<style type="text/css">
	.st0{fill:#CB6103;}
	.st1{fill:#002075;}
</style>
<g>
	<g>
		<path class="st0" d="M533.14,271.52H405.98V208.6H510.7c12.32,0,22-9.68,22-22v-11.21c-1.03,0-0.68-1.11-0.22-2.3
			c-77.43,0.39-154.85,3.69-232.1,9.92v129.86c0,12.32,9.68,22,22,22h210.75c12.32,0,22-9.68,22-22v-19.36
			C555.14,281.2,545.46,271.52,533.14,271.52z"/>
		<path class="st0" d="M114.1,203.79c29.76,15.19,53.98,29.25,53.98,48.94c0,15.4-15.4,25.08-31.24,25.08
			c-15.84,0-31.24-9.24-31.24-28.6v-10.12c0-12.32-9.68-22-22-22H23.41l-8.99,1.33C5.94,221.44,0,229.44,0,239.09v1.32
			c0,67.32,68.2,100.76,136.84,100.76c68.64,0,136.84-36.52,136.84-98.56c0-22.4-8.65-40.34-21.96-55.25
			C205.76,191.79,159.87,197.27,114.1,203.79z"/>
		<path class="st0" d="M586.37,173.28v139.6c0,12.32,9.68,22,22,22h61.6c12.32,0,22-9.68,22-22V184.4l62.92,136.84h0.44
			c3.08,7.92,11,13.64,20.24,13.64h61.6c12.32,0,22-9.68,22-22V188.8C768.45,179.59,677.43,174.41,586.37,173.28z"/>
		<path class="st0" d="M898.76,193.06v119.82c0,12.32,9.68,22,22,22h61.6c12.32,0,22-9.68,22-22v-105.7
			c-2.4-0.41-4.84-0.82-7.26-1.23C964.37,201.13,931.59,196.82,898.76,193.06z"/>
	</g>
	<g>
		<path class="st1" d="M112.02,85.17c0-12.66,12.67-22.27,24.9-22.27s24.9,6.55,24.9,19.66V92.6c0,12.23,9.61,21.84,21.84,21.84
			h61.15c12.23,0,21.84-9.61,21.84-21.84v-1.31C266.64,30.14,201.56,0,136.92,0C72.28,0,7.2,36.25,7.2,94.78
			c0,52.36,51.68,79.3,96.59,101.99c47.05-6.87,94.21-12.65,141.46-17.33C198.89,135.22,112.02,119.11,112.02,85.17z"/>
		<path class="st1" d="M511.67,146.32H407.72V67.26h121.86c12.23,0,21.84-9.61,21.84-21.84V26.21c0-12.23-9.61-21.84-21.84-21.84
			H324.73c-12.23,0-21.84,9.61-21.84,21.84v148.06c76.65-6.14,153.46-9.41,230.29-9.81C531.47,154.05,522.64,146.32,511.67,146.32z"
			/>
		<path class="st1" d="M858.91,26.21c0-12.23-9.61-21.84-21.84-21.84h-61.15c-12.23,0-21.84,9.61-21.84,21.84v128.41L692.06,20.53
			c-0.87-2.62-2.18-4.81-3.06-6.99c-3.93-5.68-10.48-9.17-17.91-9.17h-61.15c-12.23,0-21.84,9.61-21.84,21.84v138.46
			c90.39,1.15,180.75,6.28,270.8,15.38V26.21z"/>
		<path class="st1" d="M1004.36,26.21c0-12.23-9.61-21.84-21.84-21.84h-61.15c-12.23,0-21.84,9.61-21.84,21.84v158.2
			c35,4.01,69.95,8.63,104.83,13.84V26.21z"/>
	</g>
</g>
</svg>
