<?xml version="1.0" encoding="UTF-8"?>
<svg id="Capa_1" data-name="Capa 1" xmlns="http://www.w3.org/2000/svg" version="1.1" viewBox="0 0 724 200">
  <defs>
    <style>
      .cls-1 {
        stroke-width: 3px;
      }

      .cls-1, .cls-2, .cls-3 {
        fill: none;
      }

      .cls-1, .cls-3 {
        stroke: #fff;
        stroke-miterlimit: 10;
      }

      .cls-4 {
        display: none;
        font-family: BerlinSansFB-Reg, 'Berlin Sans FB';
        font-size: 22.3px;
        letter-spacing: .3em;
      }

      .cls-4, .cls-5, .cls-6 {
        fill: #001881;
      }

      .cls-5, .cls-2, .cls-7, .cls-8 {
        stroke-width: 0px;
      }

      .cls-6 {
        font-family: aAkhirTahun, 'a Akhir Tahun';
        font-size: 181.8px;
        letter-spacing: 0em;
      }

      .cls-3 {
        stroke-width: 5px;
      }

      .cls-7 {
        fill: #fff;
      }

      .cls-8 {
        fill: #e76100;
      }
    </style>
  </defs>
  <text class="cls-4" transform="translate(29.8 184.4)"><tspan x="0" y="0">EL MUNDO A TU ALCANCE</tspan></text>
  <g>
    <text class="cls-6" transform="translate(17 165.4)"><tspan x="0" y="0">SENI</tspan></text>
    <path class="cls-7" d="M23.2,169.7l-5.5-54.9s213.9-31.3,235.1-7.1c0,0-3.1-26.6,188.1,7.1l2.4,51.7-420,3.1Z"/>
    <g>
      <path class="cls-2" d="M438.5,112.6v44c0,5.1-4,9.2-9.2,9.2h-25.6c-5.1,0-9.2-4-9.2-9.2v-50.4c-5.4-.7-10.9-1.3-16.5-1.9v52.3c0,5.1-4,9.2-9.2,9.2h-25.6c-3.8,0-7.1-2.4-8.4-5.7h-.2l-26.2-57v53.5c0,5.1-4,9.2-9.2,9.2h-25.6c-5.1,0-9.2-4-9.2-9.2v-59.2c-7.4-.1-14.8-.2-22.3-.2v6.8c0,5.1-4,9.2-9.2,9.2h-43.6v26.2h52.9c5.1,0,9.2,4,9.2,9.2v8.1c0,5.1-4,9.2-9.2,9.2h-87.7c-5.1,0-9.2-4-9.2-9.2v-56.2c-7.6.5-15,1.1-22.4,1.7,6.3,6.5,10.5,14.4,10.5,24.5,0,25.8-28.4,41-57,41s-57-13.9-57-41.9v-.5c0-5.1,4-9.2,9.2-9.2h25.6c5.1,0,9.2,4,9.2,9.2v4.2c0,8.1,6.4,11.9,13,11.9s13-4,13-10.4-11.8-15-25.5-21.9c-101.6,14.6-169.7,41.6-169.7,72.4,0,46.4,154.5,84,345,84s345-37.6,345-84-57.6-53.4-145.9-68.6Z"/>
      <path class="cls-8" d="M90.4,131.6c0,6.4-6.4,10.4-13,10.4s-13-3.8-13-11.9v-4.2c0-5.1-4-9.2-9.2-9.2h-25.6c-5.1,0-9.2,4-9.2,9.2v.5c0,28,28.4,41.9,57,41.9s57-15.2,57-41-4.2-18-10.5-24.5c-20.6,1.8-40.4,4.1-59,6.7,13.7,6.9,25.5,13.1,25.5,21.9Z"/>
      <path class="cls-8" d="M154.7,165.8h87.7c5.1,0,9.2-4,9.2-9.2v-8.1c0-5.1-4-9.2-9.2-9.2h-52.9v-26.2h43.6c5.1,0,9.2-4,9.2-9.2v-6.8c-.9,0-1.9,0-2.8,0-32.6,0-64.1,1.1-93.9,3.2v56.2c0,5.1,4,9.2,9.2,9.2Z"/>
      <path class="cls-8" d="M273.7,165.8h25.6c5.1,0,9.2-4,9.2-9.2v-53.5l26.2,57h.2c1.3,3.3,4.6,5.7,8.4,5.7h25.6c5.1,0,9.2-4,9.2-9.2v-52.3c-35.2-3.8-73.4-6.1-113.6-6.8v59.2c0,5.1,4,9.2,9.2,9.2Z"/>
      <path class="cls-8" d="M403.7,165.8h25.6c5.1,0,9.2-4,9.2-9.2v-44c-13.9-2.4-28.6-4.6-44-6.4v50.4c0,5.1,4,9.2,9.2,9.2Z"/>
    </g>
    <path class="cls-3" d="M144.7,101.2s63.9-5.1,98.9-3.1"/>
    <path class="cls-3" d="M263.8,98.2s85.9,2.4,116.8,6.8"/>
    <path class="cls-3" d="M126.4,102.9s-47.9,3.4-67.5,8.3"/>
    <path class="cls-3" d="M391.1,106.2s47.5,6,50.9,8.7"/>
    <path class="cls-1" d="M144.7,103.5s63.9-5.1,98.9-3.1"/>
    <path class="cls-1" d="M263.8,100.6s85.9,2.4,116.8,6.8"/>
    <path class="cls-1" d="M126.4,105.2s-47.9,3.4-67.5,8.3"/>
    <path class="cls-1" d="M391.1,108.6s47.5,6,50.9,8.7"/>
  </g>
  <g>
    <path class="cls-5" d="M457.3,153.1h-9.3v-31.7h9.3v31.7ZM473.9,156.1v9.3h-25.9v-9.3h25.9Z"/>
    <path class="cls-5" d="M491.2,121.3c3,0,5.9.6,8.6,1.7,2.7,1.1,5,2.7,7,4.7,2,2,3.6,4.4,4.7,7,1.1,2.7,1.7,5.5,1.7,8.6s-.6,5.9-1.7,8.6c-1.1,2.7-2.7,5-4.7,7-2,2-4.4,3.6-7,4.7-2.7,1.2-5.5,1.7-8.6,1.7s-5.9-.6-8.6-1.7c-2.7-1.2-5-2.7-7-4.7-2-2-3.6-4.3-4.7-7-1.1-2.7-1.7-5.5-1.7-8.6s.6-5.9,1.7-8.6c1.1-2.7,2.7-5,4.7-7s4.4-3.6,7-4.7c2.7-1.1,5.5-1.7,8.6-1.7ZM491.2,156.1c1.7,0,3.4-.3,4.9-1,1.5-.7,2.9-1.6,4.1-2.7,1.2-1.1,2.1-2.5,2.8-4,.7-1.5,1-3.2,1-4.9s-.3-3.4-1-4.9c-.7-1.6-1.6-2.9-2.8-4.1-1.2-1.2-2.5-2.1-4.1-2.8-1.5-.7-3.2-1-4.9-1s-3.4.3-4.9,1c-1.5.7-2.9,1.6-4.1,2.8-1.2,1.2-2.1,2.5-2.8,4.1-.7,1.6-1,3.2-1,4.9s.3,3.4,1,4.9c.7,1.6,1.6,2.9,2.8,4,1.2,1.1,2.5,2.1,4.1,2.7,1.5.7,3.2,1,4.9,1Z"/>
    <path class="cls-5" d="M555.6,156.1v9.3h-19.8c-3.2,0-6.2-.6-8.9-1.8-2.7-1.2-5-2.9-7-4.9-2-2-3.5-4.4-4.6-7.1-1.1-2.7-1.7-5.4-1.7-8.3s.2-3.6.7-5.5c.5-1.8,1.3-3.6,2.3-5.4,1.1-1.8,2.3-3.4,3.7-4.8,1.4-1.4,3-2.6,4.6-3.5,1.7-.9,3.4-1.6,5.2-2.1,1.8-.5,3.7-.7,5.5-.7s3.6.2,5.4.7c1.8.4,3.5,1.1,5.2,2,1.7.9,3.3,2,4.7,3.4,1.5,1.4,2.8,3,3.9,4.9l-.8.5-3.3,2-1.4.8h0c-.3.1-.7.4-1.1.6-.4.2-1,.5-1.6,1-1.4-2.2-3.1-3.8-5-4.9-1.9-1.1-4-1.7-6-1.7s-4.2.6-6.2,1.7c-1.9,1.1-3.6,2.7-4.9,4.8-.6,1-1,2-1.3,3.1-.3,1.1-.4,2.2-.4,3.1,0,1.7.3,3.3,1,4.8.6,1.5,1.5,2.9,2.7,4.1,1.1,1.2,2.5,2.1,4,2.8,1.5.7,3.3,1,5.1,1h19.8ZM537.3,144.1h18.3v9h-18.3v-9Z"/>
    <path class="cls-5" d="M558.3,165.4v-44.1h9.3v44.1h-9.3Z"/>
    <path class="cls-5" d="M594.3,134.7c-1.5-1.7-3.1-2.8-4.8-3.2-.9-.3-1.8-.4-2.5-.5-.7-.1-1.5-.2-2.1-.2-1.7,0-2.9.3-3.6.9-.7.6-1,1.2-1,2s.2,1,.6,1.4.9.9,1.6,1.2c.7.4,1.5.7,2.4,1,.9.3,1.8.6,2.8.9,1.6.6,3.2,1.2,4.9,1.9,1.7.7,3.1,1.5,4.3,2.4h0c1.4,1.2,2.4,2.7,3,4.3.7,1.6,1,3.2,1,4.8s-.2,3-.7,4.4c-.4,1.4-1,2.7-1.8,3.7-.7.9-1.8,1.8-3.3,2.7-1.5.8-3.2,1.6-5,2.4-1.9.5-3.7.7-5.3.7-2.7,0-5.4-.5-8.1-1.6-2.7-1.1-5.1-2.7-7.3-4.9.6-.7,1.1-1.4,1.6-1.9.5-.6,1.1-1.2,1.7-1.9l2.7-3.2c1.7,1.7,3.2,2.8,4.7,3.2,1.9.5,3.6.8,5,.8,2,0,3.4-.4,4.1-1.1.7-.8,1.1-1.6,1.2-2.4,0-.7-.3-1.3-.8-1.9-.5-.6-1.1-1.1-1.8-1.6-.7-.5-1.6-.9-2.5-1.3-.9-.4-1.9-.8-2.8-1.2l-1.7-.9c-.2,0-.4-.2-.7-.3-.3-.1-.5-.2-.7-.3-1-.4-1.9-.8-2.7-1.2-.8-.4-1.5-.8-1.8-1.1-1.6-1.1-2.7-2.5-3.3-4.2s-1-3.3-1-5c0-2.6.6-4.8,1.8-6.7.6-1,1.5-1.9,2.7-2.6,1.2-.8,2.6-1.5,4.3-2.1,1.1-.3,2.1-.5,3.1-.6,1-.1,1.9-.2,2.7-.2,2.8,0,5.6.6,8.4,1.8,2.8,1.2,5.3,2.9,7.6,5.1l-6.5,6.4Z"/>
    <path class="cls-5" d="M627.8,121.3v9.3h-9.4v34.8h-9v-34.8h-9.4v-9.3h27.8Z"/>
    <path class="cls-5" d="M628.8,165.4v-44.1h9.3v44.1h-9.3Z"/>
    <path class="cls-5" d="M672.9,137.1c-1.5-2.3-3.2-4-5.1-5-1.9-1.1-3.9-1.6-6-1.6s-3.2.3-4.7.9c-1.5.6-2.9,1.4-4.1,2.5s-2.2,2.4-2.9,4c-.7,1.6-1.1,3.4-1.1,5.4s.4,3.8,1.1,5.4c.7,1.6,1.7,2.9,2.9,4s2.6,1.9,4.1,2.5c1.5.6,3.1.9,4.7.9s4-.5,6-1.6c1.9-1.1,3.7-2.7,5.1-5,.4.3.8.5,1.1.7s.6.3.8.5l2.2,1.3c.8.6,1.5,1.1,2.1,1.3l1.9,1.1c-2.2,3.5-5,6.2-8.3,8.1-3.3,1.9-7,2.9-10.9,2.9s-3.9-.3-5.8-.8c-2.3-.7-4.4-1.8-6.4-3.2s-3.7-3-5.2-4.9c-1.5-1.9-2.6-3.9-3.4-6.2-.8-2.2-1.2-4.6-1.2-7s.4-4.8,1.2-7,1.9-4.4,3.4-6.3c1.4-1.9,3.1-3.5,5.1-4.9,2-1.4,4.1-2.4,6.5-3,1-.3,2-.5,3-.6,1-.1,2-.2,3-.2,3.9,0,7.5.9,10.9,2.8,3.4,1.9,6.2,4.6,8.4,8.2l-8.1,4.9Z"/>
    <path class="cls-5" d="M704.5,134.7c-1.5-1.7-3.1-2.8-4.8-3.2-.9-.3-1.8-.4-2.5-.5-.7-.1-1.5-.2-2.1-.2-1.7,0-2.9.3-3.6.9-.7.6-1,1.2-1,2s.2,1,.6,1.4.9.9,1.6,1.2c.7.4,1.5.7,2.4,1,.9.3,1.8.6,2.8.9,1.6.6,3.2,1.2,4.9,1.9,1.7.7,3.1,1.5,4.3,2.4h0c1.4,1.2,2.4,2.7,3,4.3.7,1.6,1,3.2,1,4.8s-.2,3-.7,4.4c-.4,1.4-1,2.7-1.8,3.7-.7.9-1.8,1.8-3.3,2.7-1.5.8-3.2,1.6-5,2.4-1.9.5-3.7.7-5.3.7-2.7,0-5.4-.5-8.1-1.6-2.7-1.1-5.1-2.7-7.3-4.9.6-.7,1.1-1.4,1.6-1.9.5-.6,1.1-1.2,1.7-1.9l2.7-3.2c1.7,1.7,3.2,2.8,4.7,3.2,1.9.5,3.6.8,5,.8,2,0,3.4-.4,4.1-1.1.7-.8,1.1-1.6,1.2-2.4,0-.7-.3-1.3-.8-1.9-.5-.6-1.1-1.1-1.8-1.6-.7-.5-1.6-.9-2.5-1.3-.9-.4-1.9-.8-2.8-1.2l-1.7-.9c-.2,0-.4-.2-.7-.3-.3-.1-.5-.2-.7-.3-1-.4-1.9-.8-2.7-1.2-.8-.4-1.5-.8-1.8-1.1-1.6-1.1-2.7-2.5-3.3-4.2s-1-3.3-1-5c0-2.6.6-4.8,1.8-6.7.6-1,1.5-1.9,2.7-2.6,1.2-.8,2.6-1.5,4.3-2.1,1.1-.3,2.1-.5,3.1-.6,1-.1,1.9-.2,2.7-.2,2.8,0,5.6.6,8.4,1.8,2.8,1.2,5.3,2.9,7.6,5.1l-6.5,6.4Z"/>
  </g>
</svg>