<?xml version="1.0" encoding="UTF-8"?>
<svg id="Capa_1" data-name="Capa 1" xmlns="http://www.w3.org/2000/svg" version="1.1" viewBox="0 0 724 200">
  <defs>
    <style>
      .cls-1 {
        fill: #e76100;
      }

      .cls-1, .cls-2, .cls-3 {
        stroke-width: 0px;
      }

      .cls-2 {
        fill: #001881;
      }

      .cls-4 {
        isolation: isolate;
      }

      .cls-5 {
        stroke-width: 3px;
      }

      .cls-5, .cls-3, .cls-6 {
        fill: none;
      }

      .cls-5, .cls-6 {
        stroke: #fff;
        stroke-miterlimit: 10;
      }

      .cls-6 {
        stroke-width: 5px;
      }
    </style>
  </defs>
  <g class="cls-4">
    <g class="cls-4">
      <path class="cls-2" d="M94,136.6c0-4.9-4.5-9.9-13.5-15-2.2-1.3-6-3.4-11.3-6.1-13.5-6.7-22.7-12.5-27.8-17.2-7.4-7-11.2-14.8-11.3-23.4,0-11.7,5.8-21.1,17.5-28.3,9.8-6.1,21-9.1,33.7-9.1s28.8,3.8,38.6,11.5c8.3,6.5,12.5,14.7,12.6,24.6v.5c0,3.8-1.7,6.5-5.1,7.9-1.2.5-2.4.7-3.5.7h-24.3c-3.8,0-6.5-1.7-7.9-5.1-.5-1.2-.7-2.4-.7-3.5v-4c0-3.8-2.2-6.3-6.6-7.4-1.1-.2-2.2-.3-3.2-.3-3.8,0-6.7,1.6-8.6,4.7-.8,1.3-1.2,2.7-1.2,4,0,4.4,4.3,8.9,12.8,13.6,2.1,1.2,5.6,3.1,10.4,5.6,13.7,6.7,23.2,12.6,28.6,17.5,7.7,7.3,11.7,15.6,11.8,24.9,0,12.2-6.1,22.1-18.4,29.5-10.1,6.1-21.8,9.1-35.2,9.1s-29.9-4-40.1-12.1c-9-7.2-13.5-16.3-13.6-27.3v-.5c0-3.8,1.7-6.5,5.1-7.9,1.2-.6,2.5-.8,3.7-.8h24.1c3.8,0,6.5,1.8,7.9,5.4.4,1.1.7,2.2.7,3.4v3.9c0,5.4,2.6,8.9,7.7,10.6,1.6.4,3.1.7,4.5.7,5.1,0,8.7-1.7,10.9-5.2.9-1.6,1.3-3.1,1.3-4.7Z"/>
      <path class="cls-2" d="M187.9,120.1v24.8h49.9c3.8,0,6.5,1.7,7.9,5.1.4,1.2.7,2.4.7,3.5v7.6c0,3.8-1.7,6.5-5.1,7.9-1.1.5-2.3.7-3.5.7h-82.7c-3.8,0-6.5-1.7-7.9-5.1-.5-1.2-.7-2.4-.7-3.5V47.8c0-3.8,1.7-6.5,5.1-7.9,1.2-.4,2.4-.7,3.5-.7h81c3.8,0,6.5,1.7,7.9,5.1.4,1.2.7,2.4.7,3.5v7.6c0,3.8-1.7,6.5-5.1,7.9-1.2.5-2.4.7-3.5.7h-48.2v31.3h41.1c3.8,0,6.5,1.7,7.9,5.1.4,1.2.7,2.4.7,3.5v7.6c0,3.8-1.7,6.5-5.1,7.9-1.1.5-2.3.7-3.5.7h-41.1Z"/>
      <path class="cls-2" d="M332.6,39.2h24.3c3.8,0,6.5,1.7,7.9,5.1.4,1.2.7,2.4.7,3.5v113.2c0,3.8-1.7,6.5-5.1,7.9-1.1.5-2.3.7-3.5.7h-24.3c-3.7,0-6.3-1.7-7.7-5.1-.1-.1-.2-.2-.2-.3h-.2l-24.6-53.6v50.4c0,3.8-1.7,6.5-5.1,7.9-1.1.5-2.3.7-3.5.7h-24.3c-3.8,0-6.5-1.7-7.9-5.1-.5-1.2-.7-2.4-.7-3.5V47.8c0-3.8,1.7-6.5,5.1-7.9,1.2-.4,2.4-.7,3.5-.7h24.3c3,.1,5.4,1.3,7.1,3.5.1.2.2.6.3,1,.4.8.7,1.4.8,1.9l24.4,52.9v-50.7c0-3.8,1.7-6.5,5.1-7.9,1.2-.4,2.4-.7,3.5-.7Z"/>
      <path class="cls-2" d="M389.5,39.2h24.3c3.8,0,6.5,1.7,7.9,5.1.4,1.2.7,2.4.7,3.5v113.2c0,3.8-1.7,6.5-5.1,7.9-1.1.5-2.3.7-3.5.7h-24.3c-3.8,0-6.5-1.7-7.9-5.1-.5-1.2-.7-2.4-.7-3.5V47.8c0-3.8,1.7-6.5,5.1-7.9,1.2-.4,2.4-.7,3.5-.7Z"/>
    </g>
  </g>
  <g>
    <path class="cls-3" d="M424.7,119.5v41.7c0,4.9-3.8,8.7-8.7,8.7h-24.3c-4.9,0-8.7-3.8-8.7-8.7v-47.8c-5.1-.6-10.3-1.2-15.6-1.8v49.6c0,4.9-3.8,8.7-8.7,8.7h-24.3c-3.6,0-6.8-2.3-8-5.4h-.2l-24.8-54v50.7c0,4.9-3.8,8.7-8.7,8.7h-24.3c-4.9,0-8.7-3.8-8.7-8.7v-56.1c-7,0-14.1-.2-21.2-.2v6.5c0,4.9-3.8,8.7-8.7,8.7h-41.3v24.8h50.2c4.9,0,8.7,3.8,8.7,8.7v7.6c0,4.9-3.8,8.7-8.7,8.7h-83.2c-4.9,0-8.7-3.8-8.7-8.7v-53.4c-7.2.5-14.3,1-21.2,1.7,6,6.2,10,13.7,10,23.2,0,24.5-26.9,38.9-54,38.9s-54-13.2-54-39.8v-.5c0-4.9,3.8-8.7,8.7-8.7h24.3c4.9,0,8.7,3.8,8.7,8.7v4c0,7.6,6.1,11.3,12.3,11.3s12.3-3.8,12.3-9.9-11.2-14.2-24.2-20.8c-96.3,13.9-160.9,39.4-160.9,68.7,0,44,146.5,79.7,327.2,79.7s327.2-35.7,327.2-79.7-54.7-50.7-138.4-65.1h-.1Z"/>
    <path class="cls-1" d="M94.5,137.5c0,6.1-6.1,9.9-12.3,9.9s-12.3-3.6-12.3-11.3v-4c0-4.9-3.8-8.7-8.7-8.7h-24.3c-4.9,0-8.7,3.8-8.7,8.7v.5c0,26.6,26.9,39.8,54,39.8s54-14.4,54-38.9-4-17.1-10-23.2c-19.6,1.7-38.3,3.9-56,6.4,13,6.6,24.2,12.4,24.2,20.8h.1Z"/>
    <path class="cls-1" d="M155.4,169.9h83.2c4.9,0,8.7-3.8,8.7-8.7v-7.6c0-4.9-3.8-8.7-8.7-8.7h-50.2v-24.8h41.3c4.9,0,8.7-3.8,8.7-8.7v-6.5h-2.6c-30.9,0-60.8,1-89.1,3v53.4c0,4.9,3.8,8.7,8.7,8.7h0Z"/>
    <path class="cls-1" d="M268.3,169.9h24.3c4.9,0,8.7-3.8,8.7-8.7v-50.7l24.8,54h.2c1.2,3.1,4.3,5.4,8,5.4h24.3c4.9,0,8.7-3.8,8.7-8.7v-49.6c-33.4-3.6-69.6-5.8-107.7-6.5v56.1c0,4.9,3.8,8.7,8.7,8.7Z"/>
    <path class="cls-1" d="M391.7,169.9h24.3c4.9,0,8.7-3.8,8.7-8.7v-41.7c-13.2-2.3-27.1-4.3-41.7-6.1v47.8c0,4.9,3.8,8.7,8.7,8.7Z"/>
  </g>
  <path class="cls-6" d="M146,108.6s60.6-4.8,93.8-3"/>
  <path class="cls-6" d="M258.9,105.9s81.5,2.3,110.8,6.5"/>
  <path class="cls-6" d="M128.6,110.2s-45.4,3.2-64,7.9"/>
  <path class="cls-6" d="M379.7,113.4s45.1,5.7,48.3,8.2"/>
  <path class="cls-5" d="M146,110.9s60.6-4.8,93.8-3"/>
  <path class="cls-5" d="M258.9,108.1s81.5,2.3,110.8,6.5"/>
  <path class="cls-5" d="M128.6,112.5s-45.4,3.2-64,7.9"/>
  <path class="cls-5" d="M379.7,115.7s45.1,5.7,48.3,8.2"/>
  <g>
    <path class="cls-2" d="M443.2,157.9h-8.9v-30.5h8.9v30.5ZM459.1,160.8v8.9h-24.8v-8.9h24.8Z"/>
    <path class="cls-2" d="M475.7,127.4c2.9,0,5.7.5,8.2,1.6,2.5,1.1,4.8,2.6,6.7,4.5,1.9,1.9,3.4,4.2,4.5,6.7,1.1,2.6,1.6,5.3,1.6,8.2s-.5,5.7-1.6,8.2c-1.1,2.6-2.6,4.8-4.5,6.7s-4.2,3.4-6.7,4.5c-2.6,1.1-5.3,1.7-8.2,1.7s-5.7-.6-8.2-1.7c-2.6-1.1-4.8-2.6-6.7-4.5-1.9-1.9-3.4-4.2-4.5-6.7-1.1-2.6-1.6-5.3-1.6-8.2s.5-5.7,1.6-8.2c1.1-2.6,2.6-4.8,4.5-6.7s4.2-3.4,6.7-4.5,5.3-1.6,8.2-1.6ZM475.7,160.8c1.7,0,3.2-.3,4.7-1s2.8-1.5,3.9-2.6,2-2.4,2.7-3.9,1-3.1,1-4.7-.3-3.3-1-4.7c-.7-1.5-1.5-2.8-2.7-3.9-1.1-1.1-2.4-2-3.9-2.7s-3.1-1-4.7-1-3.2.3-4.7,1-2.8,1.5-3.9,2.7c-1.1,1.1-2,2.4-2.7,3.9s-1,3.1-1,4.7.3,3.3,1,4.7c.7,1.5,1.5,2.8,2.7,3.9,1.1,1.1,2.4,2,3.9,2.6,1.5.7,3.1,1,4.7,1Z"/>
    <path class="cls-2" d="M537.6,160.8v8.9h-19c-3.1,0-5.9-.6-8.5-1.8-2.6-1.2-4.8-2.7-6.7-4.7s-3.4-4.2-4.4-6.8c-1.1-2.6-1.6-5.2-1.6-8s.2-3.5.7-5.2,1.2-3.5,2.2-5.2,2.2-3.3,3.6-4.6,2.8-2.5,4.5-3.4c1.6-.9,3.3-1.6,5-2,1.7-.4,3.5-.7,5.3-.7s3.4.2,5.2.6c1.7.4,3.4,1.1,5,1.9s3.1,1.9,4.5,3.3c1.4,1.3,2.7,2.9,3.8,4.7l-.8.5-3.2,2-1.3.8h0c-.3.1-.7.3-1.1.5-.4.2-.9.5-1.5.9-1.3-2.1-3-3.6-4.8-4.7-1.9-1.1-3.8-1.6-5.8-1.6s-4.1.5-5.9,1.6c-1.9,1.1-3.4,2.6-4.7,4.6-.6.9-1,1.9-1.3,3s-.4,2.1-.4,3c0,1.6.3,3.1.9,4.6s1.5,2.8,2.6,3.9,2.4,2,3.9,2.7,3.1,1,4.9,1h19v.2ZM520.1,149.3h17.6v8.6h-17.6v-8.6Z"/>
    <path class="cls-2" d="M540.2,169.8v-42.4h9v42.4h-9Z"/>
    <path class="cls-2" d="M574.8,140.2c-1.4-1.6-3-2.7-4.6-3.1-.9-.2-1.7-.4-2.4-.5s-1.4-.2-2-.2c-1.7,0-2.8.3-3.4.9-.6.6-.9,1.2-.9,1.9s.2.9.5,1.4c.4.4.9.8,1.5,1.2.7.4,1.4.7,2.3,1s1.7.6,2.7.9c1.5.5,3.1,1.1,4.7,1.8,1.6.7,2.9,1.4,4.1,2.3h0c1.3,1.2,2.3,2.6,2.9,4.1.6,1.6.9,3.1.9,4.6s-.2,2.9-.6,4.3c-.4,1.4-1,2.6-1.7,3.5s-1.7,1.8-3.2,2.6-3.1,1.6-4.8,2.3c-1.9.4-3.6.7-5.1.7-2.6,0-5.1-.5-7.8-1.6-2.6-1-4.9-2.6-7-4.7.5-.7,1-1.3,1.5-1.9.5-.5,1-1.1,1.6-1.8l2.6-3.1c1.6,1.6,3.1,2.7,4.5,3.1,1.8.5,3.4.7,4.8.7s3.2-.4,3.9-1.1c.7-.7,1.1-1.5,1.1-2.3s-.3-1.3-.8-1.8-1.1-1-1.8-1.5c-.7-.4-1.5-.9-2.4-1.3-.9-.4-1.8-.8-2.7-1.1l-1.6-.9c-.2,0-.4-.2-.7-.3-.2-.1-.5-.2-.7-.3-.9-.4-1.8-.8-2.6-1.2s-1.4-.7-1.8-1.1c-1.5-1.1-2.6-2.4-3.2-4-.6-1.6-.9-3.2-.9-4.8,0-2.5.6-4.6,1.7-6.4.6-.9,1.4-1.8,2.6-2.5,1.1-.8,2.5-1.4,4.2-2,1.1-.3,2.1-.5,3-.6s1.8-.2,2.6-.2c2.7,0,5.4.6,8.1,1.8,2.7,1.2,5.1,2.8,7.3,4.9l-6.3,6.1v.2Z"/>
    <path class="cls-2" d="M607.1,127.4v8.9h-9v33.5h-8.7v-33.5h-9v-8.9h26.7Z"/>
    <path class="cls-2" d="M608,169.8v-42.4h9v42.4h-9Z"/>
    <path class="cls-2" d="M650.3,142.6c-1.4-2.2-3.1-3.8-4.9-4.8s-3.8-1.5-5.7-1.5-3.1.3-4.5.8c-1.5.5-2.8,1.3-3.9,2.4-1.2,1-2.1,2.3-2.8,3.8s-1.1,3.3-1.1,5.2.4,3.7,1.1,5.2,1.6,2.8,2.8,3.8,2.5,1.8,3.9,2.4c1.5.5,3,.8,4.5.8s3.9-.5,5.7-1.5,3.5-2.6,4.9-4.8c.4.3.8.5,1.1.7s.6.3.8.5l2.1,1.2c.8.6,1.4,1,2,1.3l1.8,1c-2.1,3.3-4.8,5.9-8,7.8-3.2,1.9-6.7,2.8-10.5,2.8s-3.7-.2-5.6-.7c-2.2-.7-4.3-1.7-6.2-3.1s-3.6-2.9-5-4.7-2.5-3.8-3.3-6-1.2-4.4-1.2-6.7.4-4.6,1.2-6.7c.8-2.2,1.9-4.2,3.2-6,1.4-1.8,3-3.4,4.9-4.7s4-2.3,6.3-2.9c.9-.3,1.9-.5,2.8-.6,1,0,1.9-.2,2.8-.2,3.7,0,7.2.9,10.4,2.7,3.3,1.8,5.9,4.4,8.1,7.9l-7.8,4.7h.1Z"/>
    <path class="cls-2" d="M680.7,140.2c-1.4-1.6-3-2.7-4.6-3.1-.9-.2-1.7-.4-2.4-.5s-1.4-.2-2-.2c-1.7,0-2.8.3-3.4.9-.6.6-.9,1.2-.9,1.9s.2.9.5,1.4c.4.4.9.8,1.5,1.2.7.4,1.4.7,2.3,1s1.7.6,2.7.9c1.5.5,3.1,1.1,4.7,1.8,1.6.7,2.9,1.4,4.1,2.3h0c1.3,1.2,2.3,2.6,2.9,4.1.6,1.6.9,3.1.9,4.6s-.2,2.9-.6,4.3c-.4,1.4-1,2.6-1.7,3.5s-1.7,1.8-3.2,2.6-3.1,1.6-4.8,2.3c-1.9.4-3.6.7-5.1.7-2.6,0-5.1-.5-7.8-1.6-2.6-1-4.9-2.6-7-4.7.5-.7,1-1.3,1.5-1.9.5-.5,1-1.1,1.6-1.8l2.6-3.1c1.6,1.6,3.1,2.7,4.5,3.1,1.8.5,3.4.7,4.8.7s3.2-.4,3.9-1.1c.7-.7,1.1-1.5,1.1-2.3s-.3-1.3-.8-1.8-1.1-1-1.8-1.5c-.7-.4-1.5-.9-2.4-1.3-.9-.4-1.8-.8-2.7-1.1l-1.6-.9c-.2,0-.4-.2-.7-.3-.2-.1-.5-.2-.7-.3-.9-.4-1.8-.8-2.6-1.2s-1.4-.7-1.8-1.1c-1.5-1.1-2.6-2.4-3.2-4-.6-1.6-.9-3.2-.9-4.8,0-2.5.6-4.6,1.7-6.4.6-.9,1.4-1.8,2.6-2.5,1.1-.8,2.5-1.4,4.2-2,1.1-.3,2.1-.5,3-.6s1.8-.2,2.6-.2c2.7,0,5.4.6,8.1,1.8,2.7,1.2,5.1,2.8,7.3,4.9l-6.3,6.1v.2Z"/>
  </g>
</svg>